<svg xmlns="http://www.w3.org/2000/svg" width="630" height="576" viewBox="0 0 630 576"><path fill="#0a0a14" d="M103 1c7.16.37 13.08 2.29 19.77 4.84 4.9 1.76 9 2.21 14.21 2.25 10 .16 18.76 2.27 28.28 5.25 7.14 2.23 14.12 3.87 21.5 5.05C190 19 190 19 192.93 20c2.98.97 5.88 1.49 8.98 1.94 13.72 2 24.85 6.8 34.11 17.36 2.19 2.98 3.63 5.96 5.17 9.32 4.73 9.7 9.41 17.61 20 21.44 2.26.68 4.53 1.32 6.81 1.94.45.16.45.16 2.73.98 4.72 1.47 9.54 2.29 14.39 3.21 42.4 8.32 42.4 8.32 54.88 16.81 1.65 1.09 3.29 2.18 4.94 3.27 2.75 1.83 5.5 3.67 8.24 5.52 7.09 4.78 14.27 9.19 21.82 13.21.49.27.49.27 2.96 1.66 7.63 3.36 18.95 3.47 27.04 1.34 6.59-2.86 11.23-6.82 15.62-12.46.23-.25.23-.25 1.38-1.54h2c1.72-9.32 2.05-18.22 1.88-27.69C425.7 62 425.88 44.3 436 33c16.47-16.25 36.86-24.17 59.75-24.19l3.46-.03c13.34-.03 26.42 2.75 36.23 12.43 1.64 1.69 3.23 3.39 4.77 5.17 6.81 7.61 16.37 9.23 26.1 10.69.52.08.52.08 3.17.51 3.32.52 6.64 1.03 9.96 1.54 3.31.53 6.63 1.05 9.94 1.57 2.05.33 4.11.65 6.16.97 2.82.43 5.64.89 8.46 1.34 1.01.15 2.01.3 3.05.46.98.16 1.97.32 2.98.48.88.14 1.76.28 2.67.42 4 1.11 5.15 3.15 7.3 6.64l1.88 3c1.36 3.64 1.37 5.33.12 9-.87.76-1.73 1.53-2.62 2.31C617 68 617 68 616.79 69.89c.53 5.49 2.09 10.82 3.59 16.12 1.04 5.03 1.4 8.55-1.09 13.16-.74.99-1.47 1.99-2.23 3.02-4.9 6.73-4.9 6.73-5.06 9.81.89 2.71.89 2.71 2.25 5.94 6.31 16.56 6.26 34.85 7.02 52.36.86 19.22.86 19.22 3.78 26.2.98 2.58 1.22 4.46 1.26 7.2.02.87.05 1.75.07 2.65l.06 2.77c.18 5.94.38 11.38 2.25 17.07 1.45 4.5 1.05 7.17-.15 11.68-.9 5.21-.62 10.46-.47 15.74.01.41.01.41.05 2.49.03.72.05 1.45.08 2.2-.18 2.41-.61 4.35-1.22 6.68-1.41 6.11-1.03 12.08-.77 18.31.07 2.01.13 4.02.2 6.03l.24 6.43c.28 7.61.52 15.22.76 22.83.03.79.05 1.58.08 2.39.57 17.7.91 35.41 1.16 53.12.04 2.27.07 4.54.11 6.81.06 3.6.11 7.2.16 10.8l.09 5.78c.08 7.14-.21 14.15-.78 21.27-.32 4.49-.37 8.97-.36 13.47 0 .45 0 .45-.01 2.72 0 2.85.01 5.71.02 8.56v2.98c.01 11.21.11 22.4.76 33.6.45 8.26.47 16.52.48 24.8.01.34.01.34.01 2.07.08 26.37.08 26.37-2.63 37.99-.26 1.14-.52 2.28-.78 3.46C625 551 625 551 624 552c-3.97.59-7.97.95-11.97 1.36-1.99.2-3.99.41-5.98.62-6.72.69-13.29 1.19-20.05 1.02.16 1.26.33 2.52.5 3.81.61 5.4.59 10.76.5 16.19-3 1-3 1-5.02.29-.76-.39-1.51-.77-2.3-1.17-.84-.42-1.68-.85-2.55-1.28-.89-.47-1.78-.93-2.69-1.4-.91-.46-1.81-.92-2.74-1.4-5.39-2.77-10.67-5.66-15.81-8.88-2.55-1.57-5.21-2.85-7.89-4.16-1.35-.74-2.69-1.48-4.03-2.23-3.34-1.87-6.7-3.71-10.06-5.53-9.5-5.14-18.92-10.34-28.19-15.86-4.63-2.76-9.32-5.38-14.07-7.92-2.49-1.37-4.9-2.82-7.31-4.32-5.11-3.08-10.37-5.64-15.78-8.14-17.71-8.34-35.29-17.12-52.04-27.27-5.21-3.12-10.6-5.63-16.13-8.14-5.53-2.59-10.85-5.53-16.2-8.47-9.64-5.24-19.34-10.3-29.19-15.12l-6-3c-.95-.48-1.91-.95-2.89-1.44-2.29-1.15-4.59-2.3-6.88-3.46-.67-.34-1.34-.68-2.03-1.02-1.27-.64-2.54-1.28-3.8-1.93-4.44-2.22-8.92-4.33-13.42-6.41-8.03-3.73-15.95-7.65-23.86-11.62-1.4-.7-2.81-1.4-4.22-2.11-8.09-4.05-16.14-8.14-24.04-12.53-5.17-2.83-8.92-4.07-14.67-2.54-10.51 3.09-26.07 9.42-33.55 17.54-1.86 1.72-3.36 2.37-5.74 3.2-.79.29-1.59.58-2.41.87-.84.29-1.69.59-2.55.89-1.73.61-3.45 1.23-5.17 1.84-.83.3-1.66.59-2.51.89-3.44 1.26-6.81 2.7-10.15 4.2-3.5 1.04-6.48 1.5-9.81-.28-1.79-1.25-3.48-2.58-5.18-3.97-.59-.46-1.18-.92-1.79-1.39-1.49-1.18-2.92-2.45-4.33-3.73v-2c-.6-.27-1.2-.54-1.81-.81-2.19-1.19-3.6-2.29-5.19-4.19v-2c-.27-.11-.27-.11-1.62-.69-2.38-1.31-2.38-1.31-5.09-3.7-5.25-4.42-11.9-6.35-18.29-8.61-.58-.2-.58-.2-3.49-1.23-13.31-4.25-26.72-4.33-40.51-2.77-.2-.92-.39-1.84-.59-2.79-2.79-11.8-7.37-24.63-17.41-32.21-7.8-3.47-16.3-4.25-24.67-5.37-9.29-1.36-18.11-3.09-24.33-10.63-.54-.56-1.07-1.13-1.62-1.71-1.95-3.25-1.6-5.72-1.44-9.48.32-14.5-4.59-24.14-13.37-35.56C9 302 9 302 9 300H7c-3.29-3.28-5.94-6.4-6.12-11.12 2.6-6.66 7.51-11.79 12.23-17.02 3.84-4.41 5.69-8.23 6.14-14.17-.2-2.97-.61-5.18-1.37-8-1.08-4.44-.45-7.64.59-12.03 1.83-9.22.85-19.34-3.56-27.73-3.59-7.59-.02-20.22 2.15-27.93 4.05-15.62.38-29.64-6.06-44-5.16-12.19-5.16-12.19-3-18 3.14-3.9 5.86-5.75 10.79-6.84 4.72-1.08 7.79-3.42 11.46-6.47.6-.48 1.2-.95 1.81-1.44C38.38 100.14 42.48 95.12 44 87c.27-5.3.15-10.58 0-15.88-.08-2.78-.14-5.57-.19-8.36-.01-.62-.01-.62-.1-3.72C44 56 44 56 45.4 54.15 52.55 49 52.55 49 56 49l1-3c3.47-2.92 7.28-5.4 11-8 1.04-.77 2.09-1.55 3.16-2.35C78.43 30.36 85.46 26.79 94 24c3-1 3-1 4.06-3.06C100.15 14.41 101.54 7.69 103 1"/><path fill="#2184d8" d="M105 4c6.25.64 11.95 2.59 17.68 5.1 4.31 1.67 8.37 1.99 12.99 2.14 8.64.3 16.56 1.8 24.89 4.11 5.08 1.36 10.2 2.55 15.32 3.77 1.04.26 2.09.51 3.16.77 5.53 1.33 11.05 2.56 16.63 3.65 15 2.94 28.47 5.7 38.33 18.46 1.84 3.05 3.45 6.21 5.04 9.39 2.94 5.82 6.59 10.76 10.96 15.61.22.26.22.26 1.33 1.59 9.84 8.32 27.13 9.51 39.22 11.9 6.92 1.38 13.79 2.94 20.64 4.63.95.23 1.89.46 2.87.7 9.41 2.37 17.8 5.7 25.94 10.99.69.44 1.38.88 2.08 1.33 4.63 2.97 9.15 6.07 13.62 9.27 3.25 2.25 6.64 4.25 10.06 6.25 1.83 1.1 3.61 2.3 5.36 3.53 7.65 4.82 14.39 5.24 23.17 5.16 6.13.12 6.13.12 9.12 2.85 5.01 8.83 8.15 17.49 7.59 27.8-1 2.37-1 2.37-2 4-14.4.55-26.34-7.09-38.43-14.11-6.33-3.67-12.7-6.98-19.36-10-5.34-2.44-10.53-5.12-15.71-7.89-8.71-4.63-17.49-9-26.5-13-.83-.37-1.67-.74-2.53-1.12-10.21-4.48-20.47-8.43-31.22-11.44-.88-.25-1.76-.51-2.67-.76-9.24-2.45-16.78-2.95-25.2 1.88q-2.055 1.11-4.11 2.19c-.7.38-1.4.75-2.11 1.13-3.61 1.87-7.31 3.5-11.04 5.12-.68.3-1.36.6-2.07.92-4.79 2.08-4.79 2.08-7.05 2.08v2c1.18-.52 2.36-1.03 3.58-1.57 1.56-.66 3.11-1.33 4.67-1.99.78-.34 1.55-.69 2.36-1.04.75-.32 1.5-.64 2.28-.97.69-.29 1.38-.59 2.1-.9 2.36-.62 3.72-.3 6.01.47 3.55 21.38 6.28 47.74-6.22 66.77-1.99 2.49-4.16 4.65-6.47 6.85-5.21 5-6.96 8.96-7.69 16.07.69 14.06 6.94 26.82 13.38 39.06 3.74 7.39 6.28 15.14 8.9 22.97 1.04 3.11 2.11 6.2 3.18 9.3 1 2.91 1.99 5.82 2.99 8.73.49 1.44.98 2.87 1.48 4.31 6.34 18.31 7.76 35.1 4.59 54.16-1.12 6.97-1.54 13.84-1.79 20.89-.18 4.45-.53 8.69-1.41 13.08-2.09 10.56-.04 16.73 4.53 26.33C259 400 259 400 259 403c-.91.23-1.82.47-2.76.71-8.64 2.37-16.48 5.65-24.43 9.79-.89.46-1.79.93-2.71 1.4-4.81 2.57-8.26 5.19-12.1 9.1-2.91 1.41-2.91 1.41-6.06 2.5-4.52 1.62-8.92 3.33-13.32 5.25-8.49 3.48-8.49 3.48-12.62 3.25-5.97-2.59-10.26-7.19-14.69-11.81-14.25-14.81-34.99-24.49-55.59-25.32-9.74.02-9.74.02-13.91.75-.93.13-1.85.25-2.81.38-2.95-2.95-3.09-5.96-4-10 10.19-8.46 28.85-6.16 41.45-6.5 2.29-.06 4.58-.13 6.87-.2 8.24-.23 16.46-.3 24.7-.16 10.45.16 19.17-.2 28.98-4.14.98-.36 1.97-.72 2.98-1.09 6.57-2.46 6.57-2.46 9.02-4.91 1.67-.67 3.33-1.33 5-2 2.38-2.38 2.49-3.2 2.75-6.5-.12-9.16-6.04-16.98-10.75-24.5-.29-.46-.29-.46-1.75-2.8-.93-1.43-1.88-2.83-2.86-4.22-.97-1.38-1.89-2.8-2.78-4.24-4.24-6.65-9.54-11.69-15.37-16.92-6.78-6.09-6.78-6.09-8.24-8.82.31-2.25.31-2.25 1-4 1.07-.13 2.14-.27 3.25-.4l4.19-.54c.7-.08 1.41-.17 2.14-.26 5.31-.69 5.31-.69 6.42-1.8-.23-7.88-2.82-13.88-6.19-20.94-.47-1.02-.94-2.04-1.42-3.09-11.77-25.16-11.77-25.16-24.16-30.07-8.89-3.12-16.41-4.5-25.67-2.78-.74.14-1.48.28-2.25.42-7.18 1.44-12.75 3.71-17.81 9.15-3.24 5-3.26 9.44-2.5 15.31 2.79 7.73 7.56 14.57 11.91 21.49 2.75 4.49 5.03 9.21 7.3 13.95 1.98 4.11 4.18 7.82 6.79 11.56 5.7-.9 5.7-.9 8.27-1.76 2.69-.81 4.91-1.28 7.73-1.24 3.25 1.87 5.35 4.48 7.69 7.38.61.7 1.22 1.41 1.85 2.13 1.23 1.43 2.45 2.87 3.66 4.33 1.77 2.12 3.59 4.19 5.43 6.25 3.11 3.55 5.91 7.23 8.62 11.1.42.59.84 1.18 1.27 1.78 4.48 6.33 6.83 10.37 7.48 18.03-16.36 12.11-40.13 8.98-59.23 6.72-7.34-.81-14.64-.95-22.02-.97l-3.46-.03c-6.14.02-11.42.49-17.29 2.28-5.37 1.37-5.37 1.37-8.32-.36-.89-.54-1.77-1.08-2.68-1.64-8.14-3.25-16.47-4.74-25.11-5.87-7.01-.97-14.57-2.19-19.89-7.19-.28-.26-.28-.26-1.69-1.54-2.36-2.52-2.41-4.29-2.35-7.63.01-20.68-8.19-33.81-21.85-48.85C4 291 4 291 4.05 288.58c1.18-3.22 2.84-5.24 5.07-7.83.81-.96 1.62-1.93 2.45-2.92 1.5-1.74 3.01-3.48 4.55-5.19 4.57-5.34 6.34-9.55 5.88-16.64-.43-2.31-.98-4.56-1.58-6.83-.88-4.54.13-8.82 1.58-13.17 1.03-9.27-.79-20.59-5-29-.56-6.78.44-12.93 2-19.5 3.88-18.09 1.93-31.86-4.7-48.88-.28-.72-.56-1.44-.85-2.18-.53-1.38-1.09-2.76-1.66-4.13-1.53-3.83-2.17-6.36-.79-10.31 1.94-2.47 2.94-2.98 6-4 .16-.33.16-.33 1-2 .72-.23 1.44-.45 2.19-.69 3.39-1.58 4.77-3.5 7.07-6.38 1.94-2.15 4.02-3.73 6.36-5.43C39.53 99.06 41.99 94.1 44 87c.23-3.44.23-3.44.2-7.15-.01-.33-.01-.33-.01-1.99-.01-2.08-.04-4.16-.07-6.24-.01-1.41-.01-2.83-.02-4.25-.02-3.46-.06-6.91-.1-10.37.59-.13 1.18-.25 1.79-.38 6.18-1.73 11.4-6.48 16.4-10.37 17.72-13.73 17.72-13.73 26.69-16.81C94.93 27.26 99.12 24.93 102 19c.85-3.72 1.36-7.32 1.71-11.12C104 5 104 5 105 4"/><path fill="#81c4fb" d="M279.125 102.438c.57.18.57.18 3.43 1.06 16.53 5.28 32.18 12.61 47.58 20.54 2.54 1.31 5.09 2.58 7.65 3.86 1.31.65 2.62 1.31 3.94 1.97 3.7 1.85 7.41 3.69 11.13 5.51 8.23 4.04 16.29 8.19 24.15 12.94 9.58 5.75 18.49 9.87 29.69 11.32 2.31.36 2.31.36 3.31 1.36.11 1.58.15 3.16.17 4.74.01 1.01.03 2.03.04 3.07 0 .56 0 .56.03 3.36.03 2.37.07 4.73.1 7.09.05 3.71.09 7.43.13 11.14.17 14.58.72 28.94 2.3 43.43.42 4.11.65 8.23.91 12.35.88 14.12 2.89 27.89 5.32 41.82 1.26 7.36 2.05 14.53 2.28 21.99.28 9.06 1.13 16.97 3.61 25.7 1.45 5.3 2.2 10.71 3.04 16.13 1.69 10.62 4.07 20.85 7.07 31.18.24.85.48 1.69.72 2.57 2.87 10.07 5.9 19.89 10.28 29.43.52 1.18 1.04 2.36 1.58 3.57 8.17 18.16 18.11 32.99 32.77 46.57 1.81 2.05 2.39 3.15 2.65 5.86-1.09 6.08-3.57 10.77-8 15-12.42 7.21-33.46 5.41-47 3-7.14-2.43-13.36-6.4-19.64-10.5-3.39-2.15-6.93-3.89-10.55-5.62-5.62-2.76-11.17-5.63-16.69-8.56-10.98-5.83-22.12-11.35-33.25-16.89-2.36-1.17-4.72-2.35-7.07-3.54-6.74-3.4-13.51-6.71-20.32-9.98-12.4-5.95-24.75-11.95-36.86-18.48-2.95-1.58-5.9-3.02-8.96-4.36-10.44-4.68-14.47-10.67-18.66-21.07-.39-.85-.78-1.7-1.18-2.58-2.88-7.05-1.76-14.06.24-21.23.97-3.52.97-6.67.87-10.31-.11-6.34.61-12.3 1.57-18.56 1.52-10.19 1.89-20.04 1.5-30.32l-.06-2.87c-.38-6.95-2.8-13.32-5.13-19.82-.9-2.54-1.77-5.09-2.64-7.65-11.66-34.07-11.66-34.07-17.8-45.91-5.78-11.14-13.18-26.17-9.44-38.93 1.79-4.05 4.75-6.57 7.94-9.55 9.53-10.15 13.25-23.07 13.26-36.67v-6.36c-.01-2.17 0-4.33 0-6.5 0-6.66-.15-13.14-1.13-19.74-.06-1.66-.09-3.33-.07-5l.03-2.31c.01-.56.02-1.11.04-1.69 1.58-.82 3.16-1.63 4.74-2.44.45-.22.45-.22 2.68-1.37 9.14-4.22 18.6-.58 27.7 2.25"/><path fill="#cf72fc" d="M508.32 126.635c23.53 8.16 49.16 19.62 60.67 43.08 1.8 4.07 3.1 8.27 4.39 12.53.14.45.14.45.86 2.68.26.86.52 1.71.78 2.59.12.38.12.38.72 2.32.33 2.72-.26 3.89-1.74 6.16-3.14 2.62-6.58 4.78-10 7-.67.46-1.35.91-2.04 1.38-2.78 1.76-4.34 2.72-7.66 2.22-.76-.2-1.52-.39-2.3-.6.31.54.63 1.07.95 1.62 11.18 19.46 14.75 41.15 13.99 63.38-.02.74-.03 1.47-.04 2.23-.22 3.75-.74 5.59-3.16 8.5-.91.75-1.81 1.5-2.74 2.27-.39.37-.39.37-2.36 2.22-6.86 6.2-13.61 12.24-21.79 16.64-2.31 1.43-4.32 3.1-6.41 4.83-13 10.52-27.32 17.39-42.44 24.31-1.48.7-2.96 1.39-4.44 2.08-12.3 5.68-24.56 10.31-38.25 10.49-.74.01-1.48.03-2.25.04-5.14-.1-8.1-1.38-12.06-4.61-6.54-8.03-7.48-16.72-7.31-26.75l.03-3.33c.17-10.39.99-20.61 2.28-30.92.12-1.01.25-2.03.37-3.08 3.61-29.13 9.94-57.61 17.63-85.92.44-1.66.89-3.33 1.33-5 .88-3.33 1.77-6.66 2.67-10-2.26 3.39-3.24 6.71-4.34 10.57-.22.76-.44 1.51-.66 2.29-2.37 8.29-4.47 16.64-6.5 25.02-.19.8-.39 1.6-.59 2.42-5.96 24.71-9.91 49.49-12.91 74.7h-2c-2.97-17.94-5.88-35.74-6.66-53.93-.13-3.05-.33-6.01-.83-9.01-2.23-13.41-1.63-27.51-1.69-41.07q0-2.325-.03-4.65c-.23-28-.23-28 6.21-38.34.66-1.25 1.31-2.52 1.93-3.79.16-.32.16-.32.96-1.95.16-.33.16-.33.99-2.01 16.61-33.46 55.11-19.01 86.44-8.61"/><path fill="#d071fd" d="M600 269c2.26 15.23 3.6 30.35 4.34 45.73.72 15.2 1.46 30.35 3.35 45.46 1.44 11.95 1.64 23.85 1.69 35.87 0 .91.01 1.82.02 2.75.09 13.64.14 28.31-9.4 39.19a85 85 0 0 1-7 4c-.63.33-1.26.66-1.9 1-1.96 1.02-3.94 2.01-5.91 3l-1.97 1c-8.69 4.36-17.36 7.53-26.84 9.69-.89.21-1.78.42-2.7.64-20.03 4.67-40.11 4.19-58.68-5.33-.61-.11-.61-.11-3.69-.69-6.03-1.36-10.56-5.55-15.31-9.31-.52-.38-.52-.38-3.12-2.31-3.53-3.3-6.46-6.91-9.46-10.69-1.58-1.96-3.2-3.87-4.87-5.75C439.81 402.06 430.1 372.1 429 344c1.15.33 2.31.66 3.5 1 25.33 5.48 50.69-7.33 72.5-19 .34-.18.34-.18 2.06-1.1 8.81-4.72 16.97-9.84 24.94-15.9 1.22-.89 2.44-1.78 3.66-2.66 5.67-4.12 11.3-8.25 16.72-12.72 3.69-3.02 7.42-5.33 11.71-7.42 1.91-1.2 1.91-1.2 3.29-3.2 2.19-2.71 4.27-3.22 7.56-4.31 5.96-2.13 11.01-4.88 16.31-8.33 3.17-1.57 5.26-1.46 8.75-1.36"/><path fill="#ae9ee0" d="M259 209c5.66.3 9.36 2.09 13.88 5.31.64.44 1.28.88 1.94 1.34 3.49 2.4 6.92 4.89 10.34 7.4 26.57 19.46 59.63 29.47 91.99 33.95 1.27.17 2.54.35 3.85.53 2.56.35 5.12.69 7.68 1.03.59.07.59.07 3.56.48 1.06.13 2.12.27 3.22.41C398 260 398 260 400 262c.14 2.58.19 5.05.12 7.62 0 .71-.01 1.42-.02 2.15-.03 1.74-.06 3.49-.1 5.23h-3v2h2c1.16 3.47 1.07 6.36 1 10-.33.16-.33.16-2 1-1.66 31.97 7.58 67.02 19.52 96.46 3.97 9.97 7.9 21.74 6.48 32.54-3.08 5.95-6.77 8.84-13 11-18.82 2.65-36.2-7.02-52-16-.57-.32-.57-.32-3.47-1.92-9.94-5.6-18.81-12.18-27.19-19.92-2.13-1.97-4.31-3.85-6.53-5.72-4.01-3.51-7.4-7.36-10.81-11.44-.69-.78-1.38-1.55-2.09-2.36-10.62-12.32-18-27-24.91-41.64-.34-.72-.69-1.45-1.04-2.19-9.19-19.54-14.28-39.79-18.96-60.81q-.225-.99-.45-2.01c-4.1-18.44-7.54-37-5.55-55.99z"/><path fill="#d98c25" d="M531 22q2.235 2.19 4.44 4.44c13.83 13.92 32.52 14.51 51.25 17.18 3.12.45 6.24.9 9.36 1.36 1.93.28 3.85.56 5.78.83 10.69 1.56 10.69 1.56 14.01 5.21.5.78 1.01 1.56 1.54 2.36.52.77 1.04 1.54 1.58 2.33C620 58 620 58 619.83 60.15 619 62 619 62 616.38 64.19 614 67 614 67 613.79 68.93c.5 5.23 2 10.21 3.59 15.2 1.22 5.65 1.51 9.86-1.39 14.9-.87 1.31-1.77 2.62-2.68 3.91-.22.33-.22.33-1.32 2.03-3.26 4.79-3.26 4.79-6.82 5.97L603 111v3h6c7.74 16.93 8.2 33.69 8 52-6.06 2.02-12.73 1.74-19.07 1.58l-2.59-.06c-3-.67-4.11-1.86-6.03-4.21L587 158c-1.54-2.21-3.09-4.33-4.75-6.44-.43-.55-.86-1.11-1.31-1.68-23.47-29.8-61.41-43.11-97.84-47.89-17.6-2.04-35.45-2.57-53.1-.99-1-3.27-1.05-6.07-.88-9.47.03-.54.03-.54.15-3.23.05-1.11.11-2.22.17-3.36.3-6.25.59-12.48.52-18.74-.06-10.82 1.53-23.12 8.99-31.36 9.2-8.89 20.91-15.81 33.05-19.84.56-.2.56-.2 3.38-1.19C493.71 9.7 515.64 10.16 531 22"/><path fill="#0b101f" d="M167.688 244.625c7.62 7.32 12.21 16.67 16.62 26.12.53 1.1 1.05 2.2 1.59 3.33 6.72 14.18 6.72 14.18 6.1 20.93-2.81 2.81-5.84 2.69-9.62 3.12-.71.09-1.42.17-2.14.26-1.75.21-3.49.42-5.24.62 1.12 6.98 7.95 12.21 13.13 16.56 3.99 3.39 6.92 7.12 9.87 11.44.47.66.94 1.33 1.42 2.01 4.64 6.73 8.58 13.87 12.58 20.99.37.58.74 1.17 1.12 1.78 3.37 5.5 3.87 9.91 2.88 16.22-2.37 3.59-5.04 4.56-9 6-1.15.61-2.31 1.23-3.5 1.87-5.55 2.83-11.52 4.44-17.5 6.13q-.9.27-1.83.54c-2.65.55-5.07.55-7.78.52l-3.42-.03-3.72-.03c-19.95-.09-39.99.05-59.87 1.87-.78.07-1.56.13-2.37.2-4.58.48-8.02 1.64-12.01 3.93-.66.33-1.32.65-2 1l-.36-1.67c-2.17-7.95-5.99-14.42-11.64-20.33 8.26-5.51 17.04-5.2 26.63-5.19h3.66c7.01.04 13.88.35 20.84 1.19 17.67 2.07 40.45 4.65 55.87-6-.3-15.8-16.79-31.17-27.6-41.65-2.69-2.65-5.07-5.39-7.4-8.35-.65.13-1.3.26-1.97.4-4.67.94-9.33 1.85-14.03 2.6-3.33-3.84-5.58-7.88-7.75-12.44-4.84-9.93-10.15-19.59-16.24-28.82-3.34-5.78-3.79-11.18-3.01-17.74 3.27-6.66 8.6-10.31 15.29-13.11 13.97-4.59 30.5-3.63 42.4 5.73"/><path fill="#167cd2" d="M237 256c.66.17.66.17 4 1l1 4 2-1c1.69 4.88 3.36 9.77 5.02 14.67.56 1.66 1.13 3.31 1.7 4.97 6.64 19.22 8.77 36.45 5.42 56.58-1.12 6.97-1.54 13.84-1.79 20.89-.18 4.45-.53 8.69-1.41 13.08-2.09 10.56-.04 16.73 4.53 26.33C259 400 259 400 259 403c-.91.23-1.82.47-2.76.71-8.64 2.37-16.48 5.65-24.43 9.79-.89.46-1.79.93-2.71 1.4-4.81 2.57-8.26 5.19-12.1 9.1-2.91 1.41-2.91 1.41-6.06 2.5-4.52 1.62-8.92 3.33-13.32 5.25-8.49 3.48-8.49 3.48-12.62 3.25-5.97-2.59-10.26-7.19-14.69-11.81-14.25-14.81-34.99-24.49-55.59-25.32-9.74.02-9.74.02-13.91.75-.46.07-.46.07-2.81.38-2.95-2.95-3.09-5.96-4-10 10.19-8.46 28.85-6.16 41.45-6.5 2.29-.06 4.58-.13 6.87-.2 8.24-.23 16.46-.3 24.7-.16 13.89.21 24.04-2.02 36.85-7.46 2.95-.94 5.21-.6 8.13.32v-2h2v2c.74.29 1.49.58 2.25.88 2.29.93 4.53 2.01 6.75 3.12l1-10c1.11-.19 2.23-.37 3.38-.56 1.19-.48 2.39-.95 3.62-1.44 1.31-3.56 1.31-3.56 2-7l2-1c.01-.66.03-1.31.04-1.99.08-2.96.18-5.92.27-8.89.01-.51.01-.51.07-3.12.04-.99.07-1.98.11-2.99.02-.91.05-1.82.08-2.76.14-.74.28-1.49.43-2.25l3-2v-2c-1.11-.96-2.26-1.87-3.44-2.75-2.83-2.31-3.48-2.96-4.5-6.63L231 321l-7-2v-6l7-2v-22l-7-2v-6l7-2c.04-.99.07-1.97.11-2.99.04-.64.04-.64.2-3.89.06-1.27.12-2.55.18-3.86.17-1.08.34-2.15.51-3.26l3-2c1.19-3.62 1.19-3.62 2-7M24 215l15 1 2 7 3 2c.46 3.61.5 7.17.59 10.81.07.53.07.53.41 3.19l3 2c.69 3.12.69 3.12 1 6l7 2c.01.66.03 1.31.04 1.99.08 2.96.18 5.92.27 8.89.01.51.01.51.07 3.12.04.99.07 1.98.11 2.99.02.91.05 1.82.08 2.76L57 271l3 2c.51 3.26.51 3.26.69 7.12.03.65.03.65.2 3.89.02.49.02.49.11 2.99.71.06 1.42.12 2.15.18.46.05.46.05 2.79.26.91.08 1.83.16 2.77.24C71 288 71 288 72 289c.25 3.59.38 7.18.52 10.78.16 1.06.32 2.12.48 3.22.5.33.5.33 3 2 .69 3.12.69 3.12 1 6 .71.06 1.42.12 2.15.18.46.05.46.05 2.79.26l2.77.24C87 312 87 312 88 313c.04 1.67.04 3.33 0 5l-5 2 1 1c.04 2.33.04 4.67 0 7l4-1 2-7 2 1c.07.48.07.48.44 2.94.09.5.09.5.56 3.06.5.33.5.33 3 2 .27 2.17.27 2.17.25 4.75.33 4.72.33 4.72 2.19 7.03 1.21.99 2.46 1.93 3.73 2.84 1.86 1.4 2.98 2.76 4.33 4.63 3.14 3.45 5.02 3.87 9.5 4.75v6l4 1v1l-14 1v1c-1.17.12-2.34.24-3.54.37l-4.65.51c-.77.07-1.54.15-2.33.23-3.35.38-6.14.75-9.28 2.02-3.52 1.39-5.49.17-8.86-1.25-.98-.44-1.96-.87-2.96-1.32-6.59-2.76-12.75-4.08-19.8-5.01C35.5 356.01 35.5 356.01 28 348c-1.17-2.34-1.08-3.63-1.04-6.23.01-20.68-8.19-33.81-21.85-48.85C4 291 4 291 4.05 288.58c1.18-3.22 2.84-5.24 5.07-7.83.81-.96 1.62-1.93 2.45-2.92 1.5-1.74 3.01-3.48 4.55-5.19 4.57-5.34 6.34-9.55 5.88-16.64-.43-2.31-.98-4.56-1.58-6.83-.88-4.54.13-8.82 1.58-13.17.03-3.59-.03-7.16-.13-10.75l-.03-2.25c-.02-.67-.03-1.34-.05-2.03C22 219 22 219 24 215"/><path fill="#b760e5" d="M622 450h2c2.33 4.65 1.75 11.19 2 16.35.08 1.59.19 3.19.31 4.78.99 13.15.99 13.15-2.01 17.12-2.36 1.61-4.64 2.68-7.3 3.75q-2.25 1.215-4.47 2.46c-1.53.79-3.06 1.57-4.59 2.35-5.96 3.09-11.87 6.23-17.69 9.57-6.41 3.66-12.93 7.06-19.5 10.43-13.33 6.88-26.47 14.23-38.61 23.08-2.59 1.34-4.26 1.4-7.14 1.11-2.07-1.1-2.07-1.1-4.12-2.62-5.65-3.98-11.63-7.14-17.74-10.36-1.32-.7-2.64-1.39-3.97-2.09-1.28-.69-2.58-1.36-3.87-2.04-3.94-2.08-7.61-4.41-11.3-6.89-1.33-.68-2.66-1.35-4-2-.1-4.23-.17-8.46-.22-12.7-.02-1.43-.05-2.87-.08-4.3-.21-8.73.13-16.09 4.3-24 .37-.75.75-1.49 1.13-2.27.29-.57.57-1.14.87-1.73l2.01.61c3.08.93 6.16 1.85 9.24 2.77 1.04.31 2.09.63 3.16.96 23.56 6.98 43.83 4.48 67.59-.34.94-.19 1.88-.37 2.85-.56 7.78-1.56 15.38-3.15 22.66-6.38 3.13-1.33 6.33-2.36 9.55-3.44 7.9-2.8 15.04-5.82 18.94-13.62"/><path fill="#091020" d="M103 1c7.16.37 13.08 2.29 19.77 4.84 4.9 1.76 9 2.21 14.21 2.25 10 .16 18.76 2.27 28.28 5.25 7.14 2.23 14.12 3.87 21.5 5.05C190 19 190 19 192.93 20c2.98.97 5.88 1.49 8.98 1.94 13.72 2 24.85 6.8 34.11 17.36 2.19 2.98 3.63 5.96 5.17 9.32 4.73 9.7 9.41 17.61 20 21.44 2.26.68 4.53 1.32 6.81 1.94.45.16.45.16 2.73.98 4.72 1.47 9.54 2.29 14.39 3.21 42.4 8.32 42.4 8.32 54.88 16.81 1.65 1.09 3.29 2.18 4.94 3.27 2.75 1.83 5.5 3.67 8.24 5.52 7.09 4.78 14.27 9.19 21.82 13.21.5.28.5.28 3.02 1.67 3.09 1.38 5.37 1.78 8.73 1.95 5.08.3 5.08.3 7.25 1.38v2c1.98-.16 1.98-.16 12-1l1 5c.79 1.77 1.63 3.52 2.5 5.25 2.38 5.06 3.23 9.19 3.5 14.75l6-5c-1.01 3.18-2.07 6.13-3.56 9.12-4.26 9.88-2.6 22.65-2.56 33.26v2.39c.06 32.04.06 32.04 1.62 41.11.49 3.08.73 6.06.89 9.17.78 13.48 1.92 26.7 4.29 40 .83 4.72 1.56 9.14 1.32 13.95h2c-.03-1.21-.07-2.41-.11-3.65.01-6.38.91-12.61 1.8-18.91.18-1.28.36-2.56.54-3.88 1.59-10.95 3.65-21.75 6.09-32.55.71-3.14 1.4-6.29 2.09-9.44 8.36-37.72 8.36-37.72 13.59-47.57l2 1c-.24.83-.47 1.66-.72 2.52-5.83 20.69-11.03 41.41-15.28 62.48-.1.5-.1.5-.62 3.03-3.78 18.8-5.47 37.91-7.38 56.97h-2v-7l-2-1-1 5h-1c-.11-.84-.22-1.68-.34-2.55l-1.26-9.55-.54-4.1c-.26-1.99-.53-3.98-.79-5.97-.09-.66-.18-1.32-.27-2.01-.55-4.15-1.19-8.29-1.87-12.43-1.06-6.81-1.56-13.63-1.99-20.51l-.48-7.14c-.06-1.03-.13-2.06-.19-3.13-.15-2.01-.31-4.02-.51-6.03-.71-7.16-.97-14.27-1.08-21.47l-.06-3.58-.18-11.22c-.05-2.55-.09-5.1-.13-7.65-.11-6.22-.21-12.44-.31-18.66-.4-.06-.4-.06-2.4-.34-5.72-.88-10.83-1.77-16.06-4.36-.54-.27-.54-.27-3.28-1.61-5.33-2.77-10.62-5.6-15.88-8.5-8.59-4.69-17.22-9.12-26.11-13.21-4.18-1.94-8.15-4.01-12.08-6.42-18.65-11.22-40.12-19.18-61-25.12-.9-.27-1.8-.53-2.73-.8-7.08-1.92-13.21-2.35-19.84 1.42-3.46 1.94-3.46 1.94-5.62 1.94.07.43.07.43.44 2.59 1.47 10.26 1.78 20.44 1.81 30.79 0 .68.01 1.37.02 2.08.07 11.76-.26 22.43-6.39 32.73-.4.68-.8 1.37-1.2 2.08-2.8 4.7-5.98 8.32-10.01 12.02-3.45 3.53-4.5 7.22-4.83 12.06.47 12.94 6.86 25.24 12.48 36.63 5.38 11.17 9.32 22.96 13.47 34.63 1.12 3.14 2.25 6.26 3.4 9.39 3.36 9.23 6.5 18.11 6.81 28 .03.64.05 1.27.08 1.93.38 10.61-.41 20.72-2.01 31.21-.95 6.34-1.16 12.22-.97 18.62-.15 4.77-1.29 9.2-2.54 13.79-1.69 10.4 2.36 20.54 7.76 29.3 4.51 5.76 11.56 8.28 18.14 11.04 4.18 1.83 8.15 4.05 12.16 6.23 6.64 3.53 13.36 6.82 20.18 9.98 6.07 2.82 12.05 5.78 18.03 8.8 3.82 1.92 7.64 3.84 11.47 5.76l2.06 1.03c4.54 2.27 9.08 4.52 13.63 6.78 3.23 1.6 6.46 3.21 9.68 4.81 1.64.82 3.28 1.63 4.92 2.44 9.3 4.6 18.46 9.35 27.43 14.57 3.7 2.12 7.46 4.05 11.29 5.9 5.05 2.47 9.99 5.05 14.86 7.86 1.83.95 1.83.95 5.27 1.95 2.56 1 2.56 1 3.94 3.62.2.79.41 1.57.62 2.38-3.71-.58-6.4-1.59-9.62-3.51-.88-.51-1.75-1.02-2.65-1.55-.9-.54-1.8-1.07-2.73-1.63-6.75-4.01-13.54-7.54-20.69-10.77-5.51-2.56-10.8-5.5-16.12-8.42-9.64-5.24-19.34-10.3-29.19-15.12l-6-3c-.95-.48-1.91-.95-2.89-1.44-2.29-1.15-4.59-2.3-6.88-3.46-.67-.34-1.34-.68-2.03-1.02-1.27-.64-2.54-1.28-3.8-1.93-4.44-2.22-8.92-4.33-13.42-6.41-8.03-3.73-15.95-7.65-23.86-11.62-1.4-.7-2.81-1.4-4.22-2.11-8.09-4.05-16.14-8.14-24.04-12.53-5.17-2.83-8.92-4.07-14.67-2.54-10.51 3.09-26.07 9.42-33.55 17.54-1.86 1.72-3.36 2.37-5.74 3.2-.79.29-1.59.58-2.41.87-.84.29-1.69.59-2.55.89-1.73.61-3.45 1.23-5.17 1.84-.83.3-1.66.59-2.51.89-3.44 1.26-6.81 2.7-10.15 4.2-3.5 1.04-6.48 1.5-9.81-.28-1.79-1.25-3.48-2.58-5.18-3.97-.59-.46-1.18-.92-1.79-1.39-1.49-1.18-2.92-2.45-4.33-3.73v-2c-.6-.27-1.2-.54-1.81-.81-2.19-1.19-3.6-2.29-5.19-4.19v-2c-.27-.11-.27-.11-1.62-.69-2.38-1.31-2.38-1.31-5.09-3.7-5.25-4.42-11.9-6.35-18.29-8.61-.58-.2-.58-.2-3.49-1.23-13.31-4.25-26.72-4.33-40.51-2.77-.2-.92-.39-1.84-.59-2.79-2.79-11.8-7.37-24.63-17.41-32.21-7.8-3.47-16.3-4.25-24.67-5.37-9.29-1.36-18.11-3.09-24.33-10.63-.54-.56-1.07-1.13-1.62-1.71-1.95-3.25-1.6-5.72-1.44-9.48.32-14.5-4.59-24.14-13.37-35.56C9 302 9 302 9 300H7c-3.29-3.28-5.94-6.4-6.12-11.12 2.6-6.66 7.51-11.79 12.23-17.02 3.84-4.41 5.69-8.23 6.14-14.17-.2-2.97-.61-5.18-1.37-8-1.08-4.44-.45-7.64.59-12.03 1.83-9.22.85-19.34-3.56-27.73-3.59-7.59-.02-20.22 2.15-27.93 4.05-15.62.38-29.64-6.06-44-5.16-12.19-5.16-12.19-3-18 4.27-5.44 9.33-7.12 16-8l-1 3c-.83.16-.83.16-5 1l-1 3c-.83.45-1.65.91-2.5 1.38C12 122 12 122 11.24 124.25c-.28 3.25.29 5.25 1.38 8.31.19.53.19.53 1.13 3.18 1.59 4.14 3.3 8.22 5.1 12.28 2.46 6.37 3.54 12.41 3.53 19.23v2.32c-.13 6.97-1.35 13.58-2.96 20.35-1.87 8.05-2.48 15.32.78 23.03 3.24 8.29 4.2 18.18 1.74 26.74-1.14 4.03-.62 7.27.06 11.31 1.76 12.11 1.76 12.11-2.38 17.94-1.84 2.38-3.72 4.72-5.62 7.06-1.68 2.09-3.35 4.19-5 6.31-.39.5-.39.5-2.38 2.99C5 288 5 288 5.23 289.95c.85 2.27 1.88 3.73 3.43 5.6.54.67 1.09 1.34 1.65 2.03.58.72 1.16 1.43 1.75 2.17 9.81 12.63 16 22.67 15.55 39.07-.06 4.34-.07 7.23 2.74 10.69 7.01 6.59 15.72 7.28 24.9 8.37 8.94 1.14 18.23 2.88 25.75 8.12.69 1.66 1.36 3.32 2 5 .64.3 1.27.6 1.93.91 2.51 1.32 3.03 2.35 4.19 4.9l1 2.15c1.01 2.33 1.97 4.67 2.88 7.04l1 2-1 2h2c.5 1.32.5 1.32 3 8 .89-.17 1.77-.33 2.69-.5 20.44-2.79 42.05 3.45 58.83 15.27 4.75 3.66 8.99 7.69 13.17 11.98 9.07 9.19 9.07 9.19 15.5 9.31 4.37-1.22 8.4-2.86 12.55-4.67 4.31-1.84 8.72-3.36 13.15-4.89 2.71-1.31 4.24-2.38 6.42-4.34 3.93-3.52 8.2-5.89 12.88-8.28.83-.44 1.66-.87 2.52-1.32 7.37-3.74 14.88-7.56 23.29-7.56-.24-.53-.48-1.06-.73-1.6-1.11-2.44-2.19-4.89-3.27-7.34-.38-.83-.76-1.66-1.16-2.52-3.19-7.33-3.77-13.55-1.9-21.35 1.03-5.19 1.31-10.24 1.5-15.5.27-7.47 1.03-14.74 2.12-22.13 2.89-19.98-.28-37.03-6.81-55.87-.5-1.46-1-2.92-1.49-4.38-1.2-3.5-2.41-6.99-3.63-10.49-.56-1.61-1.11-3.22-1.66-4.84-3.51-10.22-7.73-19.89-12.47-29.61-5.7-11.75-10.61-24.03-7.62-37.25 1.54-3.8 3.96-6.07 6.93-8.87 10.4-9.93 14.18-23.23 14.55-37.37 0-2.44-.02-4.88-.05-7.32.01-1.2.01-2.41.01-3.66-.05-8.47-.92-16.55-2.32-24.9-5.13.94-9.5 2.85-14.26 4.94C224 114 224 114 221 114v-2c.53-.24 1.07-.47 1.61-.72 2.51-1.11 5.01-2.22 7.51-3.34.92-.41 1.83-.81 2.76-1.23 4.14-1.85 8.23-3.72 12.21-5.87.61-.32 1.21-.64 1.84-.98 1.58-.86 3.16-1.75 4.73-2.65 8.28-3.01 16.25-.83 24.4 1.67l3.15.94c19.38 6.02 37.33 14.21 55.22 23.73 6.02 3.2 12.14 6.14 18.32 9.01 8.01 3.74 15.67 7.88 23.31 12.32 21.28 12.29 21.28 12.29 32.94 11.12 2.34-10.05-.37-18.99-5-28-.36-.76-.72-1.53-1.1-2.32-3.17-2.8-6.88-2.18-10.96-2.18-11.21-.31-18.2-2.95-27.26-9.59-3.95-2.81-8.1-5.28-12.25-7.8q-3.54-2.16-7.02-4.44c-.6-.39-1.2-.79-1.82-1.19l-5.01-3.3c-7.83-4.9-15.62-8.07-24.58-10.24-1-.25-2-.51-3.04-.77-10.46-2.6-20.97-4.97-31.55-7.09-26-5.31-26-5.31-32.41-13.27-1.04-1.58-2.04-3.18-3-4.81-.59-.89-1.18-1.79-1.79-2.71-2.78-4.22-5.33-8.48-7.65-12.98C229.32 35.87 222.19 31.18 212 28c-4.64-1.18-9.3-2.12-14-3-7.43-1.42-14.78-3.09-22.12-4.88-.56-.13-.56-.13-3.34-.79-4.72-1.14-9.44-2.28-14.13-3.58-7.51-2.06-14.5-3.06-22.25-3.32-6.8-.3-12.78-2.1-19.16-4.43-1.71-.59-3.41-1.17-5.12-1.75-.69-.24-1.37-.48-2.08-.73C108 5 108 5 105 5c-.06.92-.13 1.84-.19 2.78-.71 7.06-1.37 12.53-6.56 17.62-3.5 2.49-7.28 3.91-11.28 5.41C82.5 32.6 78.88 35.19 75 38l-3.35 2.36c-5.32 3.75-10.6 7.55-15.71 11.58-5.91 4.63-5.91 4.63-8.94 6.06l-3-1c1.22-3.66 2.13-3.92 5.44-5.69.8-.43 1.6-.87 2.43-1.32C54 49 54 49 56 49l1-3c3.47-2.92 7.28-5.4 11-8 1.04-.77 2.09-1.55 3.16-2.35C78.43 30.36 85.46 26.79 94 24c3-1 3-1 4.06-3.06C100.15 14.41 101.54 7.69 103 1"/><path fill="#177cd2" d="M623 265c1.14 13.48 1.29 26.97 1.5 40.5.2 12.63.4 25.25 1.02 37.86.58 12.21.67 24.4.67 36.62 0 3.69.02 7.38.03 11.06.04 12.43-.22 24.82-.98 37.23-.06 1.15-.12 2.29-.19 3.47-.67 9.55-3.1 17.47-10.05 24.26-14.51 8.61-31.7 12.5-48 16-1.76.39-3.51.77-5.27 1.16-1.68.36-3.36.73-5.04 1.09-.76.16-1.52.33-2.3.49-7.93 1.66-15.6 2.44-23.7 2.45l-2.36.03c-10.36.03-20.14-2.49-30.02-5.41-.98-.26-1.96-.53-2.97-.8-6.92-2.05-11.31-4.89-16.34-10.01-.99-.94-1.98-1.87-2.98-2.81-.87-.87-1.74-1.73-2.64-2.63-.88-.86-1.76-1.73-2.67-2.62-5.73-6-10.03-12.83-14.02-20.06-.44-.78-.89-1.55-1.34-2.34-2.33-4.19-3.94-7.68-4.35-12.54 3.29 3.19 6.31 6.49 9.25 10.01 5.17 6.2 10.38 11.98 16.75 16.99.66.53 1.31 1.06 1.99 1.6 17.51 12.89 42.82 17.47 63.91 14.58 17.51-2.66 34.03-7.92 49.43-16.75 2.67-1.43 2.67-1.43 6.26-2.68 4.16-2.13 5.48-4.49 7.22-8.63.29-.59.57-1.18.87-1.79 4.76-10.65 4.66-22.69 4.63-34.14.02-1.2.03-2.4.05-3.64.01-10.94-1.05-21.76-2.12-32.64-.98-10-1.84-20-2.59-30.02-.05-.7-.11-1.4-.16-2.13l-.96-12.79-.81-10.93c-.49-6.51-.98-13.03-1.45-19.54-.19-2.42-.39-4.84-.59-7.26-.06-.59-.06-.59-.31-3.59-.09-1.06-.19-2.13-.29-3.22-.02-.8-.05-1.6-.08-2.43 1.92-1.92 5.3-1.66 7.88-2 4.39-.58 8.75-2 13.12-2"/><path fill="#d98c25" d="M603 176c4.52 3.11 6.85 6.18 9.57 10.87 2.18 3.24 4.93 5.8 7.76 8.47C622 197 622 197 623 199c-.01 2.65-.05 5.29-.12 7.94-.1 6.28.51 11.44 2.45 17.45 1.78 6.91.83 14.32-.12 21.31-.25 2.73-.13 5.38-.02 8.11.04 4.84.04 4.84-1.88 7.75-5.24 3.26-9.72 3.76-15.75 3.94-9.86.29-16.65 3.45-25.11 8.31-4.92 2.71-8.83 3.83-14.45 4.19.02-.91.05-1.82.07-2.76.28-20.03-.76-41.59-10.33-59.66C556 212 556 212 557 209c1.62-1.22 1.62-1.22 3.72-2.42q1.14-.66 2.31-1.35c.82-.47 1.63-.93 2.47-1.42 10.4-6.19 17.87-12.32 24.77-22.39 3.57-4.99 6.44-7.47 12.73-5.42"/><path fill="#cd72fb" d="M259 209c5.66.3 9.36 2.09 13.88 5.31.64.44 1.28.88 1.94 1.34 3.49 2.4 6.92 4.89 10.34 7.4 26.57 19.46 59.63 29.47 91.99 33.95 1.27.17 2.54.35 3.85.53 2.56.35 5.12.69 7.68 1.03.59.07.59.07 3.56.48 1.06.13 2.12.27 3.22.41C398 260 398 260 400 262c.14 2.58.19 5.05.12 7.62 0 .71-.01 1.42-.02 2.15-.03 1.74-.06 3.49-.1 5.23h-3c.06 1.28.12 2.56.19 3.88.1 2.17.1 2.17-.19 4.12-7.52 5.01-22.34 2.63-30.88.94-2.38-.61-4.75-1.26-7.12-1.94-.41-.12-.41-.12-2.51-.7-18.55-5.22-36.35-11.98-53.67-20.42-1.86-.9-3.74-1.75-5.63-2.6-8.02-3.7-15.18-8.13-22.31-13.34-.8-.58-1.59-1.16-2.41-1.75-4.84-3.65-8.69-7.45-12.47-12.19l-2 3c-.03-4.31-.05-8.62-.06-12.94l-.03-3.73c0-1.17 0-2.34-.01-3.54 0-1.09-.01-2.17-.01-3.29.11-2.5.11-2.5 1.11-3.5"/><path fill="#ce72fc" d="m623 490 3 1c.38 33.56.38 33.56-.88 45.88-.07.78-.15 1.57-.23 2.38-.82 6.99-.82 6.99-2.89 9.74-2.96.7-2.96.7-6.73.98-.67.05-1.34.11-2.03.17-2.14.17-4.28.33-6.43.47-2.12.17-4.25.33-6.37.5-1.95.16-3.89.3-5.83.44C591 552 591 552 584 554v17c-.33.16-.33.16-2 1-2.18-.89-2.18-.89-4.88-2.32-.98-.51-1.97-1.03-2.98-1.56-.52-.28-.52-.28-3.14-1.68-.5-.27-.5-.27-3.04-1.6-5.66-2.99-11.18-6.14-16.65-9.47-3.99-2.36-8.13-4.43-12.29-6.47-2.79-1.43-4.74-2.46-6.46-5.14-.18-.58-.37-1.16-.56-1.76 9.85-7.05 20.16-12.92 30.86-18.59 8.61-4.57 17.12-9.3 25.58-14.15 4.46-2.55 8.94-4.99 13.55-7.25 3.88-1.95 7.66-4.08 11.45-6.2l2.46-1.36c.78-.43 1.55-.86 2.35-1.31.69-.38 1.39-.77 2.11-1.17C622 491 622 491 623 490"/><path fill="#ca72fa" d="M158 271c2.42 2.98 3.52 6.19 4.69 9.81 5.28 14.81 12.13 26.14 24.25 36.38 5.87 5.16 9.79 11.31 13.88 17.91a451 451 0 0 0 3.45 5.44c11.1 17.56 11.1 17.56 9.73 25.46-3.92 5.88-10.61 7.63-17 10-.95.39-1.91.77-2.89 1.17-14.04 5.31-29.83 3.89-44.61 3.73-43.78-.41-43.78-.41-55.5 5.1-3.05-3.49-5.11-6.98-7.07-11.13C86 373 86 373 84 370c7.2-5.11 15.65-5.34 24.19-5.25.46 0 .46 0 2.79.01 6.28.09 12.3.69 18.49 1.73 7.13 1.03 14.34 1.24 21.53 1.51 1.01.04 2.02.09 3.06.13 11.17.25 25.62-.13 34.67-7.54 1.8-2.25 1.92-4.35 1.8-7.17-2.75-12.55-14.6-24.76-23.72-33.48-7.03-6.74-12.62-14.39-18.33-22.24-2.79-3.83-5.74-7.4-8.86-10.95-3.61-4.29-4.73-7.15-4.62-12.75 7.35-3.04 15.08-4.55 23-3"/><path fill="#10101e" d="M259 232c.72.74 1.45 1.48 2.2 2.24 13.6 13.39 29.11 22.36 46.55 29.78 2.97 1.29 5.89 2.7 8.81 4.1 12.34 5.69 25.17 9.93 38.19 13.76 1.01.29 2.02.59 3.07.9 8.78 2.52 16.88 3.38 25.99 3.34.96.01 1.91.01 2.89.02.46 0 .46 0 2.76-.01h2.5C394 286 394 286 396 285c.62-3.06.62-3.06 1-6h2c1.16 3.47 1.07 6.36 1 10-.33.17-.33.17-2 1-1.66 31.97 7.58 67.02 19.52 96.46 3.97 9.97 7.9 21.74 6.48 32.54-3.08 5.95-6.77 8.84-13 11-18.82 2.65-36.2-7.02-52-16-.57-.32-.57-.32-3.47-1.92-9.94-5.6-18.81-12.18-27.19-19.92-2.13-1.97-4.31-3.85-6.53-5.72-4.01-3.51-7.4-7.36-10.81-11.44-.69-.78-1.38-1.55-2.09-2.36-10.62-12.32-18-27-24.91-41.64-.34-.72-.69-1.45-1.04-2.19-11.34-24.12-17.16-49.98-21.9-76.12-.21-1.16-.42-2.31-.64-3.5-1.01-5.82-1.66-11.28-1.42-17.19m4 8c-.97 3.11-.98 5.34-.43 8.54.15.9.3 1.8.46 2.72.17.97.35 1.93.53 2.93.18 1.01.37 2.02.55 3.07 2.16 11.69 4.88 23.24 7.89 34.74.23.9.47 1.8.71 2.72 4.76 17.85 12.47 33.94 20.85 50.34.52 1.02 1.04 2.05 1.57 3.1 5.06 9.73 11.01 18.36 18.94 25.95 1.9 1.86 3.64 3.8 5.37 5.83 19.13 21.98 51.83 45.71 81.95 48.26 7.03.14 12.69-.58 18.05-5.39 3.14-5.65 2.86-11.1 1.28-17.15q-.33-1.125-.66-2.28c-.22-.81-.44-1.62-.67-2.46-2.11-7.44-4.71-14.69-7.45-21.92-4.55-12.03-7.74-24.03-10-36.69l-.78-4.27c-.73-4.01-1.45-8.03-2.16-12.04-.17-.97-.35-1.95-.53-2.95-1.59-8.92-2.89-17.83-3.82-26.84-.55-5.11-.55-5.11-1.65-6.21h-3.38c-3.62 0-3.62 0-6.62-1a100 100 0 0 0-5.19-.06c-.9.01-1.8.02-2.73.02-.69.02-1.37.03-2.08.04-1.21 3.62-.54 4.64 1 8h-2c-.16-.66-.16-.66-1-4-4.14 1.55-5.99 4.25-8.56 7.75-.77 1.03-1.53 2.05-2.32 3.11-5.19 7.68-5.19 7.68-5.01 11.68 4.18 11.61 14.18 20.19 22.89 28.46 3.08-2.05 3.5-2.5 4.69-5.75.25-.65.5-1.31.76-1.98 1.45-5.96.05-9.99-2.7-15.27-3.55-7.15-5.82-14.23-7.75-22h2c.04.48.04.48.25 2.89.71 4.94 2.7 9.26 4.69 13.8.36.84.72 1.68 1.09 2.55 2.67 6.21 2.67 6.21 4.1 8.86 1.36 2.97.68 4.76-.13 7.9-.97 2.6-1.99 5.17-3.06 7.73-.72 1.73-1.35 3.49-1.94 5.27-.71-.71-1.41-1.42-2.14-2.15-1.87-1.88-3.77-3.71-5.69-5.54-6.88-6.59-12.14-13.19-17.17-21.31l-1-1c-1.15-6.43 2.54-10.92 6-16 1.53-2.11 3.09-4.18 4.68-6.24 1.62-2.15 3-4.41 4.32-6.76l-5-1c-4.28 4.67-6.62 10.12-9.25 15.81-.46.98-.92 1.96-1.39 2.97-1.13 2.4-2.25 4.81-3.36 7.22-3 0-3 0-5.05-1.91-.75-.85-1.49-1.71-2.26-2.59-.8-.91-1.59-1.82-2.41-2.76-2.44-2.93-4.72-5.94-6.96-9.01-1.89-2.47-4.1-4.56-6.32-6.73-2.89-2.85-5.68-5.66-8-9 0-3.38 0-3.38 1-6v-3c-1.22-.7-2.45-1.39-3.69-2.06l-2.07-1.16c-2.24-.78-2.24-.78-4.68-.16-2.56.38-2.56.38-5.24-1.27-.43-.38-.43-.38-2.63-2.29-.89-.75-1.77-1.5-2.68-2.27-.66-.59-1.33-1.18-2.01-1.79-.17.5-.17.5-1 3 .44.42.87.85 1.32 1.29 1.91 1.88 3.8 3.79 5.68 5.71l1.84 1.78c2.92 3.03 4.14 4.32 4.22 8.66-.96 3.22-2.05 6.31-3.29 9.43-1.3 3.62-2.03 7.36-2.77 11.13-4.67-2.39-7.52-5.54-10.81-9.5-.53-.62-1.05-1.25-1.6-1.89-4.47-5.35-8.59-10.9-12.59-16.61-.69-.91-1.37-1.82-2.08-2.76-.65-.88-1.31-1.77-1.98-2.68-.59-.78-1.18-1.56-1.79-2.37-1.15-2.19-1.15-2.19-.96-4.26 1.08-2.57 2.47-4.81 3.97-7.15.84-1.78.84-1.78.84-5.78a63 63 0 0 0-5.94-5.25c-.28-.23-.28-.23-1.71-1.39-4.17-3.36-4.17-3.36-5.35-3.36"/><path fill="#2285d7" d="m450.563 102.813 3.47.03c3.32.04 6.64.1 9.97.16.83.01 1.66.01 2.51.02 37.14.48 79.11 12.94 106.26 39.45 17.06 19.37 17.06 19.37 20.23 30.53-1.2 4.1-4.63 7.8-7.13 11.25l-1.42 1.97c-1.15 1.59-2.3 3.18-3.45 4.78-1.88-.19-1.88-.19-4-1-1.1-2.18-1.1-2.18-1.93-5.03l-.97-3.15c-.17-.55-.17-.55-.98-3.32-2.38-8.1-4.99-14.75-10.12-21.5-.52-.7-1.04-1.41-1.57-2.13-14.36-18.84-47.5-29.54-69.43-34.87-.98-.24-1.95-.48-2.95-.73-3.41-.83-6.82-1.65-10.24-2.46-1.09-.26-2.19-.52-3.31-.8-10.5-2.42-20.69-3.19-31.44-3.2-.92-.01-1.84-.02-2.78-.04h-2.68c-.79-.01-1.58-.01-2.4-.02-2.49.28-4.08.92-6.2 2.25-1.28 2.07-1.28 2.07-2.38 4.69-.42.97-.84 1.95-1.27 2.95-.97 2.41-1.93 4.82-2.86 7.24-.26.67-.52 1.33-.79 2.01-.73 1.9-1.45 3.81-2.18 5.72-1.49 3.32-3.03 5.75-5.52 8.39h-2c-.16-.67-.32-1.34-.48-2.02-1.59-6.29-3.7-11.88-6.63-17.67-.89-2.31-.89-2.31.11-5.31 1.88-.91 3.77-1.82 5.67-2.7 4.91-2.75 9.55-6.91 12.91-11.43 6.83-5.29 17.75-4.16 25.98-4.06"/><path fill="#2184d7" d="M623 265c1.14 13.48 1.29 26.97 1.5 40.5.07 4.47.14 8.94.22 13.41l.06 3.35c.13 7.06.41 14.1.78 21.15.65 13.18.32 26.34 0 39.53-.05 2.45-.1 4.89-.16 7.34-.12 5.91-.26 11.81-.4 17.72l-2 1c-5.75-4.75-5.75-4.75-8-7v6h2c-.16.66-.16.66-1 4l-3-1c-1.01-3.02-1.15-5.13-1.21-8.29-.28-12.59-.9-25.03-2.17-37.56l-.81-8.43c-.07-.72-.14-1.44-.21-2.18-.74-7.87-1.36-15.76-1.95-23.65-.05-.7-.11-1.4-.16-2.13l-.96-12.79-.81-10.93c-.49-6.51-.98-13.03-1.45-19.54-.19-2.42-.39-4.84-.59-7.26-.11-1.18-.21-2.37-.31-3.59-.09-1.06-.19-2.13-.29-3.22-.02-.8-.05-1.6-.08-2.43 1.92-1.92 5.3-1.66 7.88-2 4.39-.58 8.75-2 13.12-2"/><path fill="#111221" d="m44 57 2 1c.77 4.5.94 9.08 1.25 13.62.1 1.28.21 2.55.31 3.86.57 8.01.66 13.56-3.31 20.64C43 99 43 99 43.79 101.23c.4.91.8 1.83 1.21 2.77 2.5 8.25 4.59 16.35 5 25 .59-.03 1.18-.07 1.79-.11 8.5-.29 8.5-.29 12.21 3.11 7.29 11.94 13.42 32.84 11 47-2.3 4.51-5.32 5.85-9.9 7.42-5.6 1.54-10.82 1.76-16.6 1.77l-2.55.03c-4.4.02-7.99-.05-11.95-2.22-2.69-2.69-2.57-4.58-3.07-8.33-.17-1.27-.35-2.55-.53-3.86-.08-.67-.17-1.33-.26-2.02-.26-2.02-.54-4.04-.82-6.05-.75-5.63-1.43-11.06-1.32-16.74l2 1c.58 2.71.58 2.71 1.04 6.3.16 1.29.33 2.58.51 3.9l.51 4.11c.34 2.67.69 5.33 1.04 7.99.15 1.19.3 2.38.45 3.6.77 5.34.77 5.34 1.45 7.1 4.51 1.5 8.96 1.18 13.69 1.19l2.93.03c13.23.03 13.23.03 18.88-4.01 3.39-5 .88-12.05-.11-17.65-2.05-10.21-4.54-20.3-9.39-29.56h-9l1 5c.76.1 1.53.21 2.31.31 3.01.77 3.75 1.34 5.69 3.69 5.34 11.07 6.39 22.88 6 35-6.1 2.75-11.24 4.15-18 4.31l-3.06.12c-3.81-.56-5.33-1.61-7.94-4.43-1.07-3.08-1.07-3.08-1.69-6.81-.11-.68-.22-1.35-.34-2.05-1.57-9.97-2.23-20.08-2.97-30.14-.5.16-.5.16-3 1l-1 7h-2q-.075-2.19-.12-4.38c-.02-.4-.02-.4-.08-2.46C27 137 27 137 29 135c2.13-.62 2.13-.62 4-1-.22-1.18-.43-2.36-.66-3.58l-.84-4.67c-.14-.78-.29-1.55-.43-2.36-.14-.75-.27-1.5-.41-2.28-.13-.69-.26-1.38-.38-2.1C30 117 30 117 30 113c-1.05.66-2.1 1.32-3.19 2-3.08 1.78-5.2 2.44-8.81 2l3-2c.75-.76 1.51-1.52 2.28-2.3 1.94-1.92 3.75-3.58 5.88-5.24.54-.44 1.09-.87 1.66-1.32 1.11-.88 2.23-1.74 3.36-2.6C39.11 99.57 42.2 95.09 44 89c.57-5.57.48-11.04.31-16.62-.02-1.5-.05-3-.07-4.49A791 791 0 0 0 44 57"/><path fill="#03060f" d="M23 112v3l-5 1-1 3c-.82.45-1.65.91-2.5 1.38C12 122 12 122 11.24 124.25c-.28 3.25.29 5.25 1.38 8.31.38 1.05.75 2.1 1.13 3.18 1.59 4.14 3.3 8.22 5.1 12.28 2.46 6.37 3.54 12.41 3.53 19.23v2.32c-.13 6.97-1.35 13.58-2.96 20.35-1.87 8.05-2.48 15.32.78 23.03 3.24 8.29 4.2 18.18 1.74 26.74-1.14 4.03-.62 7.27.06 11.31 1.76 12.11 1.76 12.11-2.38 17.94-1.84 2.38-3.72 4.72-5.62 7.06-1.68 2.09-3.35 4.19-5 6.31-.78.99-1.57 1.97-2.38 2.99C5 288 5 288 5.23 289.95c.85 2.27 1.88 3.73 3.43 5.6.54.67 1.09 1.34 1.65 2.03.58.72 1.16 1.43 1.75 2.17 9.81 12.63 16 22.67 15.55 39.07-.06 4.34-.07 7.23 2.74 10.69 7.01 6.59 15.72 7.28 24.9 8.37 8.94 1.14 18.23 2.88 25.75 8.12.69 1.66 1.36 3.32 2 5 .64.3 1.27.6 1.93.91 2.51 1.32 3.03 2.35 4.19 4.9l1 2.15c1.01 2.33 1.97 4.67 2.88 7.04l1 2-1 2h2c.5 1.32.5 1.32 3 8 .89-.17 1.77-.33 2.69-.5 20.44-2.79 42.05 3.45 58.83 15.27 4.75 3.66 8.99 7.69 13.17 11.98 9.07 9.19 9.07 9.19 15.5 9.31 4.37-1.22 8.4-2.86 12.55-4.67 4.31-1.84 8.72-3.36 13.15-4.89 3.32-1.6 5.5-3.5 8.21-5.93 3.34-2.76 7.07-4.75 10.9-6.76.83-.43 1.65-.87 2.5-1.32 7.4-3.74 14.31-5.43 22.5-6.49.89-.23 1.78-.45 2.69-.69 2.84-.38 3.6.09 5.87 1.75 3.16 2.15 6.32 3.95 9.75 5.63 4.53 2.22 9 4.52 13.45 6.89 7.59 4.05 15.23 7.9 23.03 11.52 6.07 2.82 12.06 5.78 18.04 8.8 3.82 1.92 7.64 3.84 11.47 5.76l2.06 1.03c4.54 2.27 9.08 4.52 13.63 6.78 3.23 1.6 6.46 3.21 9.68 4.81 1.64.82 3.28 1.63 4.92 2.44 9.3 4.6 18.46 9.35 27.43 14.57 3.7 2.12 7.46 4.05 11.29 5.9 5.05 2.47 9.99 5.05 14.86 7.86 1.83.95 1.83.95 5.27 1.95 2.56 1 2.56 1 3.94 3.62.2.79.41 1.57.62 2.38-3.71-.58-6.4-1.59-9.62-3.51-.88-.51-1.75-1.02-2.65-1.55-.9-.54-1.8-1.07-2.73-1.63-6.75-4.01-13.54-7.54-20.69-10.77-5.51-2.56-10.8-5.5-16.12-8.42-9.64-5.24-19.34-10.3-29.19-15.12l-6-3c-.95-.48-1.91-.95-2.89-1.44-2.29-1.15-4.59-2.3-6.88-3.46-.67-.34-1.34-.68-2.03-1.02-1.27-.64-2.54-1.28-3.8-1.93-4.44-2.22-8.92-4.33-13.42-6.41-8.03-3.73-15.95-7.65-23.86-11.62-1.4-.7-2.81-1.4-4.22-2.11-8.09-4.05-16.14-8.14-24.04-12.53-5.17-2.83-8.92-4.07-14.67-2.54-10.51 3.09-26.07 9.42-33.55 17.54-1.86 1.72-3.36 2.37-5.74 3.2-.79.29-1.59.58-2.41.87-.84.29-1.69.59-2.55.89-1.73.61-3.45 1.23-5.17 1.84-.83.3-1.66.59-2.51.89-3.44 1.26-6.81 2.7-10.15 4.2-3.5 1.04-6.48 1.5-9.81-.28-1.79-1.25-3.48-2.58-5.18-3.97-.59-.46-1.18-.92-1.79-1.39-1.49-1.18-2.92-2.45-4.33-3.73v-2c-.6-.27-1.2-.54-1.81-.81-2.19-1.19-3.6-2.29-5.19-4.19v-2c-.27-.11-.27-.11-1.62-.69-2.38-1.31-2.38-1.31-5.09-3.7-5.25-4.42-11.9-6.35-18.29-8.61-.58-.2-.58-.2-3.49-1.23-13.31-4.25-26.72-4.33-40.51-2.77-.2-.92-.39-1.84-.59-2.79-2.79-11.8-7.37-24.63-17.41-32.21-7.8-3.47-16.3-4.25-24.67-5.37-9.29-1.36-18.11-3.09-24.33-10.63-.27-.28-.27-.28-1.62-1.71-1.95-3.25-1.6-5.72-1.44-9.48.32-14.5-4.59-24.14-13.37-35.56C9 302 9 302 9 300H7c-3.29-3.28-5.94-6.4-6.12-11.12 2.6-6.66 7.51-11.79 12.23-17.02 3.84-4.41 5.69-8.23 6.14-14.17-.2-2.97-.61-5.18-1.37-8-1.08-4.44-.45-7.64.59-12.03 1.83-9.22.85-19.34-3.56-27.73-3.59-7.59-.02-20.22 2.15-27.93 4.05-15.62.38-29.64-6.06-44-5.16-12.19-5.16-12.19-3-18 4.14-5.13 8.65-6.89 15-8"/><path fill="#091020" d="M421 291c.5.33.5.33 3 2 .35 2.96.35 2.96.34 6.74.01 1.39.02 2.78.04 4.18 0 2.18 0 4.36-.02 6.54-.05 12.33 1.46 22.7 9.64 32.54v1h-5c7.67 44.2 7.67 44.2 18.4 61.98 1.66 3.13 2.33 5.49 2.6 9.02l-1 3h2c.26.69.51 1.38.78 2.1 5.57 14.25 13.13 25.72 23.9 36.52C477 458 477 458 478.8 460.34c6.48 8.07 17.67 9.91 27.2 12.66 1.21.37 2.41.75 3.65 1.13 17.88 4.63 37.67 1.94 55.29-2.62 2.19-.54 4.39-1.02 6.59-1.48 10.1-2.19 19.78-4.99 29.47-8.59 1.02-.38 2.04-.75 3.09-1.14 7.85-3.01 12.42-6.02 16.91-13.3l2-3c1.43 2.35 2.09 3.48 1.62 6.25-.2.58-.41 1.15-.62 1.75v-2h-2c-.24.75-.49 1.51-.74 2.29-3.34 7.21-12.06 10.28-19.14 12.9q-2.91 1.05-5.85 2.04c-1.65.56-3.3 1.14-4.94 1.73-7.81 2.73-15.66 4.55-23.77 6.16-.61.13-.61.13-3.69.77-22.22 4.51-22.22 4.51-32.68 4.42-.76 0-1.52-.01-2.31-.01-14.87-.32-28.81-4.85-42.88-9.3-.28.77-.55 1.54-.84 2.34-.36 1-.72 2-1.1 3.04-.18.49-.18.49-1.09 3.02C482 482 482 482 481 484c-.16 2.32-.25 4.65-.32 6.98l-.06 2.07-.18 6.57a664 664 0 0 0-.13 4.46c-.11 3.64-.21 7.28-.31 10.92-2.88-1.35-5.75-2.71-8.62-4.06-.87-.41-1.73-.81-2.62-1.23-4-1.89-7.98-3.8-11.89-5.87-.62-.32-1.24-.64-1.87-.98-1.65-.87-3.29-1.76-4.92-2.65-3.56-1.4-6.29-1.3-10.08-1.21-4.54-2.62-5.52-5.12-7-10 .4.01.4.01 2.41.03 3.66.04 7.31.07 10.97.09l3.79.06c19.7.1 19.7.1 26.83-6.18 3.24-4.19 5.28-8.64 5-14-2.36-3.7-5.52-6.59-8.68-9.61-13.05-12.61-21.26-27.82-28.32-44.39-.45-1.01-.89-2.02-1.36-3.06-9.54-22.52-15.39-46.71-18.51-70.92-.55-4.05-1.32-7.71-2.67-11.57-2.04-6.48-2.04-13.09-2.17-19.82-.04-2.22-.1-4.44-.17-6.66-.2-7.72-.2-7.72-.12-10.97z"/><path fill="#020b19" d="M623 265h2c2.83 25.14 2.52 50.74 3 76 .01.33.01.33.04 1.97q.27 14.415.51 28.83c.05 2.99.1 5.97.16 8.96.06 3.57.12 7.14.17 10.71.03 1.94.07 3.88.11 5.83.1 7.2-.18 14.28-.76 21.46-.32 4.49-.37 8.96-.36 13.46 0 .9-.01 1.79-.01 2.72 0 2.85.01 5.71.02 8.56v2.98c.01 11.21.11 22.4.76 33.6.45 8.26.47 16.52.48 24.8.01.34.01.34.01 2.07.08 26.37.08 26.37-2.63 37.99-.26 1.14-.52 2.28-.78 3.46C625 551 625 551 624 552c-3.97.59-7.97.95-11.97 1.36-1.99.2-3.99.41-5.98.62-6.72.69-13.29 1.19-20.05 1.02.16 1.26.33 2.52.5 3.81.61 5.4.59 10.76.5 16.19-3 1-3 1-5.02.29-.76-.39-1.51-.77-2.3-1.17-.84-.42-1.68-.85-2.55-1.28-.89-.47-1.78-.93-2.69-1.4-.91-.46-1.81-.92-2.74-1.4-5.39-2.77-10.67-5.66-15.81-8.88-2.55-1.57-5.21-2.85-7.89-4.16-1.35-.74-2.69-1.48-4.03-2.23-3.34-1.87-6.7-3.71-10.06-5.53-9.5-5.14-18.92-10.34-28.19-15.86-4.64-2.76-9.32-5.38-14.08-7.92-2.47-1.36-4.86-2.81-7.25-4.3-5.38-3.24-10.95-5.9-16.64-8.54-8.85-4.15-17.39-8.56-25.75-13.62v-1c7.39.34 12.58 3.03 19 6.56 2.04 1.1 4.09 2.2 6.13 3.29 1 .54 1.99 1.08 3.02 1.63 3.89 2.07 7.83 4.02 11.79 5.96 4.42 2.18 8.7 4.45 12.82 7.15 3.29 2.07 6.67 3.95 10.05 5.85.7.39 1.39.77 2.1 1.17 5.03 2.81 10.08 5.57 15.15 8.3C524 539 524 539 525 540c3.8.34 5.87-.17 9.01-2.27.75-.49 1.5-.98 2.27-1.49l2.41-1.62c8.46-5.51 17.08-10.52 25.95-15.34 3.4-1.85 6.79-3.72 10.18-5.59 3.36-1.85 6.72-3.69 10.08-5.54 1.69-.92 3.38-1.86 5.07-2.79 4.35-2.4 8.74-4.73 13.15-7.02.93-.49 1.87-.98 2.83-1.48 1.87-.97 3.74-1.94 5.62-2.9.87-.46 1.74-.91 2.64-1.37.78-.41 1.55-.81 2.36-1.22.8-.45 1.6-.9 2.43-1.37 1.08-.53 2.16-1.07 3.27-1.62 2.73-2.38 2.73-2.38 3.34-6.31q-.06-2.37-.21-4.74c-.03-.83-.05-1.67-.08-2.53-.1-2.66-.24-5.32-.38-7.99-.07-1.8-.14-3.61-.2-5.41-.52-13.18-.52-13.18-1.74-14.4-.03-1.58.01-3.16.09-4.74.02-.49.02-.49.13-2.99.05-1.04.1-2.07.16-3.15.02-.5.02-.5.13-3.03.22-4.74.53-9.44 1-14.16.59-6.3.63-12.56.62-18.89 0-1.23 0-2.45.01-3.71 0-2.59-.01-5.18-.01-7.77 0-3.86 0-7.72.01-11.58 0-13.67-.23-27.32-.75-40.99-.54-14.26-.74-28.53-.95-42.8-.05-2.76-.09-5.52-.13-8.28-.11-6.64-.21-13.27-.31-19.91m-3 226.44c-1.2.7-2.38 1.41-3.56 2.12-.63.37-1.26.74-1.9 1.12-2.77 1.64-5.52 3.31-8.26 4.98-4.11 2.5-8.21 4.85-12.53 6.96-9.76 4.8-19.24 10.12-28.75 15.38-1.02.56-2.04 1.13-3.09 1.71-3.05 1.69-6.11 3.39-9.16 5.1-.93.52-1.85 1.03-2.81 1.56-6.25 3.52-12.13 7.41-17.94 11.63 1.46 3.75 3.15 4.97 6.67 6.81.97.52 1.93 1.03 2.92 1.56 1.05.54 2.09 1.07 3.16 1.63 2.18 1.15 4.35 2.3 6.53 3.45 1.11.59 2.22 1.17 3.37 1.77 6.2 3.29 12.34 6.69 18.48 10.08.86.48 1.72.95 2.61 1.43.75.42 1.5.83 2.28 1.26C580 571 580 571 583 572c1-1 1-1 1.1-4.82-.01-1.58-.02-3.16-.04-4.74 0-.81-.01-1.62-.01-2.45-.01-1.99-.03-3.99-.05-5.99 4.86-1.53 9.28-2.34 14.39-2.71 1.39-.11 2.77-.22 4.15-.34 2.15-.16 4.3-.33 6.45-.48 2.09-.15 4.19-.32 6.28-.49 1.24-.1 2.49-.19 3.77-.28 2.96-.7 2.96-.7 4.34-2.54.97-3.39 1.4-6.79 1.74-10.28.05-.42.05-.42.26-2.53 1.26-14.39.78-28.93.62-43.35-3-1-3-1-6 .44"/><path fill="#191421" d="M304 263c4.08 1.28 7.85 2.82 11.69 4.69 12.62 5.87 25.71 10.26 39.06 14.19 1.01.29 2.02.59 3.07.9 8.78 2.52 16.88 3.38 25.99 3.34.96.01 1.91.01 2.89.02.91 0 1.82-.01 2.76-.01h2.5C394 286 394 286 396 285c.62-3.06.62-3.06 1-6h2c1.16 3.47 1.07 6.36 1 10l-2 1c-.16.5-.16.5-1 3h-2c-.16.5-.16.5-1 3l-1-5-3.31.06C386 291 386 291 383 290a100 100 0 0 0-5.19-.06c-.9.01-1.8.02-2.73.02-.34.01-.34.01-2.08.04.16 1.15.16 1.15 1 7h-2c-.16-.66-.16-.66-1-4-4.35 3.1-6.95 6.43-9.75 10.88-.4.59-.8 1.19-1.21 1.81-2.39 3.74-4.08 6.83-4.04 11.31 1.29 2.51 2.49 4.42 4.19 6.62.44.6.88 1.2 1.34 1.82 4.89 6.44 10.59 12.04 16.47 17.56 2.52-1.26 2.65-2.1 3.62-4.69.27-.66.53-1.33.79-2.01 1.53-6 .07-10-2.72-15.3-3.6-7.19-5.4-14.04-6.69-22h2c.28.91.56 1.82.85 2.75 2.46 7.72 5.19 14.98 9 22.15 2.1 4.15 2.42 6.63 1.15 11.1-.62 1.73-1.28 3.44-2 5.12-1.25 2.95-2.31 5.75-3 8.88-3.22-1.39-5.03-2.92-7.25-5.62-2.43-2.9-4.93-5.54-7.69-8.13-4.23-4.14-7.32-8.84-10.49-13.81C354 319 354 319 353 318c-1.15-6.43 2.54-10.92 6-16 1.53-2.11 3.09-4.18 4.68-6.24 1.62-2.15 3-4.41 4.32-6.76-2.25.07-2.25.07-5 1a50.5 50.5 0 0 0-4 6.94c-.34.67-.68 1.35-1.03 2.04-1.01 2-1.99 4.01-2.97 6.02l-3 5.94c-.67 1.35-1.34 2.7-2 4.06-3 0-3 0-5.3-2.16-.85-.96-1.7-1.92-2.58-2.9-.44-.5-.89-1.01-1.35-1.52-2.34-2.67-4.56-5.38-6.58-8.3-2.18-3.11-4.48-5.47-7.19-8.12-1.65-1.62-3.27-3.27-4.88-4.94-.8-.81-1.6-1.62-2.42-2.46-1.7-2.6-1.7-2.6-1.46-5.73.25-.95.5-1.89.76-2.87v-3c-4.76-2.34-6.78-3.16-12-2-1.81-1.12-1.81-1.12-3-3-.19-2.69-.19-2.69 0-5"/><path fill="#2385d6" d="M160 250c9.89 8.05 16.85 23.09 21 35v4c-1.24.53-2.5 1.05-3.75 1.56-.7.29-1.39.58-2.11.88-2.55.67-3.74.66-6.14-.44-1.34-1.9-1.34-1.9-2.5-4.38-.42-.89-.84-1.78-1.28-2.7-1.61-3.85-2.92-7.78-4.13-11.77C160 270 160 270 158.2 269.2c-7.25-.67-15.33-1.02-22.2 1.8-2.22 3.34-2.28 4.91-1.67 8.8 1.26 4.14 4.01 7.22 6.73 10.51 1.12 1.39 2.24 2.78 3.35 4.18.5.6.99 1.21 1.5 1.83C147 298 147 298 147 301c-1 1-1 1-4.06 1.06L140 302c-21.31-37.34-21.31-37.34-19-47 2.29-2.48 4.93-3.68 8-5q.99-.48 2.01-.96c8.57-3.54 21.1-4.35 28.99.96"/><path fill="#060915" d="M103 1c7.16.37 13.08 2.29 19.77 4.84 4.9 1.76 9 2.21 14.21 2.25 10 .16 18.76 2.27 28.28 5.25 7.14 2.23 14.12 3.87 21.5 5.05C190 19 190 19 192.93 20c2.98.97 5.88 1.49 8.98 1.94 13.72 2 24.85 6.8 34.11 17.36 2.19 2.98 3.63 5.96 5.17 9.32 4.73 9.7 9.41 17.61 20 21.44 2.26.68 4.53 1.32 6.81 1.94.45.16.45.16 2.73.98 4.72 1.47 9.54 2.29 14.39 3.21 42.4 8.32 42.4 8.32 54.88 16.81 1.65 1.09 3.29 2.18 4.94 3.27 2.75 1.83 5.5 3.67 8.24 5.52 7.09 4.78 14.27 9.19 21.82 13.21.99.55 1.99 1.1 3.01 1.66 3.12 1.4 5.48 1.82 8.87 2.03.96.06 1.93.13 2.92.2.73.03 1.45.07 2.2.11l1 3c-9.4.61-16.03.17-24-5-.73-.47-1.47-.94-2.23-1.42-1.49-.98-2.97-1.98-4.44-2.99-3.38-2.31-6.85-4.48-10.31-6.66-2.17-1.39-4.33-2.78-6.48-4.2-.6-.39-1.2-.78-1.81-1.18-1.7-1.11-3.39-2.23-5.08-3.34-7.87-4.89-15.65-8.09-24.65-10.27-1-.25-2-.51-3.04-.77-10.46-2.6-20.97-4.97-31.55-7.09-26-5.31-26-5.31-32.41-13.27-1.04-1.58-2.04-3.18-3-4.81-.59-.89-1.18-1.79-1.79-2.71-2.78-4.22-5.33-8.48-7.65-12.98C229.32 35.87 222.19 31.18 212 28c-4.64-1.18-9.3-2.12-14-3-7.43-1.42-14.78-3.09-22.12-4.88-.56-.13-.56-.13-3.34-.79-4.72-1.14-9.44-2.28-14.13-3.58-7.51-2.06-14.5-3.06-22.25-3.32-6.8-.3-12.78-2.1-19.16-4.43-1.71-.59-3.41-1.17-5.12-1.75-.69-.24-1.37-.48-2.08-.73C108 5 108 5 105 5c-.03.46-.03.46-.19 2.78-.71 7.06-1.37 12.53-6.56 17.62-3.5 2.49-7.28 3.91-11.28 5.41C82.5 32.6 78.88 35.19 75 38l-3.35 2.36c-5.32 3.75-10.6 7.55-15.71 11.58-5.91 4.63-5.91 4.63-8.94 6.06l-3-1c1.22-3.66 2.13-3.92 5.44-5.69.8-.43 1.6-.87 2.43-1.32C54 49 54 49 56 49l1-3c3.47-2.92 7.28-5.4 11-8 1.04-.77 2.09-1.55 3.16-2.35C78.43 30.36 85.46 26.79 94 24c3-1 3-1 4.06-3.06C100.15 14.41 101.54 7.69 103 1"/><path fill="#b09fe0" d="M387 361c3.18 1.35 4.76 2.65 6.66 5.52q.69 1.035 1.41 2.1c.47.72.94 1.45 1.43 2.19.95 1.43 1.89 2.85 2.84 4.27.46.68.91 1.37 1.38 2.07 1.28 1.85 1.28 1.85 3.37 4.4 2.42 3.11 4.21 6.4 6.03 9.89l1.06 1.94c3.1 5.85 5.11 11.09 5.2 17.81.02 1.02.05 2.05.08 3.1-.46 2.71-.46 2.71-2.11 4.57-3.17 1.54-4.83 1.64-8.35 1.14-2.67-1.82-4.81-4.09-7.04-6.42-.65-.66-1.3-1.31-1.97-1.99-2.08-2.1-4.13-4.22-6.18-6.34-1.39-1.41-2.78-2.82-4.18-4.23C375.1 389.29 375.1 389.29 373 386c.24-3.4 2.04-5.96 3.81-8.81 1.85-3 3.67-5.99 5.38-9.07 1.47-2.54 2.98-4.83 4.81-7.12"/><path fill="#ac7edf" d="M351 324c2.98 2.89 5.78 5.86 8.5 9 2.72 3.13 5.53 6.1 8.5 9 .6.61 1.19 1.21 1.8 1.84 4.55 4.61 9.26 8.96 14.2 13.16-1.49 4.14-3.53 7.66-5.88 11.38-2.8 4.49-5.54 9-8.12 13.62-3.73-1.24-4.18-2.44-6.31-5.69-4.09-5.83-8.83-10.68-13.94-15.63l-1.77-1.71c-.53-.5-1.05-1-1.59-1.52-1.87-1.95-3.33-3.56-3.51-6.33.63-5.47 2.08-10.26 4.07-15.39 1.49-3.86 2.77-7.79 4.05-11.73"/><path fill="#0d0c16" d="M443.75 111.688c.94.01 1.88.03 2.85.04 24.93.53 49.42 6.67 72.4 16.27.83.35 1.66.69 2.51 1.04 19.8 8.27 40.81 18.68 49.62 39.59 1.17 3.14 2.16 6.31 3.12 9.52.21.73.43 1.46.66 2.21.43 1.45.85 2.91 1.25 4.37.52 1.79 1.17 3.54 1.84 5.27l3 1c.26-.55.52-1.11.78-1.69 1.86-3.52 4.24-6.64 6.56-9.87.28-.4.28-.4 1.66-2.44.46-.62.92-1.25 1.4-1.89.99-3.47-.71-5.72-2.27-8.86-.58-1.17-1.15-2.34-1.75-3.54-.45-.9-.91-1.79-1.38-2.71 1.81.19 1.81.19 4 1 .43.83.85 1.67 1.29 2.52 1.71 2.48 1.71 2.48 4.25 3.05.99-.03 1.98-.05 3-.08 1.08-.02 2.15-.03 3.25-.05 1.12-.04 2.24-.08 3.4-.13l3.43-.06c2.79-.06 5.59-.14 8.38-.25 1.25 3.74 1.62 7.48 2.06 11.38.09.75.18 1.51.28 2.29.99 8.53.99 8.53.66 11.33l-3 2c-3.26-3.04-5.97-5.63-8-9.62-2.27-3.83-4-5.46-8-7.38-2.94-.25-2.94-.25-6 1-3.85 3.54-6.82 7.74-9.81 12-6.44 8.64-15.9 13.82-25.06 19.12-3.13 1.88-3.13 1.88-5.13 3.88l-4-5 1-2c.67.26 1.34.51 2.02.77 4.42.35 6.97-1.68 10.61-4.02.66-.41 1.33-.81 2.02-1.24 3.13-1.94 5.8-3.82 8.35-6.51-.96-3.68-1.98-7.34-3-11-.08-.31-.08-.31-.5-1.91-4.33-16.34-12.65-28.33-27.43-37.2-2.98-1.71-6.02-3.31-9.07-4.89-.54-.28-.54-.28-3.28-1.74-16.7-8.33-34.94-13.67-53.09-17.76-1.08-.24-2.15-.48-3.26-.73-10.74-2.29-21.53-2.95-32.5-3.02l-2.49-.06c-.79-.01-1.57-.01-2.39-.02-.7 0-1.39-.01-2.11-.02-2.53.48-3.3 1.34-4.88 3.35-.86 1.59-1.66 3.21-2.41 4.85-.43.94-.87 1.87-1.31 2.83-.44.97-.89 1.95-1.34 2.95-.88 1.93-1.77 3.86-2.66 5.79-.39.85-.78 1.71-1.18 2.59-1.1 1.99-1.1 1.99-3.1 2.99.58-5.89 2.86-10.84 5.25-16.19.38-.9.77-1.8 1.16-2.73 1.59-3.58 2.93-6.45 5.78-9.17 4.2-1.36 8.17-1.31 12.56-1.22"/><path fill="#b29fe0" d="M313 287c4.09 1.53 5.82 4.13 8.31 7.62 4.53 6.23 9.15 12.07 14.83 17.29l1.67 1.58c1.11 1.03 2.23 2.04 3.37 3.04 1.54 1.44 1.54 1.44 3.82 4.47-.04 3.45-.04 3.45-1 7-.27 1.12-.55 2.24-.83 3.39-.33 1.09-.65 2.18-.98 3.3l-.96 3.32c-1.3 3.15-2.67 4.79-5.23 6.99-7.93-9.6-15.69-19.27-22.89-29.44-.96-1.35-1.95-2.69-2.94-4.03-2.16-3.09-3.16-5.1-3.23-8.91 1.58-5.38 3.55-10.6 6.06-15.62"/><path fill="#ab7dde" d="M338 357c3.71 1.24 4.46 2.61 6.81 5.69 2.8 3.55 5.61 6.79 8.89 9.91.32.3.32.3 1.93 1.84 1.27 1.19 2.55 2.36 3.85 3.52 3.03 2.87 4.39 4.28 5.11 8.5-.66 3.96-1.89 7.37-3.59 10.98-.14.32-.14.32-.87 1.93-.7 1.55-1.41 3.09-2.13 4.63-9.7-2.97-22.39-9.25-28-18-.37-6.2 1.75-12.53 3.44-18.44.21-.8.43-1.6.66-2.43 1.65-5.88 1.65-5.88 3.9-8.13"/><path fill="#af9de0" d="M304 319c1.86.27 1.86.27 4 1 1.17 1.61 1.17 1.61 2.19 3.75 4.53 8.73 10.1 17.23 17.4 23.88C329 349 329 349 331 352c-.24 7.44-1.83 15.24-5 22-2.14.88-2.14.88-4 1-9.8-10.02-20.97-22.38-22.38-36.88.16-4.11 1.33-7.84 2.63-11.73.77-2.44 1.29-4.87 1.75-7.39"/><path fill="#ab9cdf" d="M163.313 244.688c8.5 7.31 13.09 15.36 17.76 25.36 1.34 2.82 2.84 5.57 4.3 8.33 2.52 5.01 4.24 9.99 4.63 15.62-2.15 2.15-6.59 1.74-9.57 2.07-.8.09-1.61.18-2.44.27l-5.99.66v-3l11-3c0-14.96-12.86-33.04-22.98-43.47-5.68-4.29-15.26-3.3-22.02-2.53-7.45 1.56-14.12 3.97-19 10-2.25 9.39 4.84 19.99 9 28l1.21 2.36c7.48 14.59 7.48 14.59 10.79 18.64 1.07-.16 2.14-.33 3.25-.5 3.75-.5 3.75-.5 7.75-.5-1 2-1 2-2.93 2.85-.79.26-1.57.51-2.38.78l-2.37.79c-2.32.58-2.32.58-6.32.58-.38-.74-.76-1.48-1.14-2.24-13.2-25.82-13.2-25.82-20.19-36.94-2.97-5.01-5.06-9.93-3.67-15.82 4.24-7.31 10.43-10.3 18.22-12.68 11.68-3 22.37-1.09 33.09 4.37"/><path fill="#08070f" d="M442 498c7.39.34 12.58 3.03 19 6.56 2.04 1.1 4.09 2.2 6.13 3.29 1 .54 1.99 1.08 3.02 1.63 3.89 2.07 7.83 4.02 11.79 5.96 4.42 2.18 8.7 4.45 12.82 7.15 3.29 2.07 6.67 3.95 10.05 5.85.35.19.35.19 2.1 1.18 5 2.8 10.05 5.49 15.15 8.09C524 539 524 539 525 542h5l1 2c2.44 1.32 4.88 2.55 7.38 3.75 6.65 3.22 13.15 6.68 19.62 10.25l8.64 4.74c1.94 1.07 3.88 2.13 5.81 3.2.94.51 1.87 1.02 2.83 1.55.84.46 1.67.92 2.53 1.39C580 570 580 570 583 571c-.03-1.2-.07-2.41-.11-3.65-.02-1.57-.05-3.15-.08-4.73-.02-.79-.05-1.58-.07-2.4-.03-2.08.11-4.15.26-6.22 3.18-2.12 4.66-2.4 8.38-2.82 1.06-.12 2.13-.25 3.23-.37 1.12-.13 2.24-.25 3.39-.37 1.09-.13 2.17-.25 3.29-.38 6.9-.79 13.8-1.46 20.71-2.06 1.37-6.89 2.31-13.65 2.75-20.66C625 525 625 525 626 524c.24-2.35.41-4.71.56-7.06.09-1.29.17-2.58.26-3.91.06-1 .12-2 .18-3.03h2c.27 13.91-.27 27.54-4 41-2.66 2.66-9.35 1.99-12.97 2.36-1.99.2-3.99.41-5.98.62-6.72.69-13.29 1.19-20.05 1.02.16 1.26.33 2.52.5 3.81.61 5.4.59 10.76.5 16.19-3 1-3 1-5.02.29-.76-.39-1.51-.77-2.3-1.17l-2.55-1.28-2.69-1.4c-.91-.46-1.81-.92-2.74-1.4-5.39-2.77-10.67-5.66-15.81-8.88-2.55-1.57-5.21-2.85-7.89-4.16-1.35-.74-2.69-1.48-4.03-2.23-3.34-1.87-6.7-3.71-10.06-5.53-9.5-5.14-18.92-10.34-28.19-15.86-4.64-2.76-9.32-5.38-14.08-7.92-2.47-1.36-4.86-2.81-7.25-4.3-5.38-3.24-10.95-5.9-16.64-8.54-8.85-4.15-17.39-8.56-25.75-13.62z"/><path fill="#b0a0e0" d="M369 293h2c.3 1 .61 2.01.92 3.04 6.38 20.93 6.38 20.93 10.74 29.05 1.96 4.25 1.41 7.45.34 11.91-1.56 3.56-1.56 3.56-3 6-3.47 0-3.72-.33-6.07-2.64-.59-.57-1.17-1.14-1.77-1.73-.3-.31-.3-.31-1.85-1.88l-1.88-1.91c-5.13-5.32-10.5-10.98-13.43-17.84.33-9.19 7.89-17.61 14-24"/><path fill="#b09ee0" d="M277 253c6.72.96 9.91 3.79 14 9 .91.72 1.81 1.44 2.75 2.19 3.75 2.99 6.5 6.72 9.42 10.51 1.83 2.3 1.83 2.3 3.6 3.88.41.47.81.94 1.23 1.42-1 6.33-3.52 12.11-6 18-4 0-4 0-6.7-2.64-1.01-1.19-2-2.4-2.99-3.61-.52-.63-1.05-1.26-1.59-1.91-4.09-4.96-8.02-10.02-11.8-15.22-1.17-1.6-2.38-3.18-3.65-4.71-1.46-1.79-1.46-1.79-3.27-4.91.5-3.06.5-3.06 2-6 .54-1.11 1.07-2.23 1.62-3.38.46-.86.91-1.73 1.38-2.62"/><path fill="#af9fe0" d="m324 274 2.21.78c3.37 1.18 6.74 2.36 10.1 3.53 1.15.41 2.3.81 3.48 1.23 7.01 2.44 14.02 4.62 21.21 6.46 0 4.15-1.9 7.15-3.75 10.75-.17.35-.17.35-1.05 2.09-2.27 4.47-4.68 8.83-7.2 13.16-3.79-1.51-5.59-3.68-8.06-6.88-4.24-5.32-8.72-10.32-13.36-15.3-7.58-8.3-7.58-8.3-7.58-11.01 1.09-1.97 2.38-3.25 4-4.81"/><path fill="#2385d6" d="M55 141c2.85 1.01 3.82 1.65 5.2 4.4 3 9.62 5.55 19.44 4.8 29.6-4.01 4.01-9.82 3.18-15.19 3.19-.36 0-.36 0-2.19.03-1.88.01-3.75-.1-5.62-.22-2.81-2.81-2.96-5.97-3.62-9.75-.14-.7-.27-1.41-.41-2.13-.75-4.09-1.11-7.94-.97-12.12 4.02-1.31 6.71-.48 10.68.62 2.69.44 4.7.05 7.32-.62-.04-.43-.04-.43-.25-2.59-.11-1.1-.21-2.21-.31-3.35-.11-1.1-.21-2.2-.32-3.34-.04-.9-.08-1.79-.12-2.72z"/><path fill="#c873f9" d="M39 103c3 1 3 1 4.06 3.01 2.65 7.6 4.47 15.23 6.06 23.11.51 2.42 1.01 4.84 1.51 7.26.23 1.13.46 2.27.7 3.43.6 2.85 1.25 5.67 1.91 8.49.25 1.22.5 2.44.76 3.7l-1 1c-1.75-.01-3.5-.11-5.25-.25-.48-.03-.48-.03-2.89-.2-3.33-.64-5.26-1.36-7.86-3.55-.79-2.87-.79-2.87-1.06-6.44-.7-7.39-2.08-14.52-3.71-21.77-1.71-7.98-1.71-7.98-.23-11.79 1.52-1.84 1.52-1.84 3.38-3.38.6-.52 1.21-1.04 1.83-1.58.3-.17.3-.17 1.79-1.04"/><path fill="#aea0e0" d="M56.375 131.688c.4-.02.4-.02 2.4-.11 2.22.42 2.22.42 3.89 2.13 7.13 12.24 12.41 32.4 9.33 46.29-6.69 5.91-14.68 5.18-23.12 5.19-.49.01-.49.01-3 .04h-2.88c-.87.01-1.73.01-2.62.02-2.63-.27-4.2-.73-6.38-2.25-.76-2.95-1.25-5.62-1.62-8.62-.12-.85-.24-1.7-.36-2.57-.24-1.75-.47-3.5-.69-5.26-.3-2.35-.62-4.7-.95-7.05-.95-6.87-1.62-13.56-1.38-20.5 1.33-.66 2.65-1.32 4-2 1.88 1.88 1.45 5.05 1.65 7.57l.36 4.1c.19 2.15.37 4.31.54 6.46 1.27 15.6 1.27 15.6 4.45 22.87 4.7 3.13 9.5 2.45 15 2 3.75-.78 7.37-1.8 11-3 .4-12.5-.49-24.96-7-36-2.29-1.48-4.39-2.13-7-3-.38-1.65-.71-3.32-1-5 1.58-1.58 3.2-1.24 5.38-1.31"/><path fill="#a38edc" d="M275 281c3.76 1.25 4.69 2.83 7.12 5.94 3.12 3.91 6.31 7.69 9.69 11.37 1.4 1.56 2.8 3.13 4.19 4.69.25.26.25.26 1.52 1.61 1.79 2.13 2.51 3.84 2.37 6.62-.48 2.66-1.14 5.18-1.89 7.77-.25.92-.49 1.85-.75 2.8-1.91 6.86-1.91 6.86-4.25 9.2-1.95-.08-1.95-.08-4-1-6.46-8.59-8.68-20.39-11.36-30.58-.56-2.11-1.13-4.2-1.72-6.3-2.22-8.23-2.22-8.23-.92-12.12"/><path fill="#0b1020" d="M443.75 111.688c.94.01 1.88.03 2.85.04 24.93.53 49.42 6.67 72.4 16.27.83.35 1.66.69 2.51 1.04 19.9 8.31 40.81 18.74 49.68 39.71 2.32 6.29 4.06 12.78 5.81 19.25l-3 1c-.17-.61-.34-1.22-.52-1.84-6.48-22.79-6.48-22.79-14.48-31.16l-2.24-2.36c-6.45-6.28-13.84-10.54-21.76-14.64-.54-.28-.54-.28-3.28-1.74-16.7-8.33-34.94-13.67-53.09-17.76-1.08-.24-2.15-.48-3.26-.73-10.74-2.29-21.53-2.95-32.5-3.02l-2.49-.06c-.79-.01-1.57-.01-2.39-.02-.7 0-1.39-.01-2.11-.02-2.53.48-3.3 1.34-4.88 3.35-.86 1.59-1.66 3.21-2.41 4.85-.43.94-.87 1.87-1.31 2.83-.44.97-.89 1.95-1.34 2.95-.88 1.93-1.77 3.86-2.66 5.79-.39.85-.78 1.71-1.18 2.59-1.1 1.99-1.1 1.99-3.1 2.99.58-5.89 2.86-10.84 5.25-16.19.38-.9.77-1.8 1.16-2.73 1.59-3.58 2.93-6.45 5.78-9.17 4.2-1.36 8.17-1.31 12.56-1.22"/><path fill="#ad97df" d="M369 390c4.38 2.34 7.71 5.42 11.18 8.91l1.72 1.72 3.59 3.59c1.83 1.85 3.67 3.68 5.51 5.51l3.49 3.49 1.67 1.67c3.84 3.88 3.84 3.88 3.84 6.11-13.4.93-25.48-3.96-35.84-12.52C363 407 363 407 363 403.94c.94-5.04 3.57-9.48 6-13.94"/><path fill="#2384d5" d="M478 488v24c-.33.16-.33.16-2 1-2.08-.77-2.08-.77-4.66-2.03-.95-.46-1.91-.92-2.88-1.39-1.02-.5-2.04-1-3.08-1.52-1.04-.5-2.07-1-3.13-1.51-8.45-4.12-16.86-8.3-25.25-12.55v-2c.45-.01.45-.01 2.73-.04 3.38-.07 6.76-.14 10.13-.22 1.46-.04 2.91-.06 4.37-.09 2.1-.03 4.2-.08 6.31-.14.63-.01.63-.01 3.82-.08 4.86-.57 8.84-3.43 13.64-3.43"/><path fill="#0d101e" d="M259 209c5.65.42 9.25 2.01 13.88 5.31.64.44 1.28.88 1.94 1.34 3.49 2.4 6.92 4.89 10.34 7.4 26.57 19.46 59.63 29.47 91.99 33.95 1.27.17 2.54.35 3.85.53 2.56.35 5.12.69 7.68 1.03.59.07.59.07 3.56.48 1.06.13 2.12.27 3.22.41C398 260 398 260 400 262c.14 2.58.19 5.05.12 7.62 0 .71-.01 1.42-.02 2.15-.03 1.74-.06 3.49-.1 5.23h-2l-1-14c-1.03-.12-1.03-.12-6.26-.7-36.4-4.16-75.31-12.15-104.95-34.96-3.38-2.53-6.87-4.9-10.35-7.28-.34-.23-.34-.23-2.02-1.39-9.82-6.75-9.82-6.75-12.73-6.36-.56.23-1.12.46-1.69.69z"/><path fill="#191320" d="m624 487 3 2 2-1c.03 3.58.05 7.17.06 10.75l.03 3.08c0 .98 0 1.96.01 2.97 0 .9.01 1.8.01 2.73-.1 2.32-.49 4.24-1.11 6.47-.21 1.75-.4 3.5-.56 5.25-.04.45-.04.45-.26 2.7-.06.68-.12 1.35-.18 2.05h-1l-1-33c-3.14 1.25-5.78 2.34-8.65 3.96-.68.38-1.37.77-2.07 1.16-.73.41-1.46.83-2.22 1.26-1.62.9-3.24 1.81-4.87 2.72-.42.24-.42.24-2.58 1.44-4.35 2.43-8.73 4.82-13.11 7.21-.9.49-1.81.99-2.74 1.5q-7.725 4.2-15.48 8.34c-10.96 5.86-21.81 11.7-32.28 18.41-.42.24-.42.24-2.54 1.48-1.87 1.1-3.68 2.3-5.46 3.52v3l-3-1v-2c-.5.16-.5.16-3 1l-2-2c.8-.22 1.59-.43 2.41-.65 4.7-1.77 8.71-4.28 12.97-6.91 1.79-1.1 3.59-2.19 5.39-3.28.89-.54 1.78-1.08 2.69-1.64 6.1-3.66 12.32-7.09 18.54-10.52.81-.45 1.62-.9 2.46-1.36 5.13-2.83 10.27-5.65 15.41-8.47 1.7-.93 3.4-1.87 5.11-2.81 7.16-3.95 14.42-7.72 21.67-11.49 4.19-2.18 8.34-4.36 12.35-6.87"/><path fill="#15111e" d="M516 200h2c-.6 3.53-1.54 6.56-3 9.84-.39.9-.78 1.8-1.19 2.72-.41.93-.82 1.86-1.25 2.82-2.57 5.81-5 11.44-6.56 17.62 6.4-5.07 12.71-10.2 18.82-15.61 2.05-1.81 4.11-3.6 6.18-5.39.89-.78 1.79-1.57 2.71-2.38 8.94-7.63 8.94-7.63 15.29-8.62l2 4c-1.03.06-2.06.13-3.12.2-4.43.91-6.78 2.69-10 5.68-1.14 1-2.28 2.01-3.42 3.02-.58.52-1.15 1.04-1.74 1.57-2.67 2.38-5.42 4.67-8.16 6.97-2.19 1.85-4.37 3.7-6.56 5.56-.61.52-1.22 1.04-1.85 1.57-1.89 1.6-3.77 3.2-5.65 4.81-.29.24-.29.24-1.74 1.47A146 146 0 0 0 499 245c-5.98 6.1-12.11 11.93-19 17 0-4.08 1.26-4.99 4-8 3.18-2.94 6.44-5.84 9.92-8.43 5.8-4.55 7.79-8.68 9.7-15.69.57-1.88 1.14-3.74 1.72-5.61.27-.9.55-1.8.83-2.73 1.77-5.41 4.27-10.47 6.83-15.54.55-1.1 1.1-2.21 1.67-3.35.44-.87.88-1.75 1.33-2.65"/><path fill="#151320" d="M312 283c3.24.25 4.06 1.07 6.26 3.55q1.23 1.65 2.43 3.33c.89 1.19 1.78 2.38 2.67 3.58.45.6.89 1.19 1.35 1.81 4.17 5.58 8.4 11.07 13.56 15.77l1.68 1.56c1.09.99 2.2 1.96 3.33 2.9 2.12 1.94 3.63 3.61 3.93 6.54-.5 5.65-2.23 11.1-4.02 16.46-.25.81-.5 1.62-.75 2.45-.26.77-.51 1.54-.77 2.33-.23.69-.45 1.38-.68 2.1-.99 1.62-.99 1.62-3.09 2.35l-1.9.27c-4.74-5.29-9.21-10.72-13.5-16.38-.56-.74-1.13-1.48-1.71-2.24-3.55-4.69-7.07-9.38-10.34-14.26-1.45-2.12-1.45-2.12-3.08-4.11-2.25-2.94-3.46-4.8-3.18-8.56 1.69-6.81 4.74-13.17 7.81-19.45m1 4c-7.02 13.12-7.02 13.12-5 20 1.29 2.32 2.6 4.49 4.06 6.69.41.62.81 1.24 1.23 1.87 2.95 4.45 6.11 8.66 9.51 12.78 2.79 3.38 5.5 6.83 8.2 10.28.96 1.23 1.92 2.45 2.88 3.67.7.89 1.4 1.79 2.12 2.71 4.15-3.42 5.34-6.95 6.81-11.94l.7-2.13c1.24-4.07 1.76-6.86.49-10.93-1.61-2.03-1.61-2.03-3.68-4-.74-.72-1.49-1.44-2.26-2.19l-2.37-2.25c-4.82-4.59-9.21-8.83-12.69-14.56-1.17-1.62-2.35-3.22-3.56-4.81-.58-.77-1.16-1.54-1.76-2.33C316 288 316 288 313 287"/><path fill="#161320" d="M304 315h3c1.47 2.13 1.47 2.13 3.06 5.12 2.73 4.87 5.6 9.52 8.82 14.07.41.59.83 1.18 1.26 1.79 3.27 4.5 6.95 8.21 11.24 11.76 2.39 3.34 2.15 6.35 1.62 10.26-.75 3.54-1.74 6.98-2.81 10.44-.26.91-.52 1.82-.79 2.75-.26.87-.53 1.73-.79 2.62-.24.78-.48 1.56-.72 2.37-.29.6-.59 1.2-.89 1.82-.5.17-.5.17-3 1-12.55-7.61-22.48-23.84-26.69-37.55-.78-6.15 1.33-12.04 3.19-17.83.23-.72.45-1.44.68-2.19 1.68-5.29 1.68-5.29 2.82-6.43m0 4c-.2.83-.41 1.66-.62 2.52-.27 1.09-.54 2.17-.82 3.29-.26 1.08-.53 2.16-.81 3.27-.51 1.99-1.1 3.97-1.75 5.92-1.07 12.22 5.75 21.75 13 31 2.91 3.43 5.9 6.75 9 10 .66-.17.66-.17 4-1 .87-2.89 1.72-5.79 2.56-8.69.25-.81.5-1.63.75-2.47 2.26-7.86 2.26-7.86.69-11.84-1.35-1.85-1.35-1.85-3.06-3.62-7.64-8.32-15.04-18.15-19.94-28.38z"/><path fill="#121220" d="M387 361c3.18 1.35 4.76 2.65 6.66 5.52q.69 1.035 1.41 2.1c.47.72.94 1.45 1.43 2.19.95 1.43 1.89 2.85 2.84 4.27.46.68.91 1.37 1.38 2.07 1.28 1.85 1.28 1.85 3.37 4.4 2.42 3.11 4.21 6.4 6.03 9.89l1.06 1.94c3.1 5.85 5.11 11.09 5.2 17.81.02 1.02.05 2.05.08 3.1-.46 2.71-.46 2.71-2.11 4.57-3.17 1.54-4.83 1.64-8.35 1.14-2.67-1.82-4.81-4.09-7.04-6.42-.65-.66-1.3-1.31-1.97-1.99-2.08-2.1-4.13-4.22-6.18-6.34-1.39-1.41-2.78-2.82-4.18-4.23C375.1 389.29 375.1 389.29 373 386c.24-3.4 2.04-5.96 3.81-8.81 1.85-3 3.67-5.99 5.38-9.07 1.47-2.54 2.98-4.83 4.81-7.12m0 4a98 98 0 0 0-3.94 6.19c-.34.58-.69 1.15-1.05 1.75-1.01 1.68-2.01 3.37-3.01 5.06l-1.82 2.61c-1.52 3.07-1.22 4.15-.18 7.39 1.95 2.42 1.95 2.42 4.48 4.91l2.78 2.75 2.93 2.84c.95.95 1.91 1.89 2.87 2.84 7.52 7.41 7.52 7.41 11.52 10.67 2.42 1.99 2.42 1.99 3.98 4.3 1.44 1.69 1.44 1.69 4 2.07C412 418 412 418 414 416c1.88-11.35-4.26-21.65-10-31-1.64-2.28-3.35-4.47-5.13-6.65-2.89-3.63-5.51-7.45-8.17-11.26-.56-.69-1.12-1.38-1.7-2.09z"/><path fill="#ac7edf" d="M387 365c3.94 1.31 5.75 3.96 8.14 7.15.86 1.85.86 1.85.62 4.01C395 378 395 378 393 379c.11.46.11.46.69 2.81.31 3.19.31 3.19-.94 4.88-.29.21-.29.21-1.75 1.31-1.74 1.67-2.92 2.83-4 5-2.06.62-2.06.62-4 1a177 177 0 0 1-3.56-3.69l-2.01-2.07c-1.43-2.24-1.43-2.24-1.39-4.6 1.22-3.36 2.97-6.27 4.9-9.26.36-.58.72-1.15 1.09-1.74 1.62-2.57 3.28-5.11 4.97-7.64"/><path fill="#2382d4" d="M451 418c3.86 3.74 7.31 7.69 10.75 11.81 6.3 7.45 12.9 14.05 21.25 19.19-1.25 3.74-2.63 4.19-6 6 3.13 1.04 3.99.93 7 0v4h-2l1 4c-3.92-1.6-6.42-4.15-9.38-7.12-.91-.92-1.83-1.83-2.77-2.76-5.75-6.1-10.12-12.93-14.16-20.24-.44-.78-.89-1.55-1.34-2.34-2.33-4.19-3.94-7.68-4.35-12.54"/><path fill="#2081d5" d="M198 380v3c-.78.08-1.57.17-2.38.25-2.62.75-2.62.75-3.93 2.81-.23.64-.46 1.28-.69 1.94l-3-1 2-4h-5l-2 5c-.82-.17-.82-.17-5-1v-2c-1.49.17-1.49.17-9 1l3 3-3 3c-.62.74-1.24 1.49-1.88 2.25-2.12 1.75-2.12 1.75-4.87 1.5q-1.11-.375-2.25-.75l-1-6c-.5-.02-.5-.02-3.03-.15-.64-.04-.64-.04-3.91-.23-1.29-.06-2.57-.13-3.9-.21-.52-.06-.52-.06-3.16-.41l-1-2c-1.85-.41-1.85-.41-4.06-.62-1.3-.13-2.6-.25-3.94-.38 3.66-2.44 5.69-2.39 10.06-2.62.73-.05 1.46-.09 2.2-.13 4.75-.22 9.47-.26 14.22-.2a493 493 0 0 1 10.08.16c6.71.1 12.44-.71 18.87-2.66 2.65-.57 4.05-.45 6.57.45"/><path fill="#0f101d" d="M351 324c2.98 2.89 5.78 5.86 8.5 9 2.72 3.13 5.53 6.1 8.5 9 .6.61 1.19 1.21 1.8 1.84 4.55 4.61 9.26 8.96 14.2 13.16-1.49 4.14-3.53 7.66-5.88 11.38-2.8 4.49-5.54 9-8.12 13.62-3.73-1.24-4.18-2.44-6.31-5.69-4.09-5.83-8.83-10.68-13.94-15.63l-1.77-1.71c-.53-.5-1.05-1-1.59-1.52-1.87-1.95-3.33-3.56-3.51-6.33.63-5.47 2.08-10.26 4.07-15.39 1.49-3.86 2.77-7.79 4.05-11.73m0 6c-1.07 3.24-2.1 6.49-3.12 9.75-.31.92-.61 1.84-.92 2.79-.28.89-.56 1.78-.84 2.69-.26.82-.53 1.64-.8 2.48-.39 2.81.17 3.93 1.68 6.29 3.19 4.09 6.78 7.83 10.5 11.44 3.93 3.85 7.21 8.15 10.5 12.56 3.03-2.68 4.99-5.96 7.06-9.38.69-1.12 1.39-2.24 2.1-3.39 1.55-2.72 2.78-5.3 3.84-8.23-.86-.79-1.71-1.57-2.6-2.38-8.03-7.37-15.93-14.63-22.82-23.12C354 330 354 330 351 330"/><path fill="#191421" d="m447 174 2 1c-.24.83-.47 1.66-.72 2.52-10.36 36.74-18.3 73.46-22.28 111.48h-3c-.24-7.28.68-14.29 1.69-21.5.18-1.28.36-2.57.54-3.89 1.59-10.97 3.65-21.78 6.09-32.6.71-3.14 1.4-6.29 2.09-9.44 8.36-37.72 8.36-37.72 13.59-47.57"/><path fill="#9e8ddb" d="M373 289c5.79-.1 11.29.01 17 1-.02.68-.05 1.36-.07 2.05-.09 4.81 0 9.25 1.07 13.95 1.22 5.36 1.19 10.53 1 16h-4c-1.72-4.07-3.42-8.15-5.13-12.23-.58-1.38-1.16-2.77-1.74-4.15-.84-1.99-1.67-3.99-2.51-5.98-.5-1.2-1-2.4-1.52-3.64-1.1-3-1.1-3-1.1-6l-4 2z"/><path fill="#ab7fde" d="M304 319c1.88.12 1.88.12 4 1 1.15 2.73 1.86 5.36 2.5 8.25.5 1.75.5 1.75 2.5 3.75.14 1.97.14 1.97-.02 4.35-.05.85-.11 1.7-.16 2.58-.06.89-.13 1.78-.2 2.69-.05.9-.11 1.8-.17 2.72q-.21 3.33-.45 6.66l-4 2-2-3-2 2c-4.41-9.61-5.11-15.58-1.75-25.61.77-2.44 1.29-4.87 1.75-7.39"/><path fill="#181320" d="m370 287 3 1 1 9h-2l-1-4c-4.35 3.1-6.95 6.43-9.75 10.88-.2.29-.2.29-1.21 1.81-2.39 3.74-4.08 6.83-4.04 11.31 1.29 2.51 2.49 4.42 4.19 6.62.44.6.88 1.2 1.34 1.82 4.89 6.44 10.59 12.04 16.47 17.56 2.52-1.26 2.65-2.1 3.62-4.69.27-.66.53-1.33.79-2.01 1.53-6 .07-10-2.72-15.3-3.6-7.19-5.4-14.04-6.69-22h2c.28.91.56 1.82.85 2.75 2.46 7.72 5.19 14.98 9 22.15 2.1 4.15 2.42 6.63 1.15 11.1-.62 1.73-1.28 3.44-2 5.12-1.25 2.95-2.31 5.75-3 8.88-3.22-1.39-5.03-2.92-7.25-5.62-2.43-2.9-4.93-5.54-7.69-8.13-4.23-4.14-7.32-8.84-10.49-13.81C354 319 354 319 353 318c-1.16-6.44 2.54-10.92 6-16 1.48-2.07 2.99-4.09 4.54-6.11 2.24-2.9 4.34-5.9 6.46-8.89"/><path fill="#0a0e1b" d="M338 357c3.71 1.24 4.46 2.61 6.81 5.69 2.8 3.55 5.61 6.79 8.89 9.91.32.3.32.3 1.93 1.84 1.27 1.19 2.55 2.36 3.85 3.52 3.03 2.87 4.39 4.28 5.11 8.5-.66 3.96-1.89 7.37-3.59 10.98-.14.32-.14.32-.87 1.93-.7 1.55-1.41 3.09-2.13 4.63-9.41-2.85-17.97-8.13-25-15v-2c3.32 1.57 6.35 3.45 9.44 5.44 1.85 1.19 3.7 2.38 5.56 3.56.86.59 1.71 1.18 2.6 1.79 2.4 1.21 2.4 1.21 4.57 1.16 2.5-1.3 3-2.62 4.08-5.2.34-.77.67-1.54 1.02-2.33.82-2.72 1.03-4.58.73-7.42-1.51-2.06-1.51-2.06-3.61-4.07-.76-.73-1.51-1.46-2.29-2.22-.79-.75-1.59-1.5-2.41-2.27-1.56-1.5-3.12-3-4.68-4.51-.69-.66-1.39-1.32-2.11-1.99-1.9-1.94-1.9-1.94-3.46-4.12C341 363 341 363 338 362q-.15.87-.3 1.77c-1.27 6.98-3.33 13.54-5.7 20.23h-2c3.49-22.49 3.49-22.49 8-27"/><path fill="#18131f" d="M393 339c3.18 2.85 4.72 5.15 6.06 9.19.33.97.66 1.94.99 2.94.32.95.63 1.9.95 2.87.15.39.15.39.88 2.37 2.02 5.5 2.77 10.79 3.12 16.63h-3c-5.74-6.43-12.22-14.95-13.56-23.62.71-4.26 2.21-6.78 4.56-10.38"/><path fill="#0d0f1d" d="M369 390c4.38 2.34 7.71 5.42 11.18 8.91l1.72 1.72 3.59 3.59c1.83 1.85 3.67 3.68 5.51 5.51l3.49 3.49 1.67 1.67c3.84 3.88 3.84 3.88 3.84 6.11-13.4.93-25.48-3.96-35.84-12.52C363 407 363 407 363 403.94c.94-5.04 3.57-9.48 6-13.94m0 4c-.7 1.6-1.38 3.2-2.06 4.81-.39.9-.77 1.79-1.16 2.71C365 404 365 404 366 407c2.44 2 5.21 3.53 7.94 5.12.77.46 1.53.91 2.33 1.38 5.67 3.21 10.11 4.71 16.73 4.5-1.39-3.09-3.01-5.3-5.34-7.75l-1.97-2.09c-.68-.72-1.36-1.43-2.07-2.16-.67-.71-1.34-1.42-2.03-2.16-1.3-1.36-2.59-2.72-3.9-4.07-1.34-1.41-2.67-2.84-3.98-4.27C372 394 372 394 369 394"/><path fill="#ad9ddf" d="M378 354c1.88 1.5 1.88 1.5 3 3-1.67 4.88-4.37 8.99-7.12 13.31-.47.74-.94 1.48-1.42 2.25-1.15 1.81-2.31 3.63-3.46 5.44-2.99-2.97-5.97-5.95-8.81-9.06-.3-.33-.3-.33-1.83-1.98C357 365 357 365 357 361h3l1 2q2.625.045 5.25.06c.97.01 1.95.03 2.95.04 2.46-.09 4.46-.39 6.8-1.1l-1-3-7-1v-2c3.4-2.09 6.04-2.42 10-2"/><path fill="#181421" d="M275 281c3.76 1.25 4.69 2.83 7.12 5.94 3.12 3.91 6.31 7.69 9.69 11.37 1.4 1.56 2.8 3.13 4.19 4.69.25.26.25.26 1.52 1.61 1.79 2.13 2.51 3.84 2.37 6.62-.48 2.66-1.14 5.18-1.89 7.77-.25.92-.49 1.85-.75 2.8-1.91 6.86-1.91 6.86-4.25 9.2-1.95-.08-1.95-.08-4-1-6.46-8.59-8.68-20.39-11.36-30.58-.56-2.11-1.13-4.2-1.72-6.3-2.22-8.23-2.22-8.23-.92-12.12m2 6c5.47 28.46 5.47 28.46 12 39l3 2c3.22-5.52 5.86-11.55 6-18-1.93-4.34-4.8-7.53-8-11-.83-.94-1.66-1.87-2.51-2.84-1.55-1.74-3.12-3.46-4.7-5.16-1.79-2-1.79-2-2.79-4z"/><path fill="#ab7cde" d="M277 253c6.72.96 9.91 3.79 14 9 1.01.82 2.02 1.65 3.06 2.5 2.78 2.37 4.29 4.29 5.94 7.5-2.49.89-3.55 1.21-6 .06-.33-.17-.33-.17-2-1.06h-4l1-5-11-3 1 6h-2l-1 2c-2.12-2.62-2.12-2.62-4-6 .82-4.35 2.95-8.09 5-12"/><path fill="#bd74f2" d="M618 169c1.32 6.85 1.14 14.05 1 21-3.63-1.43-4.77-2.9-6.44-6.38-2.05-3.87-3.65-6.4-7.56-8.62a73 73 0 0 0-7.01-1.41C596 173 596 173 594 170c2.38-2.38 8.22-1.48 11.44-1.62.98-.06 1.96-.11 2.97-.16.93-.05 1.87-.09 2.84-.13.86-.04 1.72-.09 2.61-.13C616 168 616 168 618 169"/><path fill="#02050e" d="m100 17 2 1c-.71 1.28-1.45 2.55-2.19 3.81-.4.71-.81 1.42-1.23 2.15-3.12 4.02-7.49 5.46-12.14 7.16C79.39 34.01 73.91 38.26 68 43 52.99 54.78 52.99 54.78 47 58l-3-1c1.22-3.66 2.13-3.92 5.44-5.69.8-.43 1.6-.87 2.43-1.32C54 49 54 49 56 49l1-3c3.47-2.92 7.28-5.4 11-8 1.04-.77 2.09-1.55 3.16-2.35C78.43 30.36 85.46 26.79 94 24l3-1c1.12-2.5 1.12-2.5 2-5z"/><path fill="#ada3df" d="M543.438 44.688c3.62 1.33 4.83 1.95 6.56 5.31v3h-3l2 4 3-1c.13 2.88.13 2.88 0 6l-2 2c-3.65-.13-6.18-.45-9.25-2.5-2.5-3.57-3.96-7.2-4.75-11.5.69-3 .69-3 2-5 2-1 2-1 5.44-.31"/><path fill="#060f20" d="M479 484h1v31c-3-3-3-3-3.25-5.54.06-.99.12-1.98.18-3 .05-1.08.11-2.15.16-3.25.04-.56.04-.56.22-3.4.06-1.13.12-2.26.19-3.43.15-2.79.32-5.59.5-8.38-.53.29-1.07.57-1.62.87-8.09 3.81-15.79 3.59-24.5 3.38-1.45-.02-2.9-.04-4.35-.05-3.51-.05-7.02-.12-10.53-.2v2c.29.05.29.05 1.75.31 2.57.79 4.19 2 6.25 3.69-2.19.75-2.19.75-5 1-4.51-2.62-5.54-5.15-7-10 .4.01.4.01 2.41.03 3.66.04 7.31.07 10.97.09l3.79.06c8.97.04 17.58-.33 25.83-4.18v2h3z"/><path fill="#ab80de" d="m399.563 399.938 3.44.06c2 6.75 2 6.75 2 9h5l-2-6 5-1c.9 3.09 1.16 5.91 1.18 9.13.02.87.03 1.74.05 2.63-.23 2.24-.23 2.24-2.23 4.24-2.41.36-2.41.36-5 0-1.81-1.57-1.81-1.57-3.44-3.68-2.93-3.62-5.9-6.46-9.56-9.32l2-1-1-3c1-1 1-1 4.56-1.06"/><path fill="#af77df" d="m367 295 2 2c-.38 2.44-.38 2.44-1 5 0 3 0 3 .56 6.31.81 6.17.4 12.56-.56 18.69-.33.17-.33.17-2 1-.27-.6-.54-1.2-.81-1.81-1.19-2.19-1.19-2.19-2.75-3.57-2.06-2.32-2.1-4.6-2.44-7.62h-2c.98-4.4 2.16-7.99 5.06-11.5 2.05-2.64 2.49-4.25 2.94-7.5z"/><path fill="#afa4e0" d="M349 375c4.26.51 6.3 1.73 9.31 4.75.7.68 1.4 1.35 2.12 2.05 1.87 2.62 1.9 4.04 1.57 7.2h-2l-1 2h-3l-2 4-4-1 1-5-3-2c-.33-2.31-.33-2.31-.25-5 .02-.89.03-1.77.05-2.69.2-2.31.2-2.31 1.2-4.31"/><path fill="#15101a" d="M545 42c4.29 2.11 6.86 4.28 8.53 8.86.95 4.31 1.18 8.78.47 13.14-1.29 1.82-1.29 1.82-3 3-4.73.08-7.75-.3-11.31-3.5-4.02-4.57-5.74-9.84-5.63-15.88C536 42.19 539.53 41.23 545 42m-7.38 3.5C536 48 536 48 536 51.38c1.33 4.8 3.36 8.04 6.94 11.5 2.56 1.39 4.18 1.5 7.06 1.12 2-2 2-2 2.12-5.12L552 56l-4 1-1-4h3c-.32-3-.58-4.58-2.75-6.75-3.7-2.06-5.87-3.12-9.63-.75"/><path fill="#0e111f" d="m429 342 2 2h-2c2.82 16.25 6.4 32.01 11.32 47.76.63 2.07 1.18 4.14 1.68 6.24h-2l-1 2c-11.85-38.45-11.85-38.45-13-56z"/><path fill="#ab7cde" d="m337 279 18 5-3 1-1 3c-3.06 1.19-3.06 1.19-6 2l-1 8c-2.76.6-5.16 1-8 1l-1-6 4-2-1-4h2v-5l-3-1z"/><path fill="#06050d" d="M625 439h2c.3 5.57.58 11.15.84 16.72.11 2.31.23 4.62.35 6.93.2 3.8.38 7.61.56 11.41.07 1.23.14 2.46.21 3.73l.15 3.5.15 3.12c-.26 2.59-.26 2.59-1.77 4.45-.49.37-.98.75-1.49 1.14-1.16-4.17-1.21-8.26-1.28-12.56l-.06-2.51c-.08-3.54-.14-7.08-.21-10.61-.05-2.59-.11-5.17-.17-7.76-.01-.8-.03-1.59-.04-2.42-.13-5.73-.13-5.73-.81-8.21-.61-2.75.39-4.44 1.57-6.93"/><path fill="#1b1522" d="M556 212c2.59 2.27 3.66 4.21 4.75 7.46.3.88.6 1.76.9 2.66l.91 2.82.94 2.88c2.13 6.68 3.84 13.18 4.5 20.18.11 1.11.22 2.23.33 3.38 1.71 20.51 1.71 20.51-.33 26.62h-2c.02-.98.05-1.97.07-2.98.31-19.03-.11-40.84-9.16-58.1C556 215 556 215 556 212"/><path fill="#231f34" d="M397 279h2c1.16 3.47 1.07 6.36 1 10l-2 1-1 3h-2l-1 3-1-5-2.69.12c-4.85.02-9.55-.88-14.32-1.68C373 289 373 289 369 289c-1.67-.3-3.34-.63-5-1v-2h-2l1-2c.3.07.3.07 1.8.43 6.48 1.44 12.58 1.85 19.2 1.76h2.85c6.87-.05 6.87-.05 9.15-1.19.62-3.06.62-3.06 1-6"/><path fill="#a179dc" d="M369 394c4.01.54 5.98 2.52 8.81 5.31l2.46 2.37c1.73 2.32 1.73 2.32 1.49 4.61-.25.57-.5 1.13-.76 1.71l-1.76-.73c-6.46-2.45-6.46-2.45-10.8-1.46-.81.39-1.61.79-2.44 1.19-1.24-3.71-.57-4.68.94-8.19.38-.9.76-1.8 1.15-2.73.3-.69.6-1.37.91-2.08"/><path fill="#1d1f31" d="M377 292c2.78 1.39 2.98 2.92 4.13 5.77.39.97.79 1.94 1.2 2.94.4 1.03.81 2.05 1.23 3.1.41 1.01.83 2.03 1.25 3.07 3.31 8.2 3.31 8.2 4.19 12.12l1-1c-.2-1.6-.47-3.19-.78-4.77-.18-.97-.36-1.94-.55-2.94-.2-1.03-.4-2.05-.61-3.1-.38-2.01-.77-4.01-1.15-6.02-.17-.9-.35-1.79-.53-2.71C386 296 386 296 386 292h2c.48 2.12.96 4.25 1.42 6.38.37 1.69.76 3.37 1.16 5.06 1.4 6.25 1.64 12.16 1.42 18.56h-4c-1.58-3.63-3.14-7.26-4.7-10.89-.79-1.84-1.59-3.68-2.39-5.52-.5-1.16-.99-2.32-1.5-3.51-.46-1.07-.93-2.14-1.4-3.24C377 296 377 296 377 292"/><path fill="#a38adc" d="M393 344c3 1 3 1 3.89 2.7.24.73.47 1.45.72 2.19.26.8.52 1.59.79 2.4.26.83.52 1.67.79 2.52l.82 2.49c1.25 3.84 1.99 6.6 1.99 10.7-4.44-1.49-6.17-4.89-8.38-8.75-.38-.61-.76-1.22-1.15-1.84-1.93-3.35-2.56-4.96-1.76-8.8C392 345 392 345 393 344"/><path fill="#191421" d="m276 253 1 3c-1.05 1.72-2.11 3.44-3.29 5.09-.71 1.91-.71 1.91-.24 4.1 2.25 4.13 5.11 7.7 8.03 11.37.31.4.31.4 1.89 2.41 12.88 16.3 12.88 16.3 17.61 21.03l-2 2c-6.33-6.77-12.15-13.81-17.69-21.24-.91-1.22-1.82-2.43-2.74-3.64-1.43-1.89-2.85-3.78-4.26-5.68l-1.35-1.77c-2.99-4.09-2.99-4.09-2.85-6.84 3.76-7.7 3.76-7.7 5.89-9.83m28 10c4.36 1.37 8.43 3.05 12.56 5 3.78 1.78 7.55 3.49 11.44 5v2c-.39.06-.39.06-2.38.38C323 276 323 276 321 278c.34 3.37 1.89 5.43 4 8-3 0-3 0-5.25-1.62-1.75-2.38-1.75-2.38-1.5-5.44.12-.49.12-.49.75-2.94v-3c-4.76-2.34-6.78-3.16-12-2-1.81-1.12-1.81-1.12-3-3-.19-2.69-.19-2.69 0-5"/><path fill="#a584dd" d="m355 296 2 1-8 15c-3.87-1.93-4.88-2.78-7.25-6.12-.26-.37-.26-.37-1.58-2.2q-.57-.825-1.17-1.68c.68-.12 1.36-.25 2.06-.38 2.94-.62 2.94-.62 6.56-1.68C351 299 351 299 354 299z"/><path fill="#ab9ede" d="m295 309 3 1c-2.89 12.67-2.89 12.67-6 18-5.88-5.58-5.88-5.58-6.1-10.04.03-1.99.07-3.97.1-5.96h3l1 7c2-1 2-1 2.85-3.07.26-.82.51-1.64.77-2.49.27-.83.53-1.66.79-2.51.2-.63.39-1.27.59-1.93"/><path fill="#110f1b" d="M502 234c.82.16.82.16 5 1-1.57 3.86-4 6.13-7 9-1.27 1.29-2.54 2.58-3.81 3.88-5.09 5.08-10.39 9.85-16.19 14.12 0-4.08 1.26-4.99 4-8 3.3-3.06 6.72-5.97 10.23-8.79 4.13-3.41 6.7-5.72 7.77-11.21"/><path fill="#aa7ade" d="m289 302 2 4h2l1-2 3 4-1 2c-.69 1.54-1.38 3.08-2.06 4.62-.18.41-.18.41-1.1 2.48-.28.63-.55 1.25-.84 1.9h-2l-1-7h-3v5c-2.57-2.57-2.54-4.48-3-8l4 1c-.23-.76-.45-1.53-.69-2.31-.1-.89-.2-1.78-.31-2.69 1.44-1.81 1.44-1.81 3-3"/><path fill="#01040c" d="M23 112v3l-5 1-1 3c-.82.45-1.65.91-2.5 1.38C12 122 12 122 11.06 124.31c-.07 3.27.85 5.62 1.94 8.69.12 2.88.12 2.88 0 5h-2c-5.15-12.23-5.15-12.23-3-18 4.14-5.13 8.65-6.89 15-8"/><path fill="#161321" d="M479 484h1v31c-3-3-3-3-3.25-5.54.06-.99.12-1.98.18-3 .05-1.08.11-2.15.16-3.25.07-1.12.15-2.24.22-3.4.06-1.13.12-2.26.19-3.43.15-2.79.32-5.59.5-8.38-.66.29-1.33.58-2.01.88-.88.37-1.77.74-2.68 1.12-.43.19-.43.19-2.63 1.12-2.8.92-4.77 1.28-7.68.88l-2-3c.66-.12 1.33-.24 2.01-.37 4.52-.86 8.79-1.67 12.99-3.63v2h3z"/><path fill="#060f20" d="M101.273 362.902c1.15 0 2.31.01 3.5.01l3.6.03c.61 0 .61 0 3.68.01 2.98.01 5.96.03 8.95.05v2c-.64.01-1.27.03-1.92.04-28.24.73-28.24.73-36.08 5.96l-2-4c6.87-2.73 12.81-4.14 20.27-4.1"/><path fill="#aca0df" d="M338 362c2.66.55 3.81.82 5.81 2.75 1.51 2.85 1.11 4.23.19 7.25h-4l-1 8h-4c-.37-6.57.86-11.79 3-18"/><path fill="#aa67e1" d="m588 272 2 1c-5.09 4.46-10.73 7.09-16.94 9.62C570 284 570 284 569 286h-2l-1 3c-1.74.81-1.74.81-3.88 1.44-3.59 1.2-5.01 2.34-7.12 5.56h-3v2c-1.81 1.69-1.81 1.69-4 3l-3-1c12.58-11.12 12.58-11.12 17.62-13.44 3.38-1.56 3.38-1.56 4.7-3.5 2.3-2.81 4.58-3.39 7.99-4.56 4.77-1.72 8.68-3.41 12.69-6.5"/><path fill="#ab7ede" d="M373 313c3.34.94 4.71 1.53 6.58 4.53.41.98.81 1.96 1.23 2.97l1.27 2.97C383 326 383 326 383 328c-3.66-.5-5.71-1.02-8-4l-1-3-3-2c.88-4.88.88-4.88 2-6"/><path fill="#14101a" d="m576 193 1 2 2 1c-2.35 1.59-4.71 3.17-7.06 4.75-.33.22-.33.22-1.99 1.34-3.22 2.16-6.44 4.22-9.82 6.11C557 210 557 210 555 212l-4-5 1-2c.67.25 1.34.5 2.03.76 4.39.35 6.91-1.63 10.53-3.95.66-.4 1.32-.8 2-1.21 3.57-2.21 6.6-4.46 9.44-7.6"/><path fill="#ad9cdf" d="M355 330c3.32.01 5.99 2.68 6 5a6.005 6.005 0 0 1-6 6c-2.77-.01-4.99-2.23-5-6a5 5 0 0 1 5-5"/><path fill="#0f101e" d="M324 286c4.92 3.98 9.14 8.21 13.19 13.06.5.6 1.01 1.2 1.53 1.82 2.22 2.62 4.38 5.25 6.46 7.99C347 311 347 311 350 312l-1 4c-1.15-1.15-2.3-2.3-3.44-3.45-1.08-1.07-2.17-2.14-3.27-3.19-3.47-3.37-6.39-6.74-9.1-10.73-1.8-2.47-4.01-4.5-6.19-6.63-3-3.62-3-3.62-3-6"/><path fill="#0d0a11" d="M545 44c2.25 0 2.25 0 5 1 4.14 4.95 4.42 10.46 4.34 16.68C554 64 554 64 552 66l-3-1 2-3c.39-1.99.73-3.99 1-6l-4 2-1-5h3c-2.75-5.88-2.75-5.88-5-7z"/><path fill="#aea2df" d="M286 298c2.75.38 3.82.81 5.75 2.88C293 303 293 303 293 306h-2l-1 2-1-5c-2 3-2 3-1.62 5.69.1.38.1.38.62 2.31-2.94-1.06-2.94-1.06-6-3-.88-3.69-.88-3.69-1-7h4z"/><path fill="#080914" d="M288 257c6.03.48 10.77 3.2 16 6v4c-2.49-1.2-4.68-2.45-7-4l1 5c-1.29-.96-2.58-1.92-3.88-2.88-.71-.53-1.43-1.06-2.17-1.61C290 262 290 262 288 260z"/><path fill="#a59add" d="M277 253c3.96.72 6.75 1.54 10 4 1.31 2.69 1.31 2.69 2 5-.7-.22-1.4-.43-2.12-.66-.91-.27-1.82-.55-2.76-.84-.45-.14-.45-.14-2.74-.84C279 259 279 259 277 259l-2 8h-2c-1.07-2.73-1.08-3.79 0-6.58.47-.88.95-1.76 1.44-2.67.47-.89.94-1.78 1.43-2.7.37-.68.75-1.35 1.13-2.05"/><path fill="#0d0d19" d="M460.188 99.438c.57.03.57.03 3.46.16 2.79.13 5.57.26 8.35.4v1c-1.98.17-1.98.17-12 1v1c-3.43.09-6.87.14-10.31.19-.49.01-.49.01-2.96.08-.47 0-.47 0-2.84.03-.86.01-1.73.03-2.62.04-2.72-.41-3.57-1.23-5.27-3.34 8.14-.98 16.01-.98 24.19-.56"/><path fill="#04040c" d="M440 398h3c.99 1.7 1.97 3.41 2.94 5.12.27.48.27.48 1.65 2.89 1.44 3.05 2.02 5.65 2.41 8.99-1.88-.12-1.88-.12-4-1-1.25-3.06-1.25-3.06-2-6h-2c-1.6-3.51-2.22-6.14-2-10"/><path fill="#a679dd" d="M336 329v7l5 1-3 7h-3c-1.75-2.31-1.75-2.31-3-5l1-3c-.94-2.19-.94-2.19-2-4 2.75-3 2.75-3 5-3"/><path fill="#080b17" d="m38 100 3 1c-3.04 4.26-6.48 7.39-11 10h-2c-.27.62-.54 1.24-.81 1.88C26 115 26 115 23 117c-2.69.12-2.69.12-5 0l3-2c1.67-1.66 3.34-3.33 5-5 2-1.84 4.05-3.61 6.12-5.38.53-.46 1.05-.92 1.59-1.4 1.55-1.31 1.55-1.31 4.29-3.22"/><path fill="#050d1d" d="M44 57c.33.16.33.16 2 1 .43 2.64.43 2.64.67 6.12.09 1.24.17 2.49.27 3.77.08 1.32.16 2.63.25 3.99.09 1.3.19 2.61.28 3.95.66 9.77.66 9.77-.47 13.17l-3-1z"/><path fill="#586ba9" d="M258 212h3c.09 3.44.14 6.87.19 10.31.02.98.05 1.96.07 2.96l.03 2.84c.02.87.03 1.73.05 2.62C261 233 261 233 258 236z"/><path fill="#d172fe" d="M391 323c3.32.01 5.99 2.68 6 5a6.005 6.005 0 0 1-6 6c-2.77-.01-4.99-2.23-5-6a5 5 0 0 1 5-5"/><path fill="#167cd3" d="M228 344c2.21.01 3.99 1.79 4 4-.01 2.21-1.79 4-4 4s-3.99-1.79-4-4a4.01 4.01 0 0 1 4-4"/><path fill="#1b1522" d="M377 292c2.74 1.37 2.92 2.8 4.06 5.63.38.95.77 1.91 1.17 2.89l1.21 3.04c.39.98.79 1.96 1.19 2.97 2.2 5.46 4.33 10.95 6.37 16.47-3-1-3-1-4.35-3.44-.45-1.06-.89-2.11-1.35-3.2-.49-1.16-.97-2.31-1.47-3.49-.5-1.22-1-2.43-1.52-3.68-.51-1.2-1.02-2.41-1.55-3.65-3.76-9-3.76-9-3.76-13.54"/><path fill="#b077e0" d="m317 343 3 1v2l2 1c1.33.67 2.67 1.33 4 2v3c-3.94 1.31-6.12.24-10-1-.62-2.31-.62-2.31-1-5z"/><path fill="#a17edc" d="m341 318 4 3c-.64 5.14-1.68 9.99-3 15h-1c-.12-.8-.25-1.61-.38-2.44-.1-.42-.1-.42-.62-2.56l-2-1 1-5h2c-.19-.97-.37-1.94-.56-2.94-.15-1.01-.29-2.02-.44-3.06z"/><path fill="#0f0c16" d="M584 563h1c.08 1.44.14 2.87.19 4.31.01.4.01.4.1 2.43C585 572 585 572 582 575l-14-7 1-3c4.97 1.49 9.42 3.6 14 6z"/><path fill="#13121f" d="M336 359c2 3 2 3 1.9 5.06-1.5 6.82-3.57 13.36-5.9 19.94h-2c1.33-8.55 3.51-16.72 6-25"/><path fill="#07050c" d="M566 278h3c-.6 5.39-.6 5.39-2.19 7.81-2.5 1.64-4.87 1.86-7.81 2.19.47-4.25 2.96-6.19 6-9z"/><path fill="#1a1421" d="M388 259c1.63.11 3.25.24 4.88.38.9.06 1.8.13 2.74.21C398 260 398 260 400 262c.14 2.58.19 5.05.12 7.62 0 .71-.01 1.42-.02 2.15-.03 1.74-.06 3.49-.1 5.23h-2l-1-14-10-1z"/><path fill="#a290dc" d="M412 402c1.91 3.21 2.22 5.54 2.12 9.25-.01.89-.03 1.78-.05 2.7-.01.34-.01.34-.07 2.05l-4 1c-.06-.76-.12-1.52-.18-2.3-.09-.99-.17-1.99-.26-3.01-.08-.99-.16-1.97-.24-2.99C409 406 409 406 408 403z"/><path fill="#2082d7" d="m215 376 2 2-3 6h-10v-4c1.07-.1 2.15-.21 3.25-.31 3.61-.66 5.11-1.26 7.75-3.69"/><path fill="#0a1020" d="M627 365h1v17h-2l1 9h-2v-23h2z"/><path fill="#d172fe" d="M268 247h2l4 7c-.99.82-.99.82-6 5-2.09-3.39-2.34-6.05-2-10z"/><path fill="#0a0f1e" d="m188 19 16 3v3l3 1c-2.79-.31-5.58-.62-8.38-.94-.39-.04-.39-.04-2.4-.26-5.99-.69-5.99-.69-8.22-1.8z"/><path fill="#a69add" d="m393 344 3 1c.1 6.15.1 6.15 0 8l-1 1c-.04 1.67-.04 3.33 0 5-2.65-3.13-4.18-5.96-5-10 1.38-2.88 1.38-2.88 3-5"/><path fill="#b263e4" d="m543 301 2 1c-5.43 5.76-11.59 11-19 14l-2-1z"/><path fill="#0a0f1f" d="M326 333c2.74 2.66 5.24 5.28 7.56 8.31.81.89 1.61 1.78 2.44 2.69h4l-1 4c-3.47-.56-4.88-1.59-7.06-4.31-.51-.63-1.02-1.26-1.55-1.91-.23-.3-.23-.3-1.39-1.78-.62-.74-1.24-1.49-1.88-2.25C326 336 326 336 326 333"/><path fill="#a77fdd" d="M379 333c2.21.01 3.99 1.79 4 4-.01 2.21-1.79 4-4 4s-3.99-1.79-4-4a4.01 4.01 0 0 1 4-4"/><path fill="#100e19" d="m370 287 3 1 1 9h-2l-1-4c-4.88 3.75-4.88 3.75-6 6h-2c.58-3.89 2.5-6.05 5-9z"/><path fill="#a19cdc" d="M369 394c3.27.56 4.83 1.5 7 4l-1 3c-.38-.03-.38-.03-2.31-.19-2.69.19-2.69.19-4.5 1.69-.39.5-.79.99-1.19 1.5.88-7.75.88-7.75 2-10"/><path fill="#191421" d="M369 390c1.68.97 3.35 1.97 5 3v1h-5c-.18.69-.36 1.37-.55 2.08-.25.9-.5 1.8-.76 2.73-.25.9-.49 1.79-.74 2.71-.97 2.53-1.9 3.75-3.95 5.48.42-6.49 2.91-11.33 6-17"/><path fill="#091020" d="M320 338c2.36 1.97 4.69 3.97 7 6q.885.765 1.8 1.56c4.11 3.78 4.11 3.78 4.58 7.32-.13.7-.25 1.4-.38 2.12h-2c-.52-1.01-1.03-2.02-1.56-3.06-2.13-3.79-4.84-6.47-8.05-9.36C320 341 320 341 320 338"/><path fill="#191421" d="M363 383h1c.81 7.12-2.07 12.62-5 19l-6-1c.78-.52 1.56-1.04 2.36-1.58 3.18-2.91 3.8-4.98 4.89-9.11 1.7-6.26 1.7-6.26 2.75-7.31"/><path fill="#0e1121" d="m624 299 3 1v9h-2v16h-1z"/><path fill="#000106" d="M421 291c.5.33.5.33 3 2 .29 2.6.29 2.6.19 5.62-.03 1.01-.06 2.01-.08 3.04-.04.77-.07 1.55-.11 2.34h-3c-1.25-2.5-1.13-4.27-1.12-7.06-.01-.9-.01-1.8-.01-2.73C420 292 420 292 421 291"/><path fill="#060e1d" d="M21 220h1c.82 3.59 1.16 6.95 1.19 10.62.01.95.03 1.89.04 2.86C23 236 23 236 21 239c-1.07-3.21-1.13-5.57-1.12-8.94-.01-1.04-.01-2.08-.01-3.15.11-2.49.41-4.54 1.13-6.91"/><path fill="#1c2133" d="M308 263c2.21.01 3.99 1.79 4 4-.01 2.21-1.79 4-4 4s-3.99-1.79-4-4a4.01 4.01 0 0 1 4-4"/><path fill="#167cd3" d="M20 193h3c.19 1.48.38 2.96.56 4.44.11.82.21 1.64.32 2.49L24 202c-1 1-1 1-3.56 1.06L18 203l-1 3v-5h2l1-3h2z"/><path fill="#161321" d="m122 381-1 3c-1.9.03-3.79.05-5.69.06-.53.01-.53.01-3.2.04-2.83-.09-5.35-.45-8.11-1.1v-1c6.05-.9 11.89-1.11 18-1"/><path fill="#ad77df" d="M315 312c4.29.48 6.27 1.66 9 5v2c-.76-.17-1.53-.33-2.31-.5-2.69-.5-2.69-.5-5.69-.5l-2-1z"/><path fill="#d172fe" d="M402 422h13v2c-4.68 2.49-7.94 1.86-13 1z"/><path fill="#ae9ddf" d="M350 341c1.11 3.33.84 5.62 0 9h-2v2h-3l2-10z"/><path fill="#03050d" d="M427 336h2c1.29 1.53 1.29 1.53 2.62 3.5.45.65.9 1.3 1.36 1.97q.495.75 1.02 1.53c-2.89.96-5 1-8 1-.04-2.33-.04-4.67 0-7z"/><path fill="#020209" d="M378 119h14l1 3h-14z"/><path fill="#01030b" d="M122 7c9.41.96 9.41.96 14 2v2q-2.655.045-5.31.06c-.99.01-1.97.03-2.99.04C125 11 125 11 122 10z"/><path fill="#8292d3" d="M310 284c1.3 3.01.96 4.09-.21 7.23l-1.73 3.52c-.56 1.17-1.13 2.34-1.71 3.55-.45.89-.89 1.78-1.35 2.7-1.15-3.46-.8-4.53.25-7.94.25-.85.51-1.71.77-2.59 1.01-2.54 2.24-4.37 3.98-6.47"/><path fill="#0a1020" d="M102 6h2c.38 6.16-.04 10.53-3 16l-2 1c.35-.78.7-1.57 1.06-2.38.31-.86.62-1.73.94-2.62l-1-2c.34-2.38.34-2.38.94-5.12.19-.92.39-1.83.59-2.76.15-.7.31-1.4.47-2.12"/></svg>