<svg xmlns="http://www.w3.org/2000/svg" width="158" height="134" viewBox="0 0 158 134"><path fill="#050403" d="M49 0c.16.33.16.33 1 2 1.24-.21 2.48-.41 3.75-.62C61.77.47 69.46 2.37 77 5c1.06.35 2.12.71 3.21 1.07C83.14 7.05 86.07 8.02 89 9c-.22.58-.43 1.16-.66 1.76C86.7 15.37 85.76 19.05 86 24c-.16.49-.16.49-1 3 .28 2.01.6 4.01 1 6 3.82-2.09 6.99-3.83 10-7h2c.27-.56.54-1.11.81-1.69 1.29-2.51 2.72-4.9 4.19-7.31l6 1v2c.74.25 1.48.5 2.25.75 6.85 3.11 10.33 9.7 12.94 16.44C128 49.34 128.41 62.99 124 75c-.27.76-.54 1.52-.81 2.3-2.36 5.92-5.94 10.99-9.58 16.2C112 96 112 96 112 98c-1.4.95-2.8 1.9-4.23 2.8-1.85 1.25-3.43 2.64-5.08 4.14C89.29 116.44 71.94 117.25 55 116c-4.21-.58-8-1.58-12-3-1.21-.41-2.42-.83-3.67-1.25C27.98 107.67 16.61 101.48 10 91c-1.66-3.92-2.84-7.91-4-12-.53-1.5-1.08-3-1.62-4.5C-.03 61.15-.74 47.97 5 35c1.76-3.2 3.83-6.07 6-9 .63-.97 1.25-1.94 1.89-2.94C18.73 14.4 24.78 10.48 34 6c1.03-.53 2.06-1.06 3.12-1.61 2.57-1.24 5.04-2.21 7.76-3.08.78-.25 1.56-.5 2.36-.76C47.82.37 48.4.19 49 0"/><path fill="#289400" d="M77.188 23.813c4.35 3.39 5.32 8.01 6.81 13.19 1.26-.13 2.52-.25 3.81-.38.71-.07 1.42-.14 2.15-.21 2.04-.41 2.04-.41 5.04-2.41 6.9 9.79 5.79 20.5 3.81 32.02-2.39 8.79-10.21 14.56-17.24 19.79-10.81 5.01-24.33 4.53-35.57 1.19-.69-.19-1.38-.38-2.1-.58-1.63-.46-3.27-.94-4.9-1.42v-2c-.7-.23-1.4-.46-2.12-.69-4.48-2.04-7.9-4.49-10.25-8.88-2.08-11.42-.23-21.93 5.9-31.92 1.42-1.92 2.91-3.71 4.47-5.51.64-.93 1.28-1.86 1.94-2.81 7.65-8.12 27.8-12.04 38.25-9.38"/><path fill="#050403" d="M99 56h1c.13.61.27 1.23.4 1.86l.54 2.45c.08.4.08.4.52 2.43C102 65 102 65 103 68c.33.16.33.16 2 1v3c.64.27 1.28.54 1.94.81C109 74 109 74 110 77h-3c-.33-.5-.33-.5-2-3h-2l-1 4c7.55.13 7.55.13 10.25-.62 2.45-.53 3.67.36 5.75 1.62v3h2c-.16-.5-.16-.5-1-3 .5.16.5.16 3 1-2.39 4.48-4.79 8.84-7.81 12.94C112 96 112 96 112 98c-1.4.95-2.8 1.9-4.23 2.8-1.85 1.25-3.43 2.64-5.08 4.14C89.29 116.44 71.94 117.25 55 116c-9.3-1.28-18.54-4.99-27-9l-1-2c1.16-.16 1.16-.16 7-1l-1-2h5c1.24-2.98 2.24-5.86 3-9 1.78-5.56 1.78-5.56 3-8l2.12.94c9.19 3.39 23.7 4.05 32.88.06 7.66-4.6 16.66-10.86 19-20 .44-3.33.75-6.65 1-10"/><path fill="#040302" d="M79 8c6.62-.12 6.62-.12 10 1-.22.58-.43 1.16-.66 1.76C86.7 15.37 85.76 19.05 86 24l-1 3c.28 2.01.6 4.01 1 6 3.82-2.09 6.99-3.83 10-7h2c.27-.56.54-1.11.81-1.69 1.29-2.51 2.72-4.9 4.19-7.31l6 1v2c.74.25 1.48.49 2.25.75 6.85 3.11 10.33 9.7 12.94 16.44 4.06 12.96 4.29 27.52-1.17 40.06C122 79 122 79 120 80v2h-2v-3c-2.33-.38-4.66-.71-7-1l-1 1c-5.53.24-5.53.24-8-1l1-5 4 2v2h3c-.39-.41-.77-.83-1.17-1.25-.26-.29-.26-.29-1.58-1.75-.51-.56-1.02-1.11-1.55-1.69-4.61-6.26-6.26-11.57-6.26-19.31-.04-6.38-.91-11.11-3.44-17-3 0-3 0-4.88 1-2.52 1.19-4.36 1.07-7.12 1-.3-.84-.61-1.69-.92-2.55l-1.27-3.33c-.4-1.09-.81-2.18-1.23-3.3C79 26 79 26 76.52 24.63 69.61 22.9 62.83 24.62 56 26v-2h3l-1-3-3-1 1-3h4v-5c.21.65.42 1.29.63 1.96C62 16 62 16 64.71 16.54c1.07.03 2.13.06 3.23.08 5.77.19 5.77.19 9.06 2.38v2h3l1-4h2v-2l-4-1 3-1v-3l-3-1z"/><path fill="#030202" d="m73 4 6 1.62L84 7l-4 2 2 1v3l-2 1 3 1v2c-.33.16-.33.16-2 1-.16.49-.16.49-1 3h-3v-2c-3.13-1.04-5.78-1.31-9.06-1.56-1.07-.09-2.13-.17-3.23-.26-1.56-.1-3.14-.18-4.71-.18h-4v3l4 1c-.16.49-.16.49-1 3h-3v2c-1.56.65-3.12 1.3-4.69 1.94-.87.36-1.74.72-2.63 1.09C46 30 46 30 43.29 30.38c-.75.2-1.51.41-2.29.62-.68 1.32-1.35 2.66-2 4-2.38 1.27-2.38 1.27-5.12 2.25-.92.34-1.83.67-2.76 1.02-.7.24-1.4.48-2.12.73.16-.99.16-.99 1-6h-2c-.12-.45-.12-.45-.75-2.75C26 27 26 27 23.81 24.88c-.6-.62-1.19-1.24-1.81-1.88.05-1.88.05-1.88 1-4 2.4-1.96 2.4-1.96 5.38-3.81.97-.63 1.95-1.25 2.96-1.9C34 12 34 12 37 13c1.19 2.56 1.19 2.56 2 5 2-3 2-3 2-6l2-3h3V7l-3-1c7.28-8.31 20.73-4.62 30-2"/><path fill="#090506" d="M3 41c7.35-.2 13.95-.21 21 2v3l3 1c-.33.16-.33.16-2 1a98 98 0 0 0-2 6l2 1-3.25.88c-4.2 1.25-7.12 2.7-10.75 5.12l-3 1c.22.77.43 1.54.66 2.34.27 1 .55 2 .84 3.04.28.99.56 1.99.84 3.02C11 73 11 73 11 75c.5-.16.5-.16 3-1v2l9 1c.27.8.54 1.61.81 2.44.39.84.79 1.69 1.19 2.56.49.16.49.16 3 1-.61 3.99-2.71 6.74-5 10-2.62-.38-3.79-.79-5.67-2.71-.5-.69-1-1.39-1.52-2.1-.51-.69-1.02-1.38-1.54-2.08C13 84 12.26 82.45 12 80l2-2-6-1 1 6c-3.98-4.21-5.12-7.99-6.25-13.5-.08-.4-.08-.4-.51-2.41C.45 58.09-.23 49.72 3 41"/><path fill="#7ef551" d="M68.504 47.055c6.87 3.55 6.87 3.55 8.5 7.95.42 4.44.63 6.83-1.5 10.75-5.69 5.11-10.68 6.71-18.3 6.48-2.2-.23-2.2-.23-5.2-1.23-3.05-3.93-5.32-8.24-5.5-13.25.52-3.93.92-5.77 3.5-8.75 6.25-4.75 11.28-4.99 18.5-1.95"/><path fill="#040702" d="M76 43c5.03 4.04 6.7 7.44 7.44 13.75-.17 5.82-3.08 10.58-6.86 14.86-6.37 5.82-14.01 6.01-22.25 5.91-4.44-.69-6.39-2.2-9.13-5.66-3.26-5.05-4.31-9.89-3.2-15.86 6.86-14.35 19.42-18.28 34-13m-28 8c-1.59 4.77-1.88 8.83.01 13.49 3.35 6.3 3.35 6.3 6.99 7.51 6.89.75 12.28.02 18-4 2.44-2.2 3.76-3.65 4.34-6.92.21-4.45-.3-7.66-3.34-11.08-9.13-6.34-17.7-6.78-26 1"/><path fill="#060604" d="M43 85c.76.2 1.52.41 2.31.62C51.56 87.25 57.56 88.46 64 89v1h-5l-.18 2.41c-.84 10.53-.84 10.53-1.82 15.59h2v-2l2 1c-.49 1.11-.99 2.23-1.5 3.38C58 114 58 114 58 116c-7.26-.48-13.25-2.27-20-4.94-.95-.36-1.91-.72-2.89-1.09-6.98-2.7-6.98-2.7-8.11-4.97 1.16-.16 1.16-.16 7-1l-1-2h5c1.24-2.98 2.24-5.86 3-9l1.06-3.12C43 87 43 87 43 85"/><path fill="#0b0605" d="m87 92 2 9 4.38-.31c.81-.06 1.62-.12 2.46-.18C98 100 98 100 100 97c3.62-.19 3.62-.19 7 0l1-2 4 1v2c-1.4.95-2.8 1.9-4.23 2.8-1.85 1.25-3.43 2.64-5.08 4.14C94.65 111.92 85.72 115.55 75 115c-.42-1.43-.81-2.87-1.19-4.31l-.67-2.43C73 106 73 106 74.32 104.21 76 103 76 103 78 103c-.01-.63-.02-1.25-.04-1.9 0-.82-.01-1.63-.02-2.48-.01-.81-.03-1.62-.04-2.46C78 94 78 94 79 92c3.29-1.1 4.71-.8 8 0"/><path fill="#010001" d="M73 89v2h-2v2h-4l1 2c.65-.09.65-.09 3.94-.56 2.21-.32 2.21-.32 4.06-.44 1 1 1 1 1.25 4.81-.02 3.91-.02 3.91-1.81 6.13-2.43 3.49-1.1 6.99-.44 11.06H58v-2l-2-1h2l2-6-1 1h-2c.14-2.06.29-4.13.44-6.19.08-1.15.16-2.29.24-3.48.27-2.85.7-5.54 1.32-8.33 4.67-1.21 9.21-1.09 14-1"/><path fill="#070505" d="m117 38 4 1v2h2l1-3c2.22 8.28 2.6 16.48 3 25l-5-5 .06 3.44C122 65 122 65 121 66c-2.33.04-4.67.04-7 0l-1-5h-4v-2l-2-1c-.08-1.6-.14-3.21-.19-4.81-.03-.9-.07-1.79-.1-2.71.29-2.48.29-2.48 1.68-4.3C110 45 110 45 112 45v-2c-.64-.12-1.28-.25-1.94-.38-.68-.2-1.36-.41-2.06-.62l-1-2 10 2z"/><path fill="#171409" d="M149 53h2c3.79 11.36-.81 24.99-5.38 35.5-.27.65-.55 1.29-.84 1.96-2.11 4.6-4.64 8.57-7.78 12.54h-2q-.405 1.14-.81 2.31c-1.14 2.58-2 3.96-4.19 5.69h-2c-.2.57-.4 1.14-.61 1.72-1.93 3.16-4.63 4.79-7.7 6.72-.62.39-1.24.78-1.88 1.19-5.15 3.18-10.34 5.41-16.07 7.4-2.74.97-2.74.97-4.97 2.12-1.77.85-1.77.85-4.02.47-.58-.2-1.16-.41-1.75-.62l1-3c1.64-.77 1.64-.77 3.81-1.38 8.39-2.56 16.4-5.72 23.67-10.7C121 114 121 114 123 114v-2c1.41-1.17 2.82-2.33 4.23-3.49 12.72-10.86 19.8-27.48 21.16-43.87.28-3.88.47-7.75.61-11.64"/><path fill="#0d0405" d="M99 76c.35.17.35.17 2.12 1 3.81 1.32 7.12 1.52 11 .38 2.53-.51 3.73.31 5.88 1.62v3h2l-1-3 3 1c-5 9.59-5 9.59-9 13l-3-2c-2.69-.12-2.69-.12-5 0l-1 2v-3c-1.42-4.26-4.57-6.32-8-9z"/><path fill="#091105" d="M76 43c-.32.14-.32.14-1.94.88C72 45 72 45 71 47l2 1v2c-.33-.14-.33-.14-2-.88-10.79-4.04-10.79-4.04-16-2.12-5.78 3.33-5.78 3.33-7 7-.26 5.25.02 9.05 2 14l-5-1-1 3c-2.35-4.56-2.93-8.99-2-14 7.13-14.91 19.09-17.5 34-13"/><path fill="#f30028" d="M37 13c.95 2.94.95 2.94 1.69 6.56.25 1.2.5 2.4.76 3.63.18.93.36 1.86.55 2.81-5.15 4.91-5.15 4.91-8.44 5.25C27.69 29.36 24.4 26.6 22 23c-.03-1.99-.03-1.99 1-4 2.4-1.96 2.4-1.96 5.38-3.81.97-.63 1.95-1.25 2.96-1.9C34 12 34 12 37 13"/><path d="M22 55c1.32 3.62 2 6.1 2 10l-4-1v3h5v3c-1.58.65-3.17 1.29-4.75 1.94-.88.36-1.76.72-2.67 1.09-2.19.82-4.3 1.46-6.58 1.97l-1.5-5.31c-.28-.99-.56-1.97-.84-2.99C8 64 8 64 8 61l5-2v-2c1.31-.33 2.62-.67 3.94-1 .36-.09.36-.09 2.21-.56C21 55 21 55 22 55"/><path fill="#110508" d="m76 5 8 2-4 2 2 1v3c-.33.16-.33.16-2 1l3 1v2c-.33.16-.33.16-2 1l-1 3h-3v-2c-3.16-1.05-5.87-1.31-9.19-1.56-1.08-.09-2.17-.17-3.29-.26-.83-.06-1.66-.12-2.52-.18-1.5-3.37-2-5.2-2-9 5.53-.19 9.76.25 15 2V9z"/><path fill="#f50029" d="M47 94c1.48.14 2.96.29 4.44.44l2.49.24C56 95 56 95 57 96c-.09 2.19-.25 4.38-.44 6.56-.1 1.2-.2 2.4-.31 3.63-.08.93-.16 1.86-.25 2.81-3.63.15-6.39-.28-9.81-1.5-.79-.28-1.58-.56-2.4-.84-.59-.22-1.18-.44-1.79-.66.58-4.75 2.55-7.97 5-12"/><path fill="#f30029" d="M87 92c1.52 3.93 2.91 7.65 3.19 11.88-1.71 3.06-3.96 3.61-7.18 4.74C81 109 81 109 78 108c-.03-2.29-.05-4.58-.06-6.88-.01-1.27-.03-2.55-.04-3.86C78 94 78 94 79 92c3.29-1.1 4.71-.8 8 0"/><path fill="#f20028" d="M110.215 46.867c.9 0 1.8.01 2.72.01.9 0 1.79-.01 2.72-.01 2.35.13 2.35.13 4.35 1.13v12c-3.59 0-5.48-.34-8.75-1.5-.8-.28-1.6-.55-2.43-.84-.3-.11-.3-.11-1.82-.66-.03-1.48-.05-2.96-.07-4.43l-.03-2.5c.13-2.9.42-3.03 3.31-3.2"/><path fill="#f50029" d="m24 79 1 3 3 1c-.61 3.99-2.71 6.74-5 10-3.72-.54-5.09-1.84-7.31-4.81-.53-.69-1.07-1.38-1.62-2.08C13 84 13 84 13.19 81.82 14 80 14 80 16.25 78.69c3.01-.76 4.79-.53 7.75.31"/><path fill="#f00028" d="M22 50c.04 1.67.04 3.33 0 5-1 1-1 1-4.38 1.1-1.39-.01-2.79-.02-4.18-.04-.36 0-.36 0-2.16-.01-1.76-.01-3.52-.03-5.28-.05v-8c4.69-2.35 11.2.53 16 2"/><path fill="#161309" d="M24 113c2 2 2 2 3.31 4.88 2.57 4.75 5.34 6.67 10.46 8.39 1.34.34 2.69.66 4.04.98.7.17 1.39.35 2.1.52 1.7.42 3.39.83 5.09 1.23v4c-8.23.43-14.2-1.57-20.42-7.11-2.9-3.47-4.22-7.63-5.58-11.89z"/><path fill="#0b1108" d="M61.063 51.125c2.94.88 2.94.88 5.94 2.88.37 3 .37 3 0 6-4.07 2.71-6.17 2.3-11 2-2-2-2-2-2.38-4.38.38-2.62.38-2.62 2-5 2.38-1.62 2.38-1.62 5.44-1.5"/><path fill="#0b0506" d="M46 22c-.31.56-.62 1.11-.94 1.69-1.12 2.44-1.62 4.67-2.06 7.31h-2c-.11.31-.11.31-.68 1.86-1.75 2.83-3.35 3.28-6.44 4.39-.92.34-1.83.67-2.76 1.02-.7.24-1.4.48-2.12.73l1-6h-2l1-4c.72.25 1.44.5 2.19.75C34 30 34 30 36.75 28.19 39 26 39 26 40 24c2.15-1.25 3.5-2 6-2"/><path fill="#f10029" d="M99 76c5.09 1.59 8.87 4.74 13 8-1.45 4.7-1.45 4.7-3.75 5.94-2.25.06-2.25.06-4.83-1.81-.88-.85-1.76-1.69-2.67-2.57-.89-.84-1.78-1.69-2.7-2.56-.68-.66-1.35-1.32-2.05-2z"/><path fill="#f40029" d="M60 8c5.67-.29 8.99-.01 14 3l-1 5-11 1c-2-5-2-5-2-9"/><path fill="#0f0607" d="m126 54 1 9-5-5 .06 3.44C122 65 122 65 121 66c-2.33.04-4.67.04-7 0l-1-5h-4v-2l-2-1c1.44.14 2.88.29 4.31.44.8.08 1.6.16 2.43.24C116 59 116 59 119 60l1-5c2.08-.55 3.84-1 6-1"/><path fill="#14180d" d="M50 30c3.32.01 5.99 2.68 6 5a6.005 6.005 0 0 1-6 6c-2.77-.01-4.99-2.23-5-6a5 5 0 0 1 5-5"/><path fill="#150f0d" d="M56 103h1v5h2v-2l2 1c-.5 1.11-.99 2.23-1.5 3.38C58 114 58 114 58 116c-6.2-.42-11.27-1.6-17-4l3-3 6 2v2l4-1v-3h2z"/><path fill="#020202" d="M59 3c1.92-.05 3.83-.09 5.75-.12.53-.02.53-.02 3.23-.08 2.94.2 4.54.67 7.02 2.2v4l2 1c-.33.16-.33.16-2 1-2.12-.94-2.12-.94-4-2V7H60z"/><path fill="#140c08" d="m60 12 .88 1.88C62 16 62 16 64 18h-3v3c1.81.62 1.81.62 4 1l3-2v2h5v1l-17 3v-2h3l-1-3-3-1 1-3h4z"/><path fill="#170c0e" d="M111 77c2.57.39 4.67.84 7 2v3h2l-1-3 3 1-2 4c-.58-.21-1.16-.41-1.75-.62-2.77-.47-3.9.19-6.25 1.62l-6-5 1.94-.94C110 78 110 78 111 77"/><path fill="#1a060a" d="M4 74h10v2l9 1-1 2c-2 .35-4 .69-6 1-2.38 1.06-2.38 1.06-4 2l2-4c-.99-.17-.99-.17-6-1l1 6c-2.72-3.15-3.97-4.87-5-9"/><path fill="#140b0d" d="M78 100h1v14l2 1h-6c-.42-1.43-.81-2.87-1.19-4.31-.22-.8-.44-1.6-.67-2.43C73 106 73 106 74.32 104.21 76 103 76 103 78 103z"/><path fill="#160205" d="M22 43h2v3l3 1c-.33.16-.33.16-2 1a98 98 0 0 0-2 6l2 1-3 1-1-6c-1.48-.33-1.48-.33-9-2l2-1v-2h2v2l5-1z"/><path fill="#030201" d="M103 17c.99.16.99.16 6 1l1 4-2.88.88C104 24 104 24 102 26h-3c.65-3.49 2.1-6.03 4-9"/><path fill="#19160a" d="m156 95 2 2c-3.7 9.08-3.7 9.08-6.89 11.33-1.92.79-1.92.79-5.11 1.67l-1-3c.35-.15.35-.15 2.12-.94 4.09-2.93 6.29-6.81 8.88-11.06"/><path fill="#010101" d="m23.563 72.938 3.44.06v3l1.94.82c2.06 1.18 2.06 1.18 3.06 4.18h-2v-2l-11-2c0-4.34.12-3.98 4.56-4.06"/><path fill="#020202" d="M39 107c1.92.11 3.83.24 5.75.38.53.03.53.03 3.23.21 2.82.38 4.6.97 7.02 2.41l-1 3h-4v-2l-5-1v1h-5z"/><path fill="#090806" d="M67 109v3l-3 3h11v1H58c3.5-7 3.5-7 9-7"/><path fill="#0f1d09" d="M51 44c.69 1.81.69 1.81 1 4-.46.42-.93.85-1.41 1.28-2.16 2.34-2.3 4.29-2.78 7.41-.08.49-.08.49-.48 3.01-.11.76-.22 1.52-.33 2.3l-3 1 2-9h-2c1.39-4.43 3.61-6.87 7-10"/><path fill="#110f0f" d="M93 103c3.49-.1 6.59.22 10 1-2.99 3.34-5.93 5.15-10 7-1.12-5.75-1.12-5.75 0-8"/><path fill="#210c0f" d="m41 103 1 3 8 1v1H40v3l-5-1c.75-2.94.75-2.94 2-6 2.12-.88 2.12-.88 4-1"/><path fill="#200c0e" d="m126 54 1 9-5-5-1 4h-6l-1-3c.83.16.83.16 5 1l1-5c2.08-.55 3.84-1 6-1"/><path fill="#2b240f" d="M149 53h2c2.04 6.13 1.04 12.77 0 19-1.52-.99-1.52-.99-3-3-.06-2.83.04-5.39.31-8.19.06-.75.12-1.5.19-2.27.15-1.85.32-3.69.5-5.54"/><path fill="#20060a" d="M56 89h8v1h-5l-1 12h-1l-1-6-7-1v-1c1.16-.17 1.16-.17 7-1z"/><path fill="#030702" d="M65 41v1l-5 1v2c-1.48.49-1.48.49-9 3 1.43-4.54 1.43-4.54 3.62-6.31 3.52-1.02 6.73-.81 10.38-.69"/><path fill="#493e1e" d="M147 43h2l1 5h-2z"/></svg>