<svg xmlns="http://www.w3.org/2000/svg" width="608" height="643" viewBox="0 0 608 643"><path fill="#f6f6f6" d="M501.125 1.875c.51 0 .51 0 3.09-.01 9.73.01 18.3.99 27.6 3.89.88.27 1.75.54 2.66.82 13 4.08 23.47 9.58 34.53 17.42.53.38.53.38 3.22 2.29 12.16 8.75 12.16 8.75 16.46 13.78.58.67 1.17 1.34 1.76 2.03 1.56 1.91 1.56 1.91 3.56 4.9-.36 2.29-.36 2.29-1 5-.1 2.15-.19 4.3-.26 6.44-.5 7.81-2.87 14.35-5.74 21.56-2.21 6.07-3.9 12.26-5.52 18.5-.88 3.34-1.82 6.63-2.98 9.88-1.52 4.36-2.57 8.82-3.63 13.31-.17.73-.34 1.45-.52 2.2-.93 4.02-1.73 8.03-2.35 12.11 1.05-.06 2.1-.13 3.18-.21 13.75-.64 13.75-.64 19.85 4.3 11.61 11.31 11.61 11.31 12.21 19.07 0 .57 0 .57-.01 3.5-.01 1.27-.01 2.54-.01 3.85-.01 1.32-.02 2.64-.04 3.99v4c-.02 5.32-.05 10.3-1.18 15.5-.09 1.24-.17 2.48-.26 3.76-.49 4.76-1.77 9.22-3.12 13.81-.21.71-.42 1.41-.63 2.14-1.04 3.42-2.16 6.72-3.53 10.01-4.11 10.84-3.81 22.85-3.94 34.27-.19 7.74-1.38 14.59-3.52 22.01l-1.29 4.86c-.4 1.45-.81 2.89-1.21 4.33-.2.75-.4 1.5-.61 2.27-.54 1.88-1.21 3.72-1.89 5.54-1 .33-1.99.67-3 1 .33 1 .65 1.99 1 3-1.9 3.93-4.5 7.44-7 11-.65.92-1.29 1.84-1.95 2.79-5.14 6.8-10.97 11.43-17.88 16.25-3.81 2.66-7.42 5.52-11.04 8.42-6.67 5.34-12.91 9.86-20.71 13.38-3.38 1.62-5.72 3.59-8.42 6.16-.73.6-1.45 1.2-2.19 1.82-3.99 4.81-5.1 10.02-4.81 16.18-.33 1-.67 1.99-1 3-.64 13.13 1.12 26.05 3 39 .14 1.01.28 2.02.43 3.06.87 5.43 2.27 10.23 4.43 15.28 1.29 3.02 2.43 6.09 3.57 9.16 1.85 4.83 3.94 9.4 6.32 13.98 1.38 2.79 2.53 5.63 3.68 8.52 2.34 5.72 5.29 10.78 8.57 16 2.38 3.98 4.71 7.98 7 12 .23.42.23.42 1.44 2.53 3.09 5.72 4.67 11.33 5.98 17.69.58 2.79.58 2.79 1.58 5.78.5 4.86.57 8.81-1.57 13.26-3.78 4.26-7.48 7.79-12.62 10.31-3.4 1.73-4.85 3.17-6.81 6.43-.94 3.42-1.74 6.71.09 9.93.91 2.07.91 2.07.33 4.56-.37.89-.73 1.78-1.11 2.7-.39.97-.77 1.94-1.17 2.94-.19.47-.19.47-1.14 2.87-.52 1.56-1.02 3.13-1.5 4.69-3.33 9.98-8.91 19.01-16.5 26.31l-2.26 2.32c-10.38 10.15-21.27 18.41-36.43 19.18-11.87-.71-22.42-8.91-30.13-17.43-4.8-5.89-9.57-11.88-12.18-19.07-31.18-1.16-60.06 6.18-87.52 20.39-11.59 5.97-23.24 10.2-35.79 13.8-3.94 1.19-7.78 2.62-11.63 4.07-6.5 2.39-13.02 4.02-19.83 5.28-4.54.88-8.14 2.33-12.22 4.5-3.37 1.61-6.88 2.37-10.51 3.15-.71.17-1.42.33-2.15.5-7.5 1.69-14.79 2.46-22.48 2.31-3.72-.07-7.29-.1-10.97.55-11.68 1.84-22.63-3.67-31.99-10.03-1.91-1.52-1.91-1.52-3.85-4.26-2.8-3.06-5.36-3.39-9.33-4.19-6.13-.15-11.34 2.56-16.67 5.31l-1.85.94q-3.825 1.95-7.62 3.96c-12.87 6.76-27.74 7.15-41.55 3.23-6.99-2.34-13.3-6.77-17.68-12.73-3.98-8.08-4.82-15.11-4.68-24.09 0-1.07 0-2.14-.01-3.24.07-9.65.07-9.65 3.7-14.15 3.49-3.32 5.92-4.71 10.81-4.8 3.52.14 5.71.93 8.82 2.5 5.25.34 9.04-.01 14-2-.55-4.53-1.74-7.76-3.94-11.74-4.14-8.03-5.16-15.61-5.84-24.52-.15-1.8-.34-3.59-.58-5.37-1.81-13.75 5.61-23.33 12.6-34.61.58-.93 1.15-1.85 1.73-2.8 3.14-5.04 6.37-9.95 9.84-14.77 3.3-4.68 6.05-9.45 8.62-14.56.33-.65.66-1.31 1-1.98 3.09-6.35 4.69-11.96 4.5-19.09-1.42-3.89-4.49-5.41-7.87-7.49-.34-.22-.34-.22-2.07-1.33-3.67-2.35-7.39-4.54-11.18-6.67-8.75-5.19-16.6-12.33-21.34-21.39-1.32-2.4-2.74-4.61-4.28-6.88-3.16-4.7-6.11-9.5-9.01-14.36-.51-.86-1.03-1.73-1.56-2.62-1.55-2.6-3.09-5.21-4.62-7.82-.45-.75-.9-1.51-1.37-2.3-4.22-7.18-8.13-14.2-10.76-22.15-.9-2.63-2-5.09-3.19-7.61-2.3-4.94-4.29-9.97-6.25-15.06-2.78-7.24-5.75-14.3-9.06-21.32-4.47-9.53-8.62-19.13-12.5-28.92-4.3-10.82-8.74-21.58-14.06-31.95-2.39-4.66-4.27-9.35-5.96-14.31-.8-2.24-1.77-4.26-2.85-6.38-3.7-8.35-6.43-17.08-9.27-25.75-.5-1.54-1.01-3.07-1.53-4.6-1.41-4.15-2.69-8.26-3.7-12.52-.93-3.86-1.97-7.64-3.13-11.44-4.02-14.68-3.72-31.21 3.25-44.87 7.6-9 17.14-10.69 28.38-11.82 4.19-.26 6.7-.03 10.31 2.13.76.45 1.52.91 2.3 1.37.79.5 1.57.99 2.39 1.5.82.52 1.65 1.04 2.5 1.57 6.19 3.98 6.19 3.98 8.5 7.43.61.29 1.22.58 1.86.87 2.92 1.55 4.32 3.64 6.32 6.26 10.05 12.62 10.05 12.62 16.82 14.87-.28-.59-.56-1.18-.84-1.79-3.08-6.71-3.08-6.71-3.66-10.14-.17-.68-.33-1.36-.5-2.07l-1.85-.82c-2.81-1.53-3.58-3.2-5.09-5.99-2.24-4.11-4.68-6.96-8.06-10.19a457 457 0 0 1-3.82-3.81l-2.07-2.07c-6.3-6.3-6.3-6.3-8.29-8.3l-4.64-4.61c-10.33-10.42-17.06-21.77-17.68-36.89.42-9.58 4.42-17.14 10.5-24.32.45-.6.9-1.21 1.36-1.83 8.2-10.6 20.97-14.04 33.64-16.17 16.26-1.5 32.6 2.63 46 12v2c.59.29 1.18.57 1.8.86 8.63 4.5 14.34 13.23 19.53 21.2 1.98 2.31 3.4 2.91 6.26 3.87.93.32 1.87.64 2.83.97 1.02.32 2.03.65 3.08.98 1.05.34 2.1.68 3.19 1.04 23.05 7.26 46.54 13.68 70.02 4.66 4.1-1.56 8.22-2.68 12.48-3.7.76-.18 1.52-.37 2.3-.56 2.39-.59 4.79-1.17 7.19-1.75l9.45-2.31c.77-.19 1.53-.38 2.32-.57 4.59-1.14 9.09-2.45 13.59-3.9 5.23-1.66 10.12-2.48 15.58-2.85 11.18-1.02 19.19-2.75 28.4-9.45 8.78-6.34 17.37-9.78 28.14-11.02 12.5-1.52 24.04-4.74 35.77-9.25 8.3-3.1 16.74-5.41 25.31-7.59.67-.17 1.33-.34 2.01-.51 5.86-1.49 11.69-2.96 17.64-4 8.1-1.55 15.88-4.66 23.65-7.37 8.76-3.06 17.18-5.68 26.46-6.75.9-.1 1.81-.21 2.75-.32 6.79-.72 13.55-.83 20.37-.8"/><path fill="#050503" d="M501.125 1.875c.51 0 .51 0 3.09-.01 9.73.01 18.3.99 27.6 3.89.88.27 1.75.54 2.66.82 13 4.08 23.47 9.58 34.53 17.42.53.38.53.38 3.22 2.29 12.16 8.75 12.16 8.75 16.46 13.78.58.67 1.17 1.34 1.76 2.03 1.56 1.91 1.56 1.91 3.56 4.9-.36 2.29-.36 2.29-1 5-.1 2.15-.19 4.3-.26 6.44-.5 7.81-2.87 14.35-5.74 21.56-2.21 6.07-3.9 12.26-5.52 18.5-.88 3.34-1.82 6.63-2.98 9.88-1.52 4.36-2.57 8.82-3.63 13.31-.17.73-.34 1.45-.52 2.2-.93 4.02-1.73 8.03-2.35 12.11 1.05-.06 2.1-.13 3.18-.21 13.75-.64 13.75-.64 19.85 4.3 11.61 11.31 11.61 11.31 12.21 19.07 0 .57 0 .57-.01 3.5-.01 1.27-.01 2.54-.01 3.85-.01 1.32-.02 2.64-.04 3.99v4c-.02 5.32-.05 10.3-1.18 15.5-.09 1.24-.17 2.48-.26 3.76-.49 4.76-1.77 9.22-3.12 13.81-.21.71-.42 1.41-.63 2.14-1.04 3.42-2.16 6.72-3.53 10.01-4.11 10.84-3.81 22.85-3.94 34.27-.19 7.74-1.38 14.59-3.52 22.01l-1.29 4.86c-.4 1.45-.81 2.89-1.21 4.33-.2.75-.4 1.5-.61 2.27-.54 1.88-1.21 3.72-1.89 5.54-1 .33-1.99.67-3 1 .33 1 .65 1.99 1 3-1.9 3.93-4.5 7.44-7 11-.65.92-1.29 1.84-1.95 2.79-5.14 6.8-10.97 11.43-17.88 16.25-3.81 2.66-7.42 5.52-11.04 8.42-6.67 5.34-12.91 9.86-20.71 13.38-3.38 1.62-5.72 3.59-8.42 6.16-.73.6-1.45 1.2-2.19 1.82-3.99 4.81-5.1 10.02-4.81 16.18-.33 1-.67 1.99-1 3-.64 13.13 1.12 26.05 3 39 .14 1.01.28 2.02.43 3.06.87 5.43 2.27 10.23 4.43 15.28 1.29 3.02 2.43 6.09 3.57 9.16 1.85 4.83 3.94 9.4 6.32 13.98 1.38 2.79 2.53 5.63 3.68 8.52 2.34 5.72 5.29 10.78 8.57 16 2.38 3.98 4.71 7.98 7 12 .23.42.23.42 1.44 2.53 3.09 5.72 4.67 11.33 5.98 17.69.58 2.79.58 2.79 1.58 5.78.5 4.86.57 8.81-1.57 13.26-3.78 4.26-7.48 7.79-12.62 10.31-3.4 1.73-4.85 3.17-6.81 6.43-.94 3.42-1.74 6.71.09 9.93.91 2.07.91 2.07.33 4.56-.37.89-.73 1.78-1.11 2.7-.39.97-.77 1.94-1.17 2.94-.19.47-.19.47-1.14 2.87-.52 1.56-1.02 3.13-1.5 4.69-3.33 9.98-8.91 19.01-16.5 26.31l-2.26 2.32c-10.38 10.15-21.27 18.41-36.43 19.18-11.87-.71-22.42-8.91-30.13-17.43-4.8-5.89-9.57-11.88-12.18-19.07-31.18-1.16-60.06 6.18-87.52 20.39-11.59 5.97-23.24 10.2-35.79 13.8-3.94 1.19-7.78 2.62-11.63 4.07-6.5 2.39-13.02 4.02-19.83 5.28-4.54.88-8.14 2.33-12.22 4.5-3.37 1.61-6.88 2.37-10.51 3.15-.71.17-1.42.33-2.15.5-7.5 1.69-14.79 2.46-22.48 2.31-3.72-.07-7.29-.1-10.97.55-11.68 1.84-22.63-3.67-31.99-10.03-1.91-1.52-1.91-1.52-3.85-4.26-2.8-3.06-5.36-3.39-9.33-4.19-6.13-.15-11.34 2.56-16.67 5.31l-1.85.94q-3.825 1.95-7.62 3.96c-12.87 6.76-27.74 7.15-41.55 3.23-6.99-2.34-13.3-6.77-17.68-12.73-3.98-8.08-4.82-15.11-4.68-24.09 0-1.07 0-2.14-.01-3.24.07-9.65.07-9.65 3.7-14.15 3.49-3.32 5.92-4.71 10.81-4.8 3.52.14 5.71.93 8.82 2.5 5.25.34 9.04-.01 14-2-.55-4.53-1.74-7.76-3.94-11.74-4.14-8.03-5.16-15.61-5.84-24.52-.15-1.8-.34-3.59-.58-5.37-1.81-13.75 5.61-23.33 12.6-34.61.58-.93 1.15-1.85 1.73-2.8 3.14-5.04 6.37-9.95 9.84-14.77 3.3-4.68 6.05-9.45 8.62-14.56.33-.65.66-1.31 1-1.98 3.09-6.35 4.69-11.96 4.5-19.09-1.42-3.89-4.49-5.41-7.87-7.49-.34-.22-.34-.22-2.07-1.33-3.67-2.35-7.39-4.54-11.18-6.67-8.75-5.19-16.6-12.33-21.34-21.39-1.32-2.4-2.74-4.61-4.28-6.88-3.16-4.7-6.11-9.5-9.01-14.36-.51-.86-1.03-1.73-1.56-2.62-1.55-2.6-3.09-5.21-4.62-7.82-.45-.75-.9-1.51-1.37-2.3-4.22-7.18-8.13-14.2-10.76-22.15-.9-2.63-2-5.09-3.19-7.61-2.3-4.94-4.29-9.97-6.25-15.06-2.78-7.24-5.75-14.3-9.06-21.32-4.47-9.53-8.62-19.13-12.5-28.92-4.3-10.82-8.74-21.58-14.06-31.95-2.39-4.66-4.27-9.35-5.96-14.31-.8-2.24-1.77-4.26-2.85-6.38-3.7-8.35-6.43-17.08-9.27-25.75-.5-1.54-1.01-3.07-1.53-4.6-1.41-4.15-2.69-8.26-3.7-12.52-.93-3.86-1.97-7.64-3.13-11.44-4.02-14.68-3.72-31.21 3.25-44.87 7.6-9 17.14-10.69 28.38-11.82 4.19-.26 6.7-.03 10.31 2.13.76.45 1.52.91 2.3 1.37.79.5 1.57.99 2.39 1.5.82.52 1.65 1.04 2.5 1.57 6.19 3.98 6.19 3.98 8.5 7.43.61.29 1.22.58 1.86.87 2.92 1.55 4.32 3.64 6.32 6.26 10.05 12.62 10.05 12.62 16.82 14.87-.28-.59-.56-1.18-.84-1.79-3.08-6.71-3.08-6.71-3.66-10.14-.17-.68-.33-1.36-.5-2.07l-1.85-.82c-2.81-1.53-3.58-3.2-5.09-5.99-2.24-4.11-4.68-6.96-8.06-10.19a457 457 0 0 1-3.82-3.81l-2.07-2.07c-6.3-6.3-6.3-6.3-8.29-8.3l-4.64-4.61c-10.33-10.42-17.06-21.77-17.68-36.89.42-9.58 4.42-17.14 10.5-24.32.45-.6.9-1.21 1.36-1.83 8.2-10.6 20.97-14.04 33.64-16.17 16.26-1.5 32.6 2.63 46 12v2c.59.29 1.18.57 1.8.86 8.63 4.5 14.34 13.23 19.53 21.2 1.98 2.31 3.4 2.91 6.26 3.87.93.32 1.87.64 2.83.97 1.02.32 2.03.65 3.08.98 1.05.34 2.1.68 3.19 1.04 23.05 7.26 46.54 13.68 70.02 4.66 4.1-1.56 8.22-2.68 12.48-3.7.76-.18 1.52-.37 2.3-.56 2.39-.59 4.79-1.17 7.19-1.75l9.45-2.31c.77-.19 1.53-.38 2.32-.57 4.59-1.14 9.09-2.45 13.59-3.9 5.23-1.66 10.12-2.48 15.58-2.85 11.18-1.02 19.19-2.75 28.4-9.45 8.78-6.34 17.37-9.78 28.14-11.02 12.5-1.52 24.04-4.74 35.77-9.25 8.3-3.1 16.74-5.41 25.31-7.59.67-.17 1.33-.34 2.01-.51 5.86-1.49 11.69-2.96 17.64-4 8.1-1.55 15.88-4.66 23.65-7.37 8.76-3.06 17.18-5.68 26.46-6.75.9-.1 1.81-.21 2.75-.32 6.79-.72 13.55-.83 20.37-.8m-21.37 15.63c-3.1.41-6.14.67-9.25.87-5.26.51-9.71 2.51-14.5 4.62-1.77.72-3.54 1.43-5.32 2.13-.78.31-1.56.62-2.36.95-2.44.97-4.88 1.95-7.32 2.92v2c.62-.02 1.24-.05 1.89-.07 2.87-.11 5.73-.17 8.61-.24l2.97-.12c6.86-.12 11.25.95 16.53 5.43 5.84 5.97 8.21 11.77 8.26 20.02-.26 1.98-.26 1.98-2.26 3.98-.27 1.1-.54 2.19-.82 3.32-1.36 4.22-2.89 5.78-6.18 8.68l-2.26 2.44c-5.59 5.22-12.01 8.85-18.88 12.14-2.2 1.09-4.34 2.22-6.48 3.41-6.13 3.39-11.93 6.55-18.76 8.32-3.28.87-6.47 1.97-9.69 3.07-1.97.66-3.94 1.31-5.92 1.96-1.33.44-2.66.88-4 1.33-18.66 6.22-37.85 7.6-57.38 8.69-.62.03-.62.03-3.75.22-1.11.05-2.22.11-3.37.18-2.51.24-2.51.24-3.51 1.24-3.43.28-6.85.45-10.28.61-5.62.29-5.62.29-6.72 1.39-2.43.11-4.83.14-7.25.14h-6.82c-2.36-.01-4.72 0-7.08 0h-6.62c-5.01-.02-5.01-.02-7.23-1.14-2.32-.16-4.63-.27-6.94-.37-15.2-.83-36.12-2-49.06-10.63-1.95-.27-1.95-.27-4.13-.37-3.41-.3-5.95-.96-9.02-2.47-5.02-2.33-10.14-3.79-15.48-5.22-10.07-2.71-10.07-2.71-14.24-4.55-2.62-1.16-4.85-1.91-7.63-2.45-3.91-.76-7.68-1.82-11.5-2.94-1.37-.38-2.73-.76-4.09-1.14-15.27-4.34-15.27-4.34-21.91-7.86-.82-.41-1.64-.83-2.48-1.26-8.08-4.44-13.57-10.28-18.15-18.24-5.41-8.48-17.65-14.93-27.21-17.16-12.4-1.33-24.76-2.29-35.16 5.66-2.65 2.49-4.83 5.11-7 8l-2.32 2.32c-3.16 5.04-4.06 10.6-3.35 16.49 2.19 9.14 6.46 16.91 13.89 22.71 1.94 1.63 3.51 3.37 5.15 5.3 4.71 5.52 9.7 10.91 15.44 15.37 2.7 2.25 4.26 4.9 6.19 7.81h2c.22.85.45 1.7.68 2.57 1.32 3.45 2.89 5.85 5.08 8.77 2.23 3 3.98 5.86 5.11 9.42.37.74.74 1.48 1.13 2.24 3.42.95 6.78 1.14 10.31 1.32 6.85.65 11.28 1.96 15.92 7.22 6.1 8.03 6.1 8.03 6.77 13.46.12 1 .25 2 .37 3.02.36 6.35.19 10.23-4.13 15.11-2.58 2.54-5.31 4.75-8.24 6.87.32 3.49 1.38 5.75 3.3 8.59 2.85 4.47 4.8 9.1 6.7 14.04.34.87.68 1.75 1.03 2.65 3.44 8.82 6.68 17.71 9.59 26.72.81 2.49 1.64 4.49 2.88 6.82 1.88 4.01 2.79 8.06 3.81 12.36.91 3.74 2.15 7.31 3.44 10.93 1.62 4.66 2.72 8.99 3.25 13.89 2.6-.44 4.89-.95 7.33-2.01 4.5-1.66 8.94-1.69 13.67-.99 4.22 3.11 6.58 6.53 7.44 11.7 1.25 15.65 1.25 15.65-1.88 20.56-.26.28-.26.28-1.56 1.74-1 2.19-1 2.19-2 5-.23.63-.46 1.26-.69 1.9-1.5 4.32-2.81 8.69-4 13.1-.25.93-.51 1.86-.76 2.82-1.45 8.39-.02 15.9 1.88 24.12.23 1.04.46 2.08.7 3.15 1.7 7.59 1.7 7.59 2.87 9.91 1.39 17.24 1.74 32.78-9.57 46.69-2.55 2.65-5.1 4.7-8.43 6.31 1.64 4.7 1.64 4.7 3.52 6.33 3.14 3.57 2.48 9.14 2.48 13.67-.57 6.79-1.9 11.48-6 17-.31.95-.62 1.89-.94 2.86-1.06 3.12-2.32 5.41-4.13 8.14-.62.96-1.25 1.92-1.89 2.9-.67 1.02-1.35 2.05-2.04 3.1-1.45 2.23-2.88 4.46-4.32 6.69-.37.58-.74 1.16-1.13 1.76-1.19 1.85-2.37 3.7-3.55 5.55-.22.34-.22.34-1.3 2.03-4.99 7.8-9.85 15.53-13.7 23.97 2 2 2 2 4.9 2.09.59-.02.59-.02 3.6-.15 10.03-.12 17.39 2.22 25.5 8.06 1.03.73 2.06 1.45 3.12 2.19 7.42 6.41 11.9 17.3 12.88 26.81h2c-.23 4.3-.49 8.59-.76 12.88-.06 1.2-.12 2.41-.18 3.65-.63 9.58-2.7 17.43-8.06 25.47 2.66.54 5.33 1.07 8.01 1.55 7.37 1.47 13.27 3.44 18.99 8.45.32.5.32.5 2 3 1.97 1.05 3.97 2.06 6 3 .33.34.65.66 1 1 2.5.25 4.98.43 7.5.57l2.29.12c8.07.41 16.12.48 24.21.31.82.01 1.65.02 2.5.02 6.74-.26 12.71-3.53 18.73-6.32 5.42-2.49 10.63-3.91 16.51-4.88 6.93-1.26 13.2-3.55 19.7-6.2 4.33-1.76 8.62-3.32 13.12-4.62 11.8-3.5 22.89-8.68 33.94-14.06 6.48-3.14 12.95-6.04 19.74-8.44.66-.23 1.31-.46 1.99-.69 8.17-2.77 16.55-4.18 25.08-5.37.46-.06.46-.06 2.77-.39 5.97-.83 11.91-1.48 17.93-1.83 1.99-.22 1.99-.22 2.99-1.22 6.76-.36 12.72.78 19.2 2.63.29.07.29.07 1.8.37 1.75-1.75 1.4-4.3 1.61-6.69.11-1.18.22-2.37.34-3.59.12-1.27.23-2.53.36-3.84.92-9.26 2.05-17.98 4.79-26.89.83-2.78 1.34-5.44 1.77-8.3 2.15-11.54 11.64-21.49 20.75-28.25 9.08-6.22 18.6-8.58 29.52-8.53h2l6.23.03c1.42.01 2.84.01 4.25.02 3.46.01 6.92.02 10.38.04v2c.58.07 1.16.13 1.75.19 4.45.48 8.84 1.03 13.25 1.81-1.32-4.52-3.14-7.96-5.76-11.87-3.06-4.75-5.28-9.41-7.12-14.75-2.22-6.41-5.02-12.28-8.25-18.25-5.29-9.8-9.31-19.25-11.87-30.13-.27-1.1-.54-2.2-.82-3.33-3.46-15.95-3.66-32.6-2.94-48.85.03-.7.06-1.4.08-2.12.33-5.19 1.36-10.56 5.33-14.22 2.19-2.4 1.76-4.87 1.85-8.04.53-12.33 2.57-24.19 6.46-35.91 1.54-5.24 2.5-10.56 3.53-15.92 1.76-9.13 3.93-18.13 6.5-27.06 1.07-3.79 2.02-7.6 2.94-11.42 1.43-5.81 3.04-11.49 5.07-17.13 2.22-6.21 3.85-12.42 5.25-18.88.75-3.12 1.71-6.08 2.75-9.12.56-1.85 1.13-3.7 1.69-5.55 2.14-6.98 4.49-13.8 7.19-20.58 1.69-4.35 3.25-8.44 3.62-13.11.5-3.76.5-3.76 2.5-5.76.28-.86.57-1.73.87-2.62 1.12-3.37 2.56-6.32 4.22-9.45.93-1.97 1.53-3.77 1.91-5.93-.34-.33-.66-.65-1-1-.49-7.85-.81-15.47 2.21-22.85.94-2.55 1.35-5.03 1.79-7.71.66-3.93 1.63-7.38 3.15-11.09 1.14-3.17 1.94-6.39 2.78-9.66 1.4-5.43 3.08-10.68 5.05-15.93 6.56-17.72 6.56-17.72 4.02-24.76-2.28-2.94-3.81-4.57-7.32-5.81-.28-.03-.28-.03-1.68-.19-1.08-3.87-.95-5.52 1-9-1.71-1.25-3.42-2.5-5.13-3.74-.95-.7-1.9-1.4-2.88-2.11-.99-.71-1.98-1.42-2.99-2.15-.94-.68-1.87-1.36-2.84-2.07-3.79-2.3-7.52-3.65-11.73-4.99-.8-.25-1.6-.51-2.43-.77q-2.415-.765-4.83-1.5c-1.79-.55-3.58-1.13-5.36-1.72-15.44-4.42-33.32-2.56-49.06-.44"/><path fill="#f9e302" d="M39.46 135.008c8.9 5.11 15.76 12.87 22.81 20.2 14.04 14.57 14.04 14.57 22.21 14.89 2.27-.21 4.34-.42 6.52-1.1.16-.33.16-.33 1-2 .76-.2 1.53-.41 2.31-.62 3.56-1.82 4.25-3.93 5.79-7.5.9-1.88.9-1.88 2.9-3.88 5.83-.49 9.83-.01 15 3 5.63 5.18 9.03 10.44 10.62 17.94-1.58 7.75-9.43 12.82-15.62 17.06-.57.41-1.15.81-1.74 1.22-4.72 3.27-8 3.91-13.68 3.88-.63 0-.63 0-3.8-.01l-3.97-.03c-1.33 0-2.67 0-4-.01-3.27-.01-6.54-.03-9.81-.05-.31.62-.62 1.24-.93 1.88-.69 1.37-1.42 2.73-2.18 4.06-3.75 8.7-.01 21.32 3.11 29.75.33.83.66 1.66 1 2.51 1 2.8 1 2.8 1.91 6.68.98 4.05 2.6 7.66 4.46 11.37 2.2 4.43 3.99 8.71 5.5 13.41 2.18 6.74 4.97 13.14 7.88 19.59.53 1.19 1.06 2.37 1.61 3.59 3.98 8.84 8.19 17.54 12.64 26.16q1.92 3.78 3.81 7.56c.54 1.08 1.09 2.15 1.65 3.26 1.08 2.23 2.1 4.5 3.07 6.79 6.42 14.83 17.15 28.07 29.47 38.39.89.81 1.77 1.61 2.69 2.44 2.68 1.81 4.14 1.92 7.31 1.56v-4c-1.97-1.37-3.98-2.7-6-4-3.56-2.91-4.81-4.56-5.43-9.17-.11-3.26-.14-6.49-.06-9.76.05-2.03.06-4.07.07-6.11.1-11.6.74-23.23 5.42-33.96.33-.82.66-1.65 1-2.5.33-.82.66-1.65 1-2.5.2-.65.4-1.3.61-1.97 1.1-3.37 1.87-5.55 4.51-7.97 3.94-1.45 7.67-2.18 11.88-2.06 2.91 1.34 3.69 2.36 5.07 5.22 1.72 5.16 1.6 10.42.93 15.78-1.03 2.05-2.2 3.5-3.7 5.22-2.7 3.7-3.29 8.39-4.3 12.78l-.85 2.97c-1.76 6.5-2.43 12.64-2.46 19.34-.01.38-.01.38-.02 2.25.07 5.11 1 9.51 2.33 14.44.12 3.5.12 3.5 0 6h2c2.24 12.3 4.28 29.2-2.19 40.38-1.93 2.58-1.93 2.58-3.81 4.62-.5.57-1 1.15-1.51 1.74-1.3 1.39-1.3 1.39-3.49 3.26l-2 2c-5.72 1.37-10.83.89-15.92-2.06-3.84-2.46-7.49-5.13-11.08-7.94-.27-.2-.27-.2-1.63-1.22-3.83-2.96-6.09-6.11-8.5-10.28-3.55-6.1-3.55-6.1-5.75-8.79-2.3-2.93-4.14-5.94-6.02-9.15-.36-.61-.71-1.22-1.08-1.85-.76-1.29-1.51-2.58-2.26-3.87-1.12-1.94-2.25-3.87-3.39-5.81-1.81-3.1-3.61-6.22-5.4-9.34-.88-1.52-1.77-3.03-2.67-4.54-3.19-5.51-5.37-10.97-7.28-17.05-2.47-7.74-5.67-15.17-8.85-22.64-1.04-2.45-2.08-4.91-3.11-7.36-3.68-8.71-7.5-17.33-11.6-25.86-1.43-3.18-2.61-6.36-3.71-9.68-2.22-6.45-4.99-12.56-7.88-18.75-8.06-17.31-15.44-34.96-21.55-53.06-1.01-2.86-2.09-5.62-3.25-8.42-2.38-5.88-4.08-11.9-5.76-18.02-.31-1.08-.61-2.17-.93-3.29-2.48-8.94-3.61-17.32-3.76-26.58-.03-.92-.07-1.84-.11-2.79-.06-4.46-.04-7.63 2.84-11.18 5.97-5.55 12.41-7.61 20.11-4.46"/><path fill="#dfdfde" d="M453.438 35.688c1.28-.04 2.55-.07 3.87-.11 5.22.6 8.18 2.65 11.56 6.61.23.37.23.37 1.45 2.25.49.74.98 1.48 1.48 2.25 1.79 3.44 2.6 5.94 1.5 9.73-.37.77-.73 1.54-1.11 2.33-.36.78-.71 1.56-1.08 2.36-1.11 1.89-1.11 1.89-3.11 2.89l-1.5 3.13c-4.13 7.46-13.04 11.37-20.34 15.2-2.37 1.26-4.7 2.54-7.04 3.87-9.14 5.14-17.94 8.57-28.07 11.23-3.33.93-6.59 2.07-9.86 3.2-8.98 3.03-17.77 5.31-27.19 6.37l-1 1c-1.81.14-3.62.21-5.44.25-.57.01-.57.01-3.43.09-1.22.04-2.44.07-3.69.1-7.82.24-15.56.5-23.31 1.63-6.75.97-13.32 1.14-20.13.93v2c-8.43.13-16.82-.06-25.25-.43l-2.81-.12c-.87-.05-1.74-.09-2.64-.13-.78-.04-1.56-.07-2.36-.11-1.94-.21-1.94-.21-3.94-1.21-3.14-.23-6.27-.39-9.41-.52-5.16-.26-5.16-.26-7.52-1.45-2.29-1.14-4.16-1.48-6.69-1.81q-1.305-.18-2.64-.36c-.91-.12-1.81-.24-2.74-.36q-2.685-.345-5.37-.72c-.4-.05-.4-.05-2.4-.31-2.34-.49-4.14-1.31-6.23-2.47 1-2 1-2 3.6-2.96 7.07-1.99 14.07-3.61 21.29-4.89 10.89-1.97 21.49-4.89 32.05-8.21 3.91-1.2 7.86-2.19 11.84-3.16 3.01-.73 6-1.49 9-2.26 9.65-2.46 19.37-4.54 29.19-6.19 6.79-1.17 13.22-2.58 19.72-4.89 4.69-1.66 9.07-2.84 14-3.5 15.21-2.05 29.6-9.16 41.88-18.21 10.63-7.56 20.72-12.79 33.87-13.04"/><path fill="#f9e302" d="M519.625 498.563c.9.23 1.8.45 2.73.69 6.94 1.99 13.58 5.44 17.87 11.46 2.02 4.15 2.85 8.79 1.78 13.29-3.13 5.55-7.19 7.87-13 10-.34.33-.34.33-2 2-3.05-.26-4.95-.97-7.57-2.56-5.13-2.15-9.95-2.1-15.43-1.44-7.85 3.55-13.13 11.55-17 19-2.39-.58-4.67-1.22-7-2 .11.65.23 1.3.35 1.97.68 4.6 1.05 7.2-1.04 11.47-2.01 2.22-3.75 4.02-6.31 5.56h-2c.66 1.32 1.31 2.64 2 4 3.49-.27 4.84-.85 7.42-3.3.81-1 1.62-1.99 2.45-3.02.22-.26.22-.26 1.32-1.61 3.56-4.49 6.31-9.29 9.07-14.3 2.88-4.61 6.79-9.3 11.74-11.77 4.81-.53 8.99-.31 13.62 1.12 3.57 4.32 2.87 8.42 2.68 13.86-.3 3.02-.3 3.02-1.3 4.02-.13.63-.13.63-.76 3.81-2.1 9.71-6.37 18.24-12.24 26.19-.62.86-1.24 1.73-1.88 2.62-2.54 2.84-5.32 5.27-8.22 7.73-1.9 1.65-1.9 1.65-3.51 3.3-1.9 1.83-3.95 2.37-6.39 3.35-2.08 1.25-4.11 2.55-6.14 3.88-4.89 2.93-10.37 3.21-15.86 2.12-3.97-2.44-6.91-5.55-10-9-.81-.89-1.62-1.78-2.45-2.7-8.23-9.54-12.15-16.69-11.55-29.3 1.7-22.72 4.6-45.9 22.26-62.08 4.32-3.5 8.44-6.13 13.74-7.92.8-.28 1.6-.56 2.43-.84 13.4-4.04 26.8-3.09 40.19.4"/><path fill="#faf399" d="M112 200h3c.41.77.82 1.54 1.24 2.34l1.64 3.04c.53.99 1.06 1.99 1.61 3.02C121 211 121 211 123 213c.69 1.99 1.35 3.99 2 6 .91 1.99 1.85 3.97 2.81 5.94 2.86 6.07 5.01 12.16 7.01 18.55C136 247 136 247 137.5 250.42c1.65 3.94 2.79 7.84 3.88 11.96.42 1.58.85 3.16 1.28 4.75.22.8.44 1.61.67 2.43 1.28 4.65 2.67 9.26 4.06 13.87 3.68 12.34 2.91 22.51-1.39 34.57-1.21 3.64-1.32 7.14-1.5 10.94-.2 4.13-.48 8.04-1.5 12.06-.22 2.59-.41 5.16-.56 7.75-.02.35-.02.35-.13 2.11-.11 1.72-.21 3.43-.31 5.14h-3c-2.35-2.36-4.12-5.26-6-8-.66-.93-1.31-1.86-1.99-2.82-11.5-16.63-11.5-16.63-11.01-25.18h-2c-10.26-19.04-10.26-19.04-13.08-26.7-1.12-2.8-2.47-5.43-3.86-8.11-2.61-5.12-4.71-10.31-6.7-15.69-1.54-3.96-3.25-7.82-4.98-11.69-2.29-5.12-4.29-10.16-5.77-15.58-.63-2.31-1.39-4.54-2.17-6.79-3.03-9.14-4.29-17.75-3.44-27.44l2-3c2-.38 2-.38 4.44-.41l2.71-.06c.47-.01.47-.01 2.85-.03 17.68-.18 17.68-.18 22-4.5"/><path fill="#f8e101" d="M568.766 149.953c2.16.05 4.33.15 6.48.3 1.11.03 2.21.05 3.34.08 8.05.3 8.05.3 10.41 2.67.75 3.97.95 8.03 1.25 12.06.09 1.18.18 2.35.27 3.56.81 12.58-.2 23.99-3.86 36.08-.87 3.06-1.22 6.15-1.66 9.3-.15.45-.15.45-.93 2.75-3.54 10.8-4.27 22.62-4 33.93.06 10.43-2.49 19.47-8.07 28.32-.73.71-1.47 1.42-2.23 2.15-.59.61-1.17 1.22-1.77 1.85.12.5.12.5.69 3.06.5 6.29-3.1 9.99-6.69 14.94-.35.51-.35.51-2.12 3.13-4.07 5.8-7.91 10.11-13.9 13.9-3.12 2.06-6 4.31-8.93 6.63-21.96 17.34-21.96 17.34-29.05 17.34-.35-7.68.67-14.64 2.32-22.13.21-1.03.42-2.06.64-3.13.63-2.93 1.31-5.84 2.04-8.74.21-.81.41-1.62.62-2.45.65-2.15.65-2.15 2.38-5.55 2.97-1.52 2.97-1.52 6.38-2.25 6.03-1.36 9.61-3.1 13.4-8.09 5.68-9.22 11.23-18.58 15.22-28.66.32-.7.64-1.4.96-2.12 4.52-10.33 6.2-21.39 6.83-32.59.21-2.29.21-2.29 1.21-4.29.06-2.38.1-4.75.13-7.13.34-7.57 2.45-10.83 7.87-15.87 1.62-1.85 3.2-3.73 4.75-5.63.74-.88 1.48-1.76 2.24-2.66 3.17-4.27 5.01-7.34 5.01-12.71-2.59.36-3.71.64-5.38 2.71-.43.74-.86 1.47-1.3 2.22-3.53 5.6-7.73 10.32-12.32 15.07-.56.59-1.12 1.18-1.71 1.79-4.94 4.7-10.96 6.86-17.29 9.21l-2-2c1.29-3.44 2.58-6.88 3.88-10.32.36-.97.73-1.95 1.1-2.95.36-.94.71-1.88 1.08-2.85.32-.86.65-1.72.98-2.61.96-2.27.96-2.27 2.96-5.27.52-2.03.97-4.08 1.38-6.13 1.06-4.77 2.21-9.16 4.44-13.53.82-1.61 1.57-3.26 2.28-4.93 2.64-5.45 4.4-8.04 10.67-8.46"/><path fill="#0e0f0e" d="M449.063 29.563c1.2-.05 2.41-.09 3.65-.14 8.06-.1 13.31.99 19.29 6.58 5.64 6.35 8.21 11.49 8.26 20.01-.26 1.99-.26 1.99-2.26 3.99-.5 1.27-.96 2.57-1.38 3.87-1.29 3.6-2.72 5.58-5.62 8.13-.6.79-1.2 1.58-1.81 2.39-5.2 6.18-13.21 9.77-20.4 13.22-2.17 1.08-4.28 2.19-6.4 3.37-6.13 3.39-11.94 6.55-18.76 8.32-3.29.87-6.48 1.97-9.69 3.07-1.98.66-3.95 1.31-5.92 1.96-1.34.44-2.67.89-4 1.33-18.67 6.22-37.86 7.6-57.38 8.69-.62.04-.62.04-3.76.22-1.11.06-2.22.12-3.36.18-2.52.25-2.52.25-3.52 1.25-3.43.27-6.84.44-10.28.6-5.62.3-5.62.3-6.72 1.4-2.43.1-4.82.14-7.25.13h-6.82c-2.36-.01-4.72 0-7.08 0h-4.47c-.36 0-.36 0-2.15.01-5-.03-5-.03-7.23-1.14-2.31-.16-4.63-.28-6.94-.38-6.52-.34-12.92-1.06-19.38-2.06-.81-.12-1.63-.24-2.47-.37-3.67-.59-6.08-1.11-9.21-3.19.33-.5.33-.5 2-3h3v-2c1.58.11 3.16.24 4.75.37.88.07 1.76.14 2.67.21 2.58.42 2.58.42 4.43 1.42 3.15 1.46 6.36 1.43 9.77 1.56 7.14.32 7.14.32 9.38 1.44 2.62.22 5.22.4 7.85.53.77.05 1.55.09 2.34.13 2.48.14 4.96.27 7.43.4 1.68.09 3.36.18 5.03.28l12.35.66v-2c.7-.06 1.4-.11 2.12-.17 3.19-.25 6.38-.51 9.56-.77 1.11-.09 2.21-.17 3.35-.26 1.06-.09 2.13-.18 3.23-.27.98-.08 1.96-.15 2.97-.24 2.77-.29 2.77-.29 5.23-.81 2.99-.57 5.85-.68 8.9-.76l3.63-.12 7.57-.21c1.19-.04 2.38-.07 3.61-.11l3.31-.09c2.52-.19 2.52-.19 3.52-1.19 1.72-.23 3.45-.43 5.18-.63 9.35-1.37 18.11-4.5 27.04-7.47 2.6-.84 5.2-1.62 7.82-2.38 10.48-3.04 19.74-7.11 29.21-12.53 2.23-1.27 4.49-2.47 6.75-3.68 1.34-.76 2.67-1.53 4-2.31.78-.45 1.55-.89 2.36-1.35 4.96-3.04 7.92-5.86 10.66-11.02.98-1.63.98-1.63 2.98-2.63.88-1.67.88-1.67 1.68-3.75.28-.68.55-1.35.83-2.05.81-3.67-.03-6.27-1.75-9.55-.5-.75-1-1.5-1.51-2.28-.49-.75-.98-1.51-1.49-2.29-3-3.55-5.51-4.94-10.15-5.48-11.11.07-20.15 1.13-29.35 7.78-3.21 2.29-6.6 4.23-10 6.22-2.26 1.4-2.26 1.4-4.14 2.85-3.5 2.55-7.4 4.21-11.31 6.05-.81.39-1.63.78-2.46 1.18-7.3 3.45-14.41 6.31-22.48 7.19-5.57.78-10.52 2.28-15.8 4.17-7.67 2.64-15.58 3.99-23.53 5.47-6.42 1.23-12.81 2.62-19.2 3.99-2.38.51-4.76 1-7.15 1.5-7.44 1.57-14.54 3.29-21.64 6.06-3.67 1.35-7.41 2.24-11.22 3.14-2.52.6-5.03 1.24-7.54 1.91-.72.19-1.45.37-2.19.57q-2.13.555-4.26 1.14c-3.32.85-5.02 1.29-8.34.18l1-1c-2.74-1.37-4.97-1.13-8-1-.33.16-.33.16-2 1-2.79.37-5.58.7-8.38 1-1.53.16-3.06.33-4.58.5-.34.03-.34.03-2.06.22-1.98.28-1.98.28-4.02.79-5.76 1.43-9.93.43-14.96-2.51v-2c.5-.07.5-.07 3.02-.4 1.3-.18 2.59-.36 3.92-.54 1.28-.17 2.57-.35 3.9-.53 3.16-.53 3.16-.53 4.16-1.53 1.29-.32 2.6-.59 3.91-.85 5.32-1.14 10.38-2.82 15.53-4.59 6.06-2.07 12.12-4.07 18.27-5.87 2.39-.72 4.74-1.52 7.1-2.32 5.52-1.52 10.93-1.69 16.63-1.87 14.42-.5 25.8-3.56 37.62-12.06 4.45-3.21 8.8-5.53 13.94-7.44.35-.14.35-.14 2.15-.84 5.5-1.9 10.9-2.55 16.66-3.1 7.78-.74 14.82-2.37 22.19-5.06.72-.26 1.44-.52 2.18-.79 2.75-1.01 5.47-2.07 8.18-3.15 7.36-2.8 14.85-4.72 22.5-6.55 3.67-.88 7.34-1.79 11.01-2.7.34-.08.34-.08 2.08-.51 7.07-1.75 12.67-2.63 20.11-2.74"/><path fill="#101007" d="M122 153c7.53 7.1 10.93 12.69 11.62 23.19 0 5.64-1.17 8.3-4.93 12.5-2.48 2.44-4.79 4.38-7.69 6.31.33 3.49 1.38 5.74 3.3 8.59 2.85 4.47 4.8 9.1 6.7 14.03.34.88.68 1.75 1.04 2.65 3.44 8.83 6.67 17.72 9.58 26.73.81 2.48 1.64 4.49 2.88 6.81 1.89 4.02 2.79 8.06 3.82 12.37.9 3.74 2.12 7.32 3.47 10.93 1.75 4.87 2.54 8.71 2.21 13.89.59-.29 1.19-.58 1.8-.88 6.33-2.83 12.27-4.58 19.2-3.12 3.9 2.41 6.26 5.8 8 10 1.19 7.13 2.65 16.85-1.44 23.25-.51.58-1.03 1.15-1.56 1.75-1 2.19-1 2.19-2 5-.23.63-.45 1.25-.68 1.9-1.51 4.32-2.81 8.68-4.01 13.1-.25.93-.5 1.86-.76 2.81-1.45 8.4-.01 15.9 1.89 24.13.23 1.04.46 2.08.69 3.15 1.71 7.59 1.71 7.59 2.87 9.91.08 1.38.11 2.75.1 4.13 0 .41 0 .41-.01 2.44-.01.43-.01.43-.03 2.55 0 .85-.01 1.7-.01 2.58-.01 2.1-.03 4.2-.05 6.3h-3l-1-2-2 4c-.16-4.12-.16-4.12-1-25h-2c-5.12-18.94-4.63-39.32 3.97-57.27C174 318 174 318 175.6 316.17c2.84-4.4 1.88-10.13 1.4-15.17-2.02-5.51-2.02-5.51-5-7-5.1.04-10.12.47-14 4-1.12 3.12-1.12 3.12-2 7-.48 1.57-.98 3.13-1.5 4.69-.24.72-.47 1.45-.72 2.2-.78 2.11-.78 2.11-1.76 3.85-4.03 8.93-3.44 20.52-3.5 30.18-.02 2.04-.08 4.08-.14 6.13-.09 11.01-.09 11.01 3.47 15.27 2.46 2.33 5.12 4.16 8.15 5.68l-1 5c-4.07.09-6.09-.23-9.26-2.89q-2.34-2.4-4.62-4.86C143 368 143 368 140 365.69c-8.09-6.53-13.65-16.92-19-25.69-.52-.84-1.05-1.68-1.59-2.55-1.29-2.24-2.22-4.34-3.1-6.76-3.21-8.27-7.45-16.09-11.48-23.98-3.35-6.6-6.41-13.31-9.39-20.09-.47-1.04-.94-2.09-1.42-3.17-2.73-6.17-5.04-12.35-7.11-18.78-1.18-3.47-2.69-6.59-4.35-9.86-3.33-6.8-5.52-13.73-7.52-21.03-.91-3.31-1.96-6.53-3.04-9.78-.81-4.12-1.17-8.25-1.38-12.44-.04-.86-.09-1.73-.14-2.62.8-4.51 1.92-7.94 5.52-10.94 4.65-1.08 9.19-.94 13.94-.81 2.51.02 5.02.04 7.52.04 1.11.03 2.22.05 3.37.08 6.87-.67 11.94-5.17 17.17-9.31.29-.22.29-.22 1.74-1.36 5.89-4.73 5.89-4.73 7.26-7.64.63-7.45-2.72-12.24-7-18-.16-.33-.16-.33-1-2l6 1v-2h-2c-.16-.82-.16-.82-1-5m-13 49c-7.24 2.26-14.21 2.37-21.75 2.48-.9.02-1.81.05-2.74.08-.82.01-1.64.03-2.48.04-.67.13-1.34.26-2.03.4-3.64 5.46-2.71 12.77-1.65 19.09 1.58 7.53 3.89 14.74 6.65 21.91.48 1.3.96 2.6 1.43 3.89 2.89 7.87 6 15.53 9.57 23.11 3.95 8.72 7.74 17.52 11.39 26.37 1.91 4.3 4.07 8.42 6.3 12.57.41.78.83 1.56 1.26 2.36 1.01 1.9 2.03 3.8 3.05 5.7h2c.04.91.08 1.81.12 2.75 1.84 12.46 11.71 25.05 19.88 34.25l2-1c.29-2.46.47-4.84.56-7.31.33-7.24.33-7.24.94-9.7.78-3.13.75-6.34.88-9.55.83-16.65.83-16.65 4.62-20.44 1.73-9.43.9-16.08-1.86-25.16-1.18-3.89-2.13-7.82-3.08-11.78-3.01-12.36-7.38-24.23-12.06-36.06-.35-.91-.7-1.81-1.06-2.75-1.81-4.62-3.79-9.04-6.07-13.45-.87-1.8-.87-1.8-1.87-4.92-1.18-3.4-2.97-5.92-5-8.88-1.03-1.99-2.04-3.98-3-6-3 0-3 0-6 2"/><path fill="#f8e101" d="M146.125 537.625c13.22 6.32 19.63 13.66 25 27.23 1 3.6 1.11 6.72 1.06 10.46 0 1.23-.01 2.46-.02 3.74-.16 2.95-.16 2.95-1.16 3.95q-.3 3.06-.57 6.12c-1.21 8.66-4.17 15.86-9.43 22.88-2.38 1.64-4.28 2.31-7.07 3.03-2.59.85-4.25 1.71-6.5 3.18-11.27 7.34-20.39 8.47-33.58 6.26-5.36-1.36-9.05-3.48-12.85-7.47-2.56-4.63-2.24-9.19-2.13-14.32l.03-2.53c.02-2.05.06-4.1.1-6.15.72.32 1.44.65 2.19.98 8.86 3.2 19.45.67 27.81-2.98 3.22-1.58 4.64-2.3 6.24-5.54 1.76-2.46 1.76-2.46 4.61-3.29 1.1-.1 2.2-.2 3.33-.3 5.43-.63 9.81-1.71 14.82-3.87.16-1.65.16-1.65 1-10-3.61 2.06-6.78 4.38-10 7-2.41 1.2-3.95 1.1-6.63 1.06-.41-.01-.41-.01-2.48-.03l-1.89-.03c-.38-1.1-.75-2.19-1.13-3.32-2.47-6.61-5.97-12.82-9.87-18.68-.07-2.57-.01-4.96.18-7.5.03-.68.07-1.36.1-2.06.19-2.78.44-4.99 1.9-7.39 4.72-2.74 11.8-1.46 16.94-.43"/><path fill="#f4f4f3" d="M437 31v2c-.58.23-.58.23-3.5 1.38-9.25 4.09-17.86 9.99-26.06 15.87-12.04 8.1-28.09 12.18-42.23 14.26C363 65 363 65 360 67c-2.46.57-4.89 1.06-7.38 1.5-4.42.79-8.44 1.83-12.62 3.5-2.1.39-4.2.72-6.31 1-5.02.73-9.81 1.68-14.69 3-1.77.44-3.54.88-5.31 1.31-5.55 1.39-11.09 2.81-16.63 4.25-.81.21-1.63.42-2.47.64-3.14.82-6.15 1.62-9.15 2.86-4.06 1.57-8.37 2.09-12.65 2.8-5.39.94-5.39.94-7.77 2.14-3.24 1.61-6.78 1.94-10.33 2.5-5.37.86-10.46 1.97-15.69 3.5-17.21 3.56-17.21 3.56-25-1v-2c.5-.07.5-.07 3.03-.4 1.29-.18 2.58-.36 3.91-.54 1.29-.17 2.57-.35 3.9-.52C228 91 228 91 229 90c1.3-.32 2.6-.59 3.91-.85 5.32-1.14 10.39-2.82 15.53-4.59 6.06-2.07 12.12-4.07 18.27-5.87 2.39-.72 4.74-1.52 7.1-2.31 5.53-1.53 10.93-1.69 16.63-1.88 14.42-.49 25.8-3.56 37.62-12.06 4.46-3.21 8.81-5.53 13.94-7.44l2.15-.84c5.51-1.9 10.9-2.55 16.66-3.1 7.79-.74 14.82-2.37 22.19-5.06l2.19-.79c2.74-1.01 5.46-2.07 8.18-3.14 7.36-2.81 14.85-4.73 22.49-6.55 2.21-.54 4.41-1.1 6.62-1.66.72-.19 1.45-.37 2.2-.56l4.18-1.08c2.81-.71 5.23-1.22 8.14-1.22"/><path fill="#f8f097" d="M553 213c1.86 3.13 2.2 5.37 2 9h-2c.05.8.09 1.6.14 2.43.23 7.29-.34 13.89-1.89 21.01-.16.74-.31 1.49-.48 2.25-1.18 5.06-3.08 8.88-5.77 13.31-.68 2-1.35 4-2 6l-2 2c-.43 1.21-.87 2.42-1.32 3.66-1.59 4.42-3.85 7.95-6.62 11.72-.43.61-.86 1.22-1.3 1.86-4.03 5.59-4.03 5.59-7.76 6.76-3.25.12-3.25.12-6 0-.05-1.44-.09-2.87-.12-4.31-.03-.8-.05-1.6-.08-2.43.2-2.26.2-2.26 2.2-5.26.48-2.13.88-4.28 1.25-6.44 1.35-7.43 3.43-14.56 5.68-21.77 1.22-3.91 2.39-7.74 3.07-11.79h2l.15-1.86c.07-.81.15-1.62.23-2.45.03-.4.03-.4.21-2.43C533 232 533 232 535 229c.32-1.83.59-3.66.81-5.5.89-5.23.89-5.23 3.44-7.56.91-.31 1.82-.62 2.75-.94.99-.39 1.98-.78 3-1.19 2.84-.77 5.08-.98 8-.81"/><path fill="#0f0f03" d="M532 214c.84 3.1 1.09 5.78 1 9h3c.25 5.62.25 5.62-2 9-.63 2.26-.63 2.26-1.12 4.69-.17.81-.34 1.61-.51 2.45-.12.61-.25 1.23-.37 1.86h-2c-.05.62-.05.62-.29 3.75-.66 5.97-2.39 11.53-4.15 17.25-3.54 11.66-3.54 11.66-4.72 17.19C520 283 520 283 519 284c-.23 1.51-.41 3.04-.56 4.56-.09.83-.17 1.66-.26 2.51-.06.63-.12 1.27-.18 1.93 9.46-1.76 13.09-6.68 18.43-14.43 2.08-3.41 3.29-6.79 4.57-10.57l2-2q.825-2.19 1.5-4.44c.92-3.02 1.71-4.87 3.5-7.56.77-2.77 1.45-5.51 2.06-8.31.18-.8.36-1.59.54-2.41 1.49-7.09 2.17-14.04 2.4-21.28h1c.16 1.65.16 1.65 1 10h4c-.52 11.13-2.91 22.57-9 32-.73 1.69-1.45 3.39-2.17 5.09-10.79 24.8-10.79 24.8-20.83 28.91-3.64 1.1-7.3 2.09-11 3-7.31 30.64-7.31 30.64-8 41l2 1h-3c-.03-2.12-.05-4.25-.06-6.38-.01-1.18-.03-2.36-.04-3.58.1-3.04.1-3.04 1.1-5.04q.06-3 0-6c-.5.16-.5.16-3 1-.18-4.32.32-7.56 1.75-11.62 1.84-5.68 3.13-11.33 4.25-17.19 1.92-10 4.18-19.86 7-29.65 1.07-3.78 2.01-7.59 2.94-11.42 1.43-5.81 3.03-11.48 5.06-17.12 2.59-7.22 4.37-14.51 6-22"/><path fill="#131311" d="M426 93v2h7c-2.21 2.21-3.24 2.51-6.19 3.31-4.34 1.24-8.6 2.61-12.87 4.07-1.97.65-3.95 1.3-5.92 1.95-1.34.44-2.67.89-4 1.34-18.66 6.21-37.85 7.59-57.38 8.68-1.24.08-2.48.15-3.75.22l-3.37.18C337 115 337 115 336 116c-3.42.27-6.84.45-10.27.61-5.63.29-5.63.29-6.73 1.39-2.42.1-4.82.14-7.25.13-.72 0-1.45 0-2.2.01-1.54 0-3.08-.01-4.61-.01-2.36 0-4.72 0-7.08.01-1.5 0-2.99-.01-4.48-.01-.36 0-.36 0-2.15.01-5-.03-5-.03-7.23-1.14-2.31-.16-4.62-.28-6.94-.38-6.52-.33-12.92-1.06-19.37-2.06-.41-.06-.41-.06-2.48-.37-3.67-.59-6.08-1.1-9.21-3.19.33-.5.33-.5 2-3h3v-2c1.58.11 3.17.24 4.75.38.88.06 1.76.13 2.67.21 2.58.41 2.58.41 4.43 1.41 3.15 1.47 6.36 1.43 9.77 1.56 7.14.32 7.14.32 9.38 1.44 2.62.23 5.23.4 7.85.54.39.02.39.02 2.35.13l7.42.39c1.68.09 3.36.19 5.04.28L317 113v-2c.7-.06 1.4-.11 2.12-.17 3.19-.25 6.38-.51 9.57-.77 1.1-.08 2.2-.17 3.34-.26 1.07-.09 2.13-.18 3.23-.26.98-.08 1.96-.16 2.97-.24 2.77-.3 2.77-.3 5.23-.82 2.99-.57 5.86-.68 8.9-.76 1.2-.04 2.39-.08 3.63-.11 2.52-.08 5.05-.15 7.57-.22 1.19-.03 2.38-.07 3.61-.11l3.32-.09C373 107 373 107 374 106c1.73-.23 3.46-.43 5.19-.62 9.4-1.37 18.22-4.57 27.21-7.54C421.32 93 421.32 93 426 93"/><path fill="#0c0b06" d="M498.625 489.813h3.02c5.22.03 10.21.29 15.36 1.19v2c.28-.01.28-.01 1.72-.04 4.88-.05 9.46.22 14.28 1.04v2c-6.66 3.23-11.72 4.83-19 3-.9-.34-1.79-.68-2.72-1.03-12.78-3.77-29.77-1.54-41.44 4.72-13.56 9.2-20.99 22.58-24.03 38.37-.15.83-.29 1.67-.44 2.53-.13.78-.27 1.57-.42 2.38-.11.7-.23 1.41-.34 2.13-.75 2.3-1.83 3.3-3.61 4.9-2.48 3.7-2.57 7.66-3 12h-1c-.41-6.26.21-12.12 1.37-18.25.13-.68.25-1.35.38-2.04.8-4.03 1.94-7.82 3.25-11.71.27-1.58.52-3.17.74-4.75 2.43-12.79 12.82-23 22.8-30.61 9.98-6.67 21.37-7.97 33.08-7.83"/><path fill="#090705" d="M142 531c7.09.97 12.27 2.7 18 7 .61.43 1.21.86 1.84 1.31 5.18 4 8.14 8.95 11.16 14.69.34.64.69 1.29 1.04 1.95 1.97 4.1 2.24 7.55 1.96 12.05h2c.76 29.34.76 29.34-7 40l-7-1c1.78-5.47 1.78-5.47 2.77-7.83 1.96-4.74 2.69-9.05 3.02-14.17.21-2 .21-2 1.21-3 1.29-12.94-2.26-23.64-10-34-7.16-8.07-17.76-10.23-28-11v-1h8z"/><path fill="#0e0e01" d="M518.164 531.934c.29.19.29.19 1.77 1.13 3.07 1.94 3.07 1.94 5.88 1.81 2.19-.87 2.19-.87 4.19-2.87l3 1-2 1a149 149 0 0 0-3 7c-9 0-9 0-13-2-4.34-.71-8.31-.95-12.23 1.24-5 4.18-8.4 9.25-11.77 14.76-3.1 4.92-6.36 9.63-10.07 14.12-.63.77-1.26 1.53-1.91 2.32-2.02 1.56-2.02 1.56-4.77 1.3-.74-.25-1.49-.49-2.25-.74l-1-4c.92-.56 1.85-1.12 2.81-1.69 3.32-2.41 4.78-3.5 6.19-7.31-.07-3.39-.47-6.67-1-10 3.76 0 4.91.23 8 2q.36-1.05.75-2.13c2.94-6.76 7.82-13.06 14.1-17.05 4.89-1.87 11.49-1.97 16.31.11"/><path fill="#151512" d="M532 214c.84 3.1 1.09 5.78 1 9h3c.25 5.62.25 5.62-2 9-.63 2.26-.63 2.26-1.12 4.69-.17.81-.34 1.61-.51 2.45-.12.61-.25 1.23-.37 1.86h-2c-.05.62-.05.62-.29 3.75-.66 5.97-2.39 11.53-4.15 17.25-2.11 6.97-4.08 13.87-5.56 21-.66.16-.66.16-4 1l-1 4h-2v5c-.33.16-.33.16-2 1 2.06-9.85 4.18-19.68 6.97-29.36 1.08-3.82 2.03-7.66 2.97-11.52 1.43-5.81 3.03-11.48 5.06-17.12 2.59-7.22 4.37-14.51 6-22"/><path fill="#0a0a0a" d="M252.875 92.75c3.12.25 3.12.25 6.12 3.25l-21 6c3.01 2 4.71 2.49 8.19 3.13.9.16 1.8.33 2.73.5.35.06.35.06 2.08.37v2c-.99.33-1.97.66-3 1-.32.66-.65 1.32-1 2-6.32-.26-11.1-1.3-16.77-4.09-3.03-1.24-5.9-1.4-9.14-1.63-3.06-.41-5.45-1.73-8.09-3.28 1-1.98 1.98-3.96 3-6 .52.17 1.04.33 1.57.5 6.14 1.26 12.01.19 18.06-1 4.54-.88 8.73-1.57 13.37-1.5 1-1 1-1 3.88-1.25"/><path fill="#e4e1df" d="M554 129h1c.06 1.04.12 2.07.18 3.14.09 1.37.17 2.74.26 4.11.04.68.08 1.36.12 2.07.17 2.75.36 5.37 1.05 8.05.13.54.26 1.07.39 1.63-1.25 1.88-1.25 1.88-3 4-2.12 3.91-3.63 7.78-5 12l-1 1c-.23 1.9-.45 3.8-.62 5.7-.79 4.81-2.75 9.32-4.49 13.86-3.3 8.62-6.19 17.31-8.66 26.21l-.73 2.48c-.2.71-.39 1.41-.59 2.14-.91 1.61-.91 1.61-3 2.34-.63.09-1.26.18-1.91.27v-6h2l-1-3c.33-.16.33-.16 2-1-.23-.85-.45-1.69-.69-2.56-.4-4.45.72-6.49 2.69-10.44h2c.1-.54.21-1.07.31-1.62.69-2.38.69-2.38 2.31-5.44C539 185 539 185 538 182c.27-2.01.27-2.01.81-4.12.17-.71.35-1.41.52-2.14C540 174 540 174 542 173c.85-3.56 1.17-5.49 0-9h2c.14-.6.29-1.2.44-1.81.45-1.75.99-3.48 1.56-5.19l2-1c.62-2.06.62-2.06 1-4h2l1-3h2c-.15-.4-.15-.4-.94-2.44-1.25-4.18-1.69-8.22-2.06-12.56l2-1c.62-2.06.62-2.06 1-4"/><path fill="#151616" d="m317 77-3 1-1 3 4 1c-1.17.24-2.34.48-3.55.73-7.85 1.67-15.4 3.41-22.9 6.34-3.67 1.34-7.41 2.23-11.21 3.13-2.53.61-5.04 1.24-7.55 1.91-.72.19-1.44.38-2.19.57q-2.13.555-4.26 1.14c-3.32.86-5.01 1.29-8.34.18l1-1c-2.74-1.37-4.97-1.13-8-1l-2 1-2-2c1.18-.19 2.36-.39 3.58-.59 1.56-.26 3.11-.52 4.67-.79.39-.06.39-.06 2.36-.38 3.86-.66 6.89-1.44 10.39-3.24 2.44-.49 4.86-.92 7.31-1.31 7-1.21 13.44-3.14 20.13-5.49 4.34-1.46 8.71-2.57 13.17-3.62 6.32-1.53 6.32-1.53 9.39-.58"/><path fill="#121210" d="M251 106c1.58.11 3.17.24 4.75.38.88.06 1.76.13 2.67.21 2.58.41 2.58.41 4.43 1.41 3.15 1.47 6.36 1.43 9.77 1.56 7.14.32 7.14.32 9.38 1.44 2.88.23 5.74.42 8.62.56.81.05 1.61.09 2.43.13 1.99.11 3.97.21 5.95.31v2h2v3c-14.57.16-28.88-.24-43.31-2.44-.41-.06-.41-.06-2.48-.37-3.67-.59-6.08-1.11-9.21-3.19l2-3h3z"/><path fill="#e5e3e3" d="m528 219 1 2h2q-.675 3.405-1.38 6.81c-.12.63-.12.63-.77 3.83C528 235 528 235 526 238c-.52 1.88-.97 3.78-1.38 5.69-1.15 5.25-2.38 10.47-3.68 15.69-.16.65-.33 1.3-.49 1.97-1.53 6.08-3.27 12.09-5.07 18.09-.14.43-.14.43-.79 2.62-.2.64-.39 1.28-.59 1.94h-3c-.31-5.02.36-8.34 2.28-12.96.74-2.09 1.02-3.9 1.22-6.1.5-3.94.5-3.94 2.06-7.56 1.44-3.38 1.44-3.38 1.38-6.19.08-4.1 1.47-7.1 3.09-10.82.87-2.12 1.48-4.14 1.97-6.37h2l-.12-3.88c-.08-2.17-.08-2.17.12-4.12l2-2c.62-2.62.62-2.62 1-5"/><path fill="#dfdcd9" d="M523 480c4.27 3.79 6.89 7.67 9 13v2c-.8-.14-1.61-.29-2.44-.44-4.17-.66-8.36-1.12-12.56-1.56v-2c-32.72-.62-32.72-.62-45 3l1-3c1.03-.1 1.03-.1 6.15-.59.61-.13 1.22-.27 1.85-.41l1-2 3 2 1-3h11v1l9 1v-2c7.82-1.3 7.82-1.3 12 1 2.75-.38 2.75-.38 5-1z"/><path fill="#13110e" d="M451 512h2v3c-.33.16-.33.16-2 1 .06 1.18.12 2.35.19 3.56.19 3.66-.9 6.13-2.4 9.43-1.79 4.56-2.39 9.53-3.25 14.33-.16.82-.32 1.64-.48 2.48-.13.73-.26 1.47-.4 2.23-.78 2.33-1.84 3.35-3.66 4.97-2.47 3.71-2.57 7.66-3 12h-1c-.41-6.26.22-12.12 1.38-18.25.12-.67.25-1.35.38-2.04.79-4.03 1.93-7.82 3.24-11.71.28-1.58.53-3.16.75-4.75 1.1-5.89 3.96-11.96 8.25-16.25"/><path fill="#0c0a03" d="M76 210h1c-.06.72-.12 1.43-.18 2.17-.39 8.67 1.76 14.95 5.18 22.83 4.59 11.34 4.59 11.34 4 18-.66.16-.66.16-4 1-2.35-4.92-4.32-9.64-5.5-14.97-.55-2.25-1.33-4.36-2.12-6.53-2.48-7.34-1.58-14.15.62-21.5z"/><path fill="#050403" d="M170.188 286.563c3.74.03 5.57.55 8.25 3.19 5.07 5.72 5.48 11.81 5.56 19.25-.33 2.73-.86 4.45-2 7l-3 1c-.05-.63-.1-1.26-.15-1.91-1.27-14.63-1.27-14.63-4.85-20.09-2.9-1.94-3.89-2.3-7.19-2.63-1.25-.12-2.51-.25-3.81-.37 2.51-5.18 2.51-5.18 7.19-5.44"/><path fill="#272405" d="M87.813 197.5c.54.02.54.02 3.26.11 2.64.09 5.28.22 7.93.39v1c-.74.03-1.47.05-2.23.08-9.66.56-9.66.56-13.77 4.92-.7.56-1.39 1.13-2.11 1.71-2.58 3.12-2.33 5.1-2.2 9.1.03 1.24.06 2.47.1 3.75.21 3.55.54 6.95 1.21 10.44-3.05-4.57-4.26-7.18-4.13-12.75l.06-2.98c.02-.75.04-1.5.07-2.27-.12.6-.24 1.21-.37 1.83-.08.4-.08.4-.51 2.42l-.49 2.39c-.62 2.33-1.48 4.25-2.63 6.36-.74-4.13-1.18-8.24-1.38-12.44l-.15-2.62c1.91-10.73 7.24-12.08 17.34-11.44"/><path fill="#eae6e7" d="m510 285 3 2q-.675 4.095-1.38 8.19c-.12.77-.25 1.54-.38 2.33-.7 4.09-1.65 7.63-3.24 11.48-.57 2.47-1.08 4.95-1.56 7.44l-.76 3.87q-.885 4.83-1.68 9.69h-1c-3.02-13.64-3.02-13.64 0-21 .12-2.81.12-2.81 0-5h2l3-12h-2l-1-4z"/><path fill="#1d1d1a" d="M317 111h9v2l10 2v1l-3.46.18c-1.5.09-2.99.17-4.48.26l-2.28.12c-5.67.33-5.67.33-6.78 1.44-2.45.09-4.87.12-7.32.1-.73 0-1.46-.01-2.21-.01-2.35 0-4.69-.01-7.03-.03-1.59 0-3.17-.01-4.76-.01-3.89-.01-7.79-.03-11.68-.05v-1h15v-3h-2v-2l18 1z"/><path fill="#15140a" d="m548 178 3 1c-.36 3.61-1.12 6.45-2.81 9.62-2.77 5.21-4.43 10.77-6.19 16.38l-6-1c.6-4.48 1.76-8.31 3.44-12.5 1.65-4.13 3.19-8.26 4.56-12.5h3z"/><path fill="#020100" d="M145 324h2c1.24 3.83 1.13 7.63 1.1 11.61 0 .73-.01 1.45-.01 2.2 0 2.31-.01 4.63-.03 6.94 0 1.57-.01 3.14-.01 4.71-.01 3.85-.03 7.69-.05 11.54-.66.17-.66.17-4 1-1.47-4.42-1.19-8.74-1.19-13.38v-2.98c.05-7.39.66-14.4 2.19-21.64"/><path fill="#1b1b1b" d="m281 87-1 3 4 1c-8.96 2.31-17.86 4.53-27 6l1-2c-2.74-1.37-4.97-1.13-8-1-.33.16-.33.16-2 1l-2-2c1.18-.19 2.36-.39 3.58-.59 1.56-.26 3.11-.52 4.67-.79.39-.06.39-.06 2.36-.38 3.83-.65 6.96-1.35 10.39-3.24 1.65-.45 3.32-.85 5-1.19.85-.18 1.69-.36 2.56-.54 2.47-.27 4.1-.03 6.44.73"/><path fill="#d8d7d6" d="m500 327 1 4h2c-.05 3.08-.15 6.17-.25 9.25-.01.44-.01.44-.04 2.64-.25 6.58-.25 6.58-2.63 9.34-.34.3-.34.3-2.08 1.77-2.19 4.94-2.61 10.05-3.12 15.38-.09.83-.18 1.66-.27 2.51-.21 2.04-.41 4.07-.61 6.11-2.98-3.4-2.98-3.4-3.07-6.14.17-.98.17-.98 1.07-5.86h1c-.01-.6-.02-1.21-.04-1.83 0-.8-.01-1.6-.02-2.42-.01-.79-.03-1.58-.04-2.39.1-2.3.34-4.18 1.1-6.36.68-.52 1.36-1.03 2.06-1.56 3.19-4.01 2.32-8.52 1.94-13.44-.28-2.01-.59-4.01-1-6v-2h2z"/><path fill="#1b1609" d="M178 307h1l1 9h2l1-3c-.75 6.75-.75 6.75-3 9-2.71 5.96-4.96 12.53-6 19h-1c-1-6.62-1-6.62-1-10l-2-1c.88-5.82 2.22-9.69 5.89-14.29 1.82-2.81 1.91-5.41 2.11-8.71"/><path fill="#161207" d="M170 583h1l2 8 3-1c1.13 4.04.87 6.28-.75 10.12-.35.85-.69 1.7-1.05 2.58-1.18 2.27-2.18 3.73-4.2 5.3-2.62-.19-2.62-.19-5-1l-1-2c.6-1.07 1.2-2.14 1.81-3.25 3.13-5.84 3.5-12.26 4.19-18.75"/><path fill="#ece490" d="M553 213c1.86 3.13 2.2 5.37 2 9h-2v14h-1v-6h-2v-6l-2-1 1-3-3-2v-2c-4.51 2.19-6.06 4.41-8 9h-2c.19-3.31.19-3.31 1-7 4.52-3.75 10.18-5.34 16-5"/><path fill="#130f08" d="M122 153c6.19 5.84 10.41 10.5 10.96 19.28.01.57.03 1.13.04 1.72l-4-1c.04.55.04.55.25 3.31C129 180 129 180 127 181.94l-2 1.06c.33-.57.66-1.15 1-1.74 1.7-3.85 1.12-7.28 0-11.26-1.75-3.2-3.82-6.08-6-9l-1-2c.99.16.99.16 6 1v-2h-2z"/><path fill="#1b1913" d="M144 255c2.52 2.52 2.75 4.37 3.56 7.81.25 1.04.5 2.08.76 3.15q.9 4.005 1.68 8.04l-4 1 1 2q.06 3 0 6c-2.3-3.45-3.07-6.77-4-10.75-.33-1.39-.67-2.78-1-4.17-.16-.68-.32-1.35-.49-2.05-.76-3.03-1.63-6.03-2.51-9.03h3z"/><path fill="#181305" d="M142 531c7.07.97 12.23 2.78 18 7l-1 2-3 1v3c-1.01-.78-2.02-1.57-3.06-2.38-6-3.82-13.03-4.02-19.94-4.62v-1h8z"/><path fill="#d7d6d5" d="M495 404h1c.11.6.21 1.2.32 1.82.49 2.75.99 5.49 1.49 8.24.17.95.33 1.89.5 2.86 1.01 5.45 2.37 10.05 4.69 15.08.6 1.97 1.17 3.95 1.69 5.94.25.96.5 1.91.76 2.9.18.71.36 1.43.55 2.16l-6-2c.06-.89.12-1.77.19-2.69-.21-3.69-1.28-5.23-3.19-8.31l1-3h-2c-.24-1.88-.48-3.76-.71-5.64-.19-1.57-.4-3.13-.61-4.68-.59-4.48-.71-8.22.32-12.68"/><path fill="#0d0a01" d="m158 568 2 1-1 10c-6.47 3.23-11.78 4.7-19 5v-2l8-1-1-5c.89-.58 1.77-1.15 2.69-1.75 2.9-1.93 5.62-4.03 8.31-6.25"/><path fill="#15130e" d="M511 491h6v2c.28-.01.28-.01 1.72-.04 4.89-.05 9.47.22 14.28 1.04v2c-6.32 3.07-12.05 5.38-19 3-1.74-1.39-1.74-1.39-3-3-.19-2.69-.19-2.69 0-5"/><path fill="#e7d106" d="M149 326h3c.06 3.75.09 7.5.12 11.25l.06 3.22c0 1.03.01 2.05.02 3.11l.03 2.85c-.24 2.7-.93 4.23-2.23 6.57-.41 2.58-.41 2.58-.62 5.25-.08.89-.15 1.78-.23 2.7-.05.68-.1 1.35-.15 2.05h-1c-.02-4.31-.04-8.61-.05-12.92l-.03-4.38c-.01-2.11-.01-4.22-.02-6.33 0-1.27-.01-2.54-.01-3.84.1-3.28.49-6.32 1.11-9.53"/><path fill="#222207" d="M149 302h1l1 8h2c-.88 6.88-.88 6.88-2 8-.4 2.35-.74 4.7-1.06 7.06-.18 1.29-.36 2.58-.54 3.91-.13 1-.26 2-.4 3.03-1.76-3.09-2-4.23-2-8h-2v7h-1c-.44-7.45.53-13.94 3-21l1-1c.37-2.33.7-4.66 1-7"/><path fill="#090907" d="m278 111 21 1v2h2v3q-4.095.045-8.19.06l-2.33.03c-3.97.01-7.61-.1-11.48-1.09z"/><path fill="#0e0d02" d="M148 363c.68.72 1.36 1.44 2.06 2.19 3.03 3.04 6.4 5.38 9.94 7.81l-1 5c-4.04 0-6.07-.24-9.25-2.85-1.98-2-3.89-4.03-5.75-6.15.47-.43.95-.87 1.44-1.31C147 366 147 366 148 363"/><path fill="#e7e6e5" d="M309 73c-3.83 2.39-7.6 2.56-12 3v2l7 1v1l-17 4v-5l-1-3h-6v-1c.62-.03 1.24-.05 1.88-.08q4.215-.165 8.43-.36l2.96-.12 2.84-.12c.44-.02.44-.02 2.62-.11 3.6-.33 6.57-1.31 10.27-1.21"/><path fill="#020201" d="M557 210c2.13 1.71 2.93 2.57 3.36 5.31-.12 6.74-.93 13.1-2.36 19.69l-1-3h-2c-1.18-3.53-1.22-6.76-1.25-10.44-.03-1.32-.05-2.63-.08-3.99.34-3.65.83-4.99 3.33-7.57"/><path fill="#dbdbda" d="M506 443c3.35 1.67 4.39 5.32 6 8.56.36.69.71 1.39 1.08 2.1 2.35 4.71 3.81 9.19 4.92 14.34h-2v3l-3-1c-3.37-7.01-5.78-14.19-5-22l-3-1z"/><path fill="#0e0e0c" d="M350 109v3c-3.65 2.44-5.89 2.42-10.25 2.69-1.28.08-2.57.17-3.89.26-3.81.05-7.12-.31-10.86-.95l1-3c8.02-1.18 15.86-2.29 24-2"/><path fill="#302c14" d="m508 306 1 4h2c2.76 5.51.1 14.23-1.52 19.98-.93 3.94-1.17 7.99-1.48 12.02l2 1h-3c-.03-2.12-.05-4.25-.06-6.38-.01-1.18-.03-2.36-.04-3.58.1-3.04.1-3.04 1.1-5.04q.06-3 0-6l-3 1c-.49-6 1.3-11.32 3-17"/><path fill="#20201d" d="m373 107 1 2-7 1v3l-20 1 1-2h2v-3l-4-1z"/><path fill="#f0efed" d="M437 31v2c-.52.21-1.04.42-1.58.63-5.81 2.43-10.91 5.48-16.13 8.98C417 44 417 44 415 44c-.62-1.81-.62-1.81-1-4l2-3-2-1c2.94-.73 5.87-1.47 8.81-2.2 1.89-.47 3.78-.95 5.66-1.44 2.93-.77 5.49-1.36 8.53-1.36"/><path fill="#0f0d05" d="M111 149c7.82 1.09 7.82 1.09 11 3 .81 3.12.81 3.12 1 6h2v2c-5.21-.53-9.24-1.88-14-4-2.94-.69-2.94-.69-5-1l3-2v-2l2-1z"/><path fill="#f0dd03" d="M556 245h3c.5 6.8-.9 11.92-4 18l-2 2h-3c.1.37.1.37.62 2.25.43 3.12.25 4.25-1.62 6.75-2.12.75-2.12.75-4 1 1.03-3.42 2.24-6.58 3.88-9.75 3.29-6.44 6.36-12.99 7.12-20.25"/><path fill="#e1dede" d="m517 257 1 3 2 1c-.62 2.52-1.25 5.04-1.88 7.56-.08.35-.08.35-.52 2.14-1.11 4.46-2.31 8.88-3.6 13.3h-3c-.31-5.02.35-8.33 2.27-12.95.76-2.14 1.07-4.05 1.29-6.3.38-3.22.76-5.06 2.44-7.75"/><path fill="#090a02" d="m126 341 1 2c.74.19 1.49.37 2.25.56 4.2 2.2 6.17 6.04 7.75 10.44-.37 2.29-.37 2.29-1 4-1.73-.13-1.73-.13-4-1-2.14-2.65-2.14-2.65-4.25-5.94-.71-1.08-1.41-2.16-2.14-3.27C124 345 124 345 124 343h2z"/><path fill="#181704" d="M553 222h1l1 10h4c-.11 1.58-.24 3.17-.38 4.75-.06.88-.13 1.76-.21 2.67-.41 2.57-1.12 4.34-2.41 6.58l-2-4c-.83 2.89-1 4.89-1 8h-2c-1.02-3.17-.92-5.17-.12-8.38 1.43-6.48 1.76-13 2.12-19.62"/><path fill="#080803" d="m461 503 3 3c-4 5.33-8 10.67-12 16-1.06-1.81-1.06-1.81-2-4l1-3h2c-.27-.56-.54-1.11-.81-1.69-.19-2.31-.19-2.31 2.12-5.06C457 506 457 506 459 506z"/><path fill="#0e0f0f" d="M532 214c.84 3.1 1.09 5.78 1 9h3c.25 5.62.25 5.62-2 9-.38 1.66-.73 3.32-1 5l-5-1c.64-7.53 2.2-14.67 4-22"/><path fill="#0b0b01" d="M145 324h2c1.1 3.54 1.11 6.82 1.1 10.52 0 .62 0 .62-.01 3.78l-.03 3.95c0 1.32-.01 2.63-.01 3.99-.01 3.25-.03 6.51-.05 9.76h-1l-1-16h-1l-1 10h-1c-.26-8.89.4-17.25 2-26"/><path fill="#090807" d="M135 242c2.92 1.07 4.78 1.78 7 4 .63 2.6.63 2.6 1.12 5.62.17 1.01.34 2.01.51 3.04.12.77.25 1.55.37 2.34h-5c-.68-1.56-1.34-3.12-2-4.69l-1.12-2.63c-.9-2.74-1.04-4.83-.88-7.68"/><path fill="#060706" d="M329 75v4c-5.39 2.27-10.26 2.2-16 2 .38-1.92.38-1.92 1-4 4.48-2.89 9.87-2.18 15-2"/><path fill="#0d0d0c" d="m414 98-1 5c-4.87 1.59-8.81 2.21-14 2 .06-1.81.06-1.81 1-4 4.85-2.72 8.37-3.34 14-3"/><path fill="#1a190a" d="M86 250c2.62 2.62 3.72 5.64 5.12 9 .28.64.56 1.28.84 1.95C94 265.74 94 265.74 94 268c-2 0-2 0-3.38-1.25-.53-.58-1.07-1.15-1.62-1.75-.68-.58-1.36-1.15-2.06-1.75-2.48-2.88-3.1-5.59-3.94-9.25l2-1z"/><path fill="#010101" d="m453.688 29.938 3.01.03c.38 0 .38 0 2.3.03v2l-3 2-1 2c-1.62.06-3.25.1-4.87.13-.91.02-1.81.04-2.74.07-2.39-.2-2.39-.2-4.39-2.2 2.98-4.46 5.66-4.12 10.69-4.06"/><path fill="#1e1c02" d="M510.25 530.875c1.08.02 2.16.04 3.27.05.41.02.41.02 2.48.07v1c-4.62.66-9.24 1.33-14 2 1 3 1 3 3 5-2.64 2.31-5.28 4.63-8 7l-1-3c1.94-2.68 1.94-2.68 4-5-.78.52-1.57 1.04-2.37 1.57-.87.47-1.74.95-2.63 1.43-.66-.33-1.32-.65-2-1 1.08-1.13 2.16-2.25 3.25-3.37.6-.63 1.21-1.25 1.83-1.9 3.96-3.56 6.87-3.97 12.17-3.85"/><path fill="#1c170d" d="M177 382h1v18h-3l-1-2-2 4c-.08-1.77-.14-3.54-.19-5.31-.03-.99-.07-1.97-.1-2.99.34-3.14.97-3.71 3.29-5.7 1.19-3.19 1.19-3.19 2-6"/><path fill="#d7d5d5" d="m510 285 3 2-3 17-1-4h-2c-.12-5.75-.12-5.75 1-8h-2l-1-4z"/><path fill="#060501" d="M151 296h2v3h2c1.03 4.41 1.04 6.93-1 11h-3l-1 2c-.03-2.1-.05-4.21-.06-6.31-.01-1.17-.03-2.35-.04-3.55.1-3.14.1-3.14 1.1-6.14"/><path fill="#ebd601" d="m518 540 3 2c.43 3.15.43 3.15.44 6.94l.06 3.77c-.5 3.29-.5 3.29-2.53 5.23L517 559l-2-7 2-2c.41-2.38.41-2.38.62-5.12.08-.92.15-1.83.23-2.76z"/><path fill="#030100" d="M178 300h4c.39 1.73.76 3.46 1.12 5.19l.64 2.92c.27 3.29-.14 5.02-1.76 7.89l-3 1z"/><path fill="#130f0c" d="M178 291c3.55 2.37 4.54 3.83 5.41 7.97.32 1.99.46 4.01.59 6.03l-2 2v-7l-5 1c-.45-.95-.91-1.9-1.38-2.88C174 295 174 295 172 293h6z"/><path fill="#f1e887" d="M80 205h15v6c-2.17-.51-4-1-6-2v-3h-2v3h-4v-2c-.45.5-.91.99-1.38 1.5C80 210 80 210 78 210z"/><path fill="#050402" d="M170 330h4c-.16.66-.33 1.32-.5 2-.62 3.73-.56 7.22-.5 11l-3 1-2 2c-.21-5.79.41-10.43 2-16"/><path fill="#e9e489" d="M524 279v6h5v2l-3 1v-2c-2.38.25-2.38.25-5 1-1.31 2.06-1.31 2.06-2 4h7c-2 2-2 2-5.12 2.12L518 293c-.63-7.98-.63-7.98 1.88-12.06C522 279 522 279 524 279"/><path fill="#e3e2e2" d="M228 91v3h-2l1 4c-5.26.32-8.45-.33-13-3v-2z"/><path fill="#151504" d="m549 205 2 1-2 4 5 1v5l-1-3-10 1 1-7c2.38-1.06 2.38-1.06 5-2"/><path fill="#cbcbca" d="M318 107c1.94.31 1.94.31 4 1l1 3h-6v2h-14v-1h5l1-3c1.49-.17 1.49-.17 9-1z"/><path fill="#060401" d="m491 491 1 3h-2l-1 3h-10l1-5c1.46-.17 2.92-.33 4.38-.5.81-.09 1.62-.19 2.46-.28C489 491 489 491 491 491"/><path fill="#272625" d="M402 101c-.33.17-.33.17-2 1l-1 3 3 1c-2.08.67-4.16 1.34-6.25 2-1.16.37-2.32.74-3.52 1.12-3.23.88-3.23.88-7.23.88v-2c.32-.06.32-.06 1.93-.37.83-.16 1.66-.33 2.51-.51.82-.16 1.64-.32 2.49-.49.69-.21 1.37-.41 2.07-.63l1-2h-6v-1c1.6-.53 3.21-1.05 4.81-1.56.9-.29 1.79-.58 2.71-.88C399 100 399 100 402 101"/><path fill="#242202" d="m158 568 2 1-1 10h-3l1-4c-1.49.5-1.49.5-9 3l-1-2c.89-.58 1.77-1.15 2.69-1.75 2.9-1.93 5.62-4.03 8.31-6.25"/><path fill="#171204" d="M167 339h1l1 5 3-1v5l-5 1c.14 1.44.29 2.88.44 4.31.08.8.16 1.6.24 2.43C168 358 168 358 169 361c-.28 2.01-.6 4.01-1 6-2.73-4-2.26-8.24-2.19-12.88v-2.39c.04-4.35.33-8.45 1.19-12.73"/><path fill="#22221d" d="M523 245h1l1 9h2c-.28 1.44-.58 2.88-.88 4.31-.16.8-.32 1.6-.49 2.43C525 263 525 263 523 266l.12-2.38C523 261 523 261 521 259c-.48-4.99.68-9.23 2-14"/><path fill="#252525" d="m251 106 10 1-4 3c-.33.5-.33.5-2 3l-9-1 2-4h3z"/><path fill="#010001" d="M171 348v15l-3 1c-1-3.31-1.1-6.3-1.06-9.75.01-.98.02-1.97.02-2.98.02-.75.03-1.5.04-2.27 2-1 2-1 4-1"/><path fill="#e7e5e4" d="M485 487h12l-1 2c-2.1.69-2.1.69-4.84 1.29-.98.22-1.96.44-2.97.66-1.03.22-2.06.45-3.13.67-.51.12-.51.12-3.11.7-7.62 1.68-7.62 1.68-9.95 1.68l1-3c1.03-.1 1.03-.1 6.15-.59.61-.13 1.22-.27 1.85-.41l1-2 3 2z"/><path fill="#e8e5e5" d="M554 129h1c.06 1.04.12 2.07.18 3.14.09 1.37.17 2.74.26 4.11.04.68.08 1.36.12 2.07.21 3.32.46 6.48 1.44 9.68l-3 1c-1.92-4.98-2.55-9.73-3-15l2-1c.62-2.06.62-2.06 1-4"/><path fill="#e5e4e4" d="m280 106 1 2-1 2-13-1v-3c5.02-2.2 7.91-2 13 0"/><path fill="#030601" d="M486 552h1c.77 8.78.77 8.78-1.11 11.78-1.39 1.34-1.39 1.34-3.89 3.22l-4-2 3-1v-5l3-1c1.19-3.06 1.19-3.06 2-6"/><path fill="#cfcfcf" d="m375 69-5 1-1 5c-1.49.17-1.49.17-9 1l-2-4c2.08-.7 4.16-1.38 6.25-2.06 1.16-.39 2.32-.77 3.52-1.16 3.03-.73 4.39-.9 7.23.22"/><path fill="#1a180d" d="M480 493v3l3 2-8 2-1-4-4 2-2-2c1.62-.7 3.25-1.38 4.88-2.06.9-.39 1.8-.77 2.74-1.16C478 492 478 492 480 493"/><path fill="#e1e0e0" d="M494 386h1v18l-5-1v-5l2-1c.38-2 .38-2 .56-4.44.35-4.37.35-4.37 1.44-6.56"/><path fill="#201c11" d="M128 163c1.95.71 1.95.71 4 2 .61 2.16.61 2.16.75 4.62.06.82.11 1.64.17 2.48.03.63.05 1.25.08 1.9l-4-1c.08 1.09.16 2.19.25 3.31C129 180 129 180 127 181.94l-2 1.06c.33-.56.65-1.12.99-1.7 1.13-2.57 1.22-4.27 1.13-7.05-.01-.8-.03-1.6-.05-2.42-.02-.61-.05-1.21-.07-1.83h3l-2-3z"/><path fill="#030202" d="M173 377h2c2.22 4.3 2.23 7.33 1 12-2.05 1.21-2.05 1.21-4 2-.03-2.15-.05-4.29-.06-6.44-.01-1.19-.03-2.39-.04-3.62.1-2.94.1-2.94 1.1-3.94"/><path fill="#292b23" d="M443 544h1c.37 5.56.37 5.56-1.38 7.62-.53.46-1.07.91-1.62 1.38-2.47 3.71-2.57 7.66-3 12h-1c-.27-6.95.39-13.24 2-20l2 1v2h2z"/><path fill="#e8e183" d="m553 216 2 1v5h-2v14h-1v-6h-2v-6l-2-1c.64-.41 1.28-.82 1.94-1.25 2.27-1.93 2.66-2.86 3.06-5.75"/><path fill="#362c0e" d="M496 490v2h-2v3h11v1h-15l1-5c-.33.17-.33.17-2 1-2.67.13-5.32.04-8 0v-1c5.05-1.04 9.87-1.1 15-1"/><path fill="#e9e8e5" d="M525 488c1.68.29 3.34.62 5 1l2 6c-3.38-.54-6.7-1.11-10-2 1.88-3.88 1.88-3.88 3-5"/><path fill="#171711" d="M130.125 635.938c.75.1 1.51.2 2.29.3 1.86.25 3.72.51 5.59.76-3.71 2.35-7.49 2.43-11.76 2.63-.69.04-1.39.07-2.11.11-1.71.1-3.42.18-5.13.26l-1-2h2v-2c3.24-1.62 6.63-.54 10.12-.06"/><path fill="#1c1813" d="M172 554c2.18 1.76 2.94 2.69 3.51 5.48l.18 2.71c.06.9.13 1.8.2 2.73.03.69.07 1.37.11 2.08-1.66.38-3.32.71-5 1-1-1-1-1-1.06-4.06L170 561h4v-3h-2z"/><path fill="#f3ed95" d="M128 333c2.03 1.42 2.9 2.55 3.42 4.98.24 2 .42 4.01.58 6.02h2v2l3 1-2 4c-1.38-1.86-2.72-3.74-4.06-5.62-.76-1.05-1.51-2.09-2.29-3.17-1.9-3.7-1.78-5.28-.65-9.21"/><path fill="#dddbda" d="m503 311 1 4h2l-2 15h-1c-2.47-11.17-2.47-11.17-2-16z"/><path fill="#060806" d="M509 320c.43 4.96.5 7.88-2.44 12-.84.99-1.69 1.98-2.56 3h-1c.35-10.13.35-10.13 3-13.69 2-1.31 2-1.31 3-1.31"/><path fill="#e7e5e5" d="M358 104h16v3c-2.29.08-4.58.14-6.88.19-.63.01-.63.01-3.86.1-1.08-.09-2.15-.19-3.26-.29z"/><path fill="#060807" d="M290 85v4c-3.21 1.61-6.44 1.06-10 1 .38-1.94.38-1.94 1-4 2.96-1.48 5.74-1.06 9-1"/><path fill="#1b1c1c" d="M336 72c-.19.62-.37 1.24-.56 1.88C335 76 335 76 336 78l-7 1v-4l-4-1c3.88-1.19 6.92-2 11-2"/><path fill="#e5d003" d="M155 305c2 2 2 2 2.44 4.75-.58 4.29-2.63 6.03-5.44 9.25-.81 2.88-.81 2.88-1 5h-1c-.4-5.36.96-9.17 3-14 .2-.5.2-.5 1.19-3 .27-.66.53-1.32.81-2"/><path fill="#e7d601" d="M488 559c.66 1.78.66 1.78 1 4-2.51 4.31-6.82 8.36-11 11-2.31-.25-2.31-.25-4-1 .73-.38 1.45-.76 2.2-1.14 3.24-2.15 5.21-4.5 7.61-7.55.79-.99 1.58-1.99 2.4-3.01.59-.76 1.18-1.52 1.79-2.3"/><path fill="#dfc502" d="M579 246h1c.24 7.13-.25 14.06-2 21l-2 2c-.8-3.29-1.1-4.71 0-8h2l-1.06-2.88C576 255 576 255 577 253h2z"/><path fill="#191817" d="m373 107 1 2-7 1v3h-9v-2h2v-3c2.14-.17 2.14-.17 13-1"/><path fill="#cbcac9" d="M248 99c-.51 2.17-1 4-2 6l-8-1v-3c1.29-.34 2.58-.67 3.88-1 .71-.19 1.43-.37 2.17-.56C246 99 246 99 248 99"/><path fill="#1c1e1d" d="m365.563 63.938 2.44.06v2l-5 2 1 3-4 1-1-3c-.99-.16-.99-.16-6-1v-1c.32-.06.32-.06 1.93-.4.83-.18 1.65-.35 2.51-.54.82-.17 1.64-.34 2.49-.52 2.71-.7 2.68-1.53 5.63-1.6"/><path fill="#ccc9c8" d="M437 31v2l-10 4-1-1c-2.67-.14-5.32-.04-8 0 2.74-2.74 5.16-2.85 8.94-3.62.62-.14.62-.14 3.77-.79C434 31 434 31 437 31"/><path fill="#30322a" d="M532 214c.91 3.07 1.09 5.8 1 9h3c.37 5.54.37 5.54-1.5 7.88-.25.18-.25.18-1.5 1.12l1-6-4 1c.14-1.6.29-3.21.44-4.81.08-.9.16-1.79.24-2.71C531 217 531 217 532 214"/><path fill="#e8e6e6" d="m528 219 1 2h2l-2 10-3 1c-.62-2.88-.62-2.88-1-6l2-2c.62-2.62.62-2.62 1-5"/><path fill="#ddca02" d="M552 260h1v5h-3c.1.37.1.37.62 2.25.43 3.12.25 4.25-1.62 6.75-2.12.75-2.12.75-4 1 3.43-11.43 3.43-11.43 7-15"/><path fill="#010101" d="M553 241c1.5 1.25 1.5 1.25 3 3v4h-2l-1 6-3-1v-5l1 2c.14-.74.29-1.49.44-2.25.46-2.27.98-4.51 1.56-6.75"/><path fill="#060402" d="m169 552 1 2h2v4h2v3h-2l-1 3c-1.56-1.5-1.56-1.5-3-4 .03-2.77.5-5.25 1-8"/><path fill="#181511" d="m167 547 3 1c1.19 3.06 1.19 3.06 2 6h-2c-1.62 2-1.62 2-3 4-2.22-5.29-2.22-5.29-1.12-8.88z"/><path fill="#f2eb8e" d="M144 315h1l-1 22h-1c-.02-.42-.02-.42-.15-2.52-.07-1.09-.15-2.17-.23-3.29-.06-1.08-.13-2.16-.21-3.27C142 325 142 325 140 322z"/><path fill="#151405" d="M99 282h2c3 5.75 3 5.75 3 8-.64.1-1.28.21-1.94.31-.34.12-.34.12-2.06.69l-1 3c-2.22-6.28-2.22-6.28-1.12-9.94z"/><path fill="#2e2d2b" d="M317 111h9v2l10 2v1h-13l-1-3-5-1z"/></svg>